<?xml version="1.0" encoding="UTF-8"?>
<svg id="Layer_1" data-name="Layer 1" xmlns="http://www.w3.org/2000/svg" xmlns:xlink="http://www.w3.org/1999/xlink" viewBox="0 0 396 612">
  <defs>
    <style>
      .cls-1 {
        stroke: #dc4030;
      }

      .cls-1, .cls-2 {
        stroke-width: 1.33px;
      }

      .cls-1, .cls-2, .cls-3 {
        fill: none;
      }

      .cls-2 {
        stroke: #d2232a;
      }

      .cls-4 {
        clip-path: url(#clippath);
      }

      .cls-3, .cls-5, .cls-6, .cls-7, .cls-8 {
        stroke-width: 0px;
      }

      .cls-9 {
        font-family: TrajanPro3-Semibold, 'Trajan Pro 3';
        font-size: 25px;
        font-weight: 600;
      }

      .cls-9, .cls-8 {
        fill: #fff;
      }

      .cls-5 {
        fill: #3a3883;
      }

      .cls-6 {
        fill: #231f20;
      }

      .cls-7 {
        fill: #dc4030;
      }
    </style>
    <clipPath id="clippath">
      <rect class="cls-3" width="396" height="612"/>
    </clipPath>
  </defs>
  <rect class="cls-8" width="396" height="597"/>
  <rect class="cls-5" y="295.2" width="396" height="316.8"/>
  <path class="cls-5" d="m55.92,69.08c0,4.78,0,8.89.26,11.13.16,1.46.47,2.6,2.03,2.81.73.1,1.87.21,2.65.21.57,0,.83.16.83.42,0,.36-.42.52-.99.52-3.43,0-6.71-.16-8.16-.16-1.2,0-4.47.16-6.55.16-.68,0-1.04-.16-1.04-.52,0-.26.21-.42.83-.42.78,0,1.4-.1,1.87-.21,1.04-.21,1.35-1.35,1.51-2.86.26-2.18.26-6.29.26-11.08v-21.32c-1.98.05-5.2.16-7.75.21-3.02.1-4.26.36-5.04,1.51-.52.78-.78,1.4-.88,1.82-.1.42-.26.62-.57.62-.36,0-.47-.26-.47-.83,0-.83.99-5.56,1.09-5.98.16-.68.31-.99.62-.99.42,0,.94.52,2.24.62,1.51.16,3.48.26,5.2.26h20.59c1.66,0,2.81-.16,3.59-.26.78-.16,1.2-.26,1.4-.26.36,0,.42.31.42,1.09,0,1.09-.16,4.68-.16,6.03-.05.52-.16.83-.47.83-.42,0-.52-.26-.57-1.04,0-.16-.05-.42-.05-.57-.1-1.35-1.51-2.81-6.14-2.91-1.35-.05-3.48-.1-6.55-.16v21.32Z"/>
  <path class="cls-5" d="m77.82,63.51c0-6.76,0-7.75-.1-9.15-.1-1.56-.52-2.24-1.92-2.5-.57-.1-1.2-.16-1.77-.21-.52,0-.78-.16-.78-.47s.31-.47.99-.47c2.34,0,5.51.16,6.4.16,1.4,0,5.1-.16,6.66-.16,3.12,0,6.19.31,8.53,1.82,1.46.94,3.38,3.17,3.38,6.19,0,3.33-1.56,6.29-6.08,9.67,3.85,4.78,7.07,8.89,9.78,11.65,2.5,2.65,4.21,2.86,5.04,3.07.47.05.83.05,1.2.1.42,0,.62.21.62.42,0,.36-.31.52-.88.52h-4.37c-3.02,0-4.32-.31-5.62-.99-1.82-.99-3.54-3.02-5.93-6.29-1.87-2.6-3.8-5.36-4.47-6.14-.16-.21-.42-.26-.73-.26l-3.69-.1c-.21,0-.36.1-.36.36v.94c0,4,0,7.07.21,8.89.1,1.3.42,2.29,1.82,2.44.62.16,1.56.16,2.18.21.42,0,.57.21.57.42,0,.31-.31.52-.88.52-2.76,0-6.4-.16-7.07-.16-.78,0-3.95.16-5.77.16-.57,0-.88-.16-.88-.47,0-.21.21-.47.73-.47.68-.05,1.25-.05,1.66-.16.88-.21,1.2-1.14,1.3-2.5.26-1.82.26-5.15.26-9.26v-7.8Zm5.88,3.38c0,.42.1.62.42.73.94.36,2.29.52,3.48.52,1.66,0,2.39-.21,3.17-.78,1.3-.94,2.55-2.86,2.55-6.4,0-6.29-4.32-7.96-6.92-7.96-1.09,0-1.92.05-2.34.21-.26.1-.36.26-.36.62v13.05Z"/>
  <path class="cls-5" d="m124.65,73.18c-.21,0-.31.1-.42.36l-2.29,5.67c-.42,1.09-.68,2.18-.68,2.7,0,1.3,1.61,1.35,2.6,1.35.62,0,.78.21.78.42,0,.36-.36.47-.83.47-1.61,0-3.48-.16-5.1-.16-.52,0-3.12.16-5.51.16-.57,0-.83-.1-.83-.47,0-.26.26-.47.62-.47,3.28-.31,4-.94,5.2-3.95l11.02-26.05c.94-2.44,1.46-3.43,2.03-3.43.42,0,.68.47,1.2,1.61.88,2.55,8.58,20.28,11.49,26.94,1.66,3.9,2.96,4.58,4.06,4.78.47.1,1.25.1,1.72.1.57,0,.78.21.78.47,0,.31-.21.47-.88.47-2.18,0-7.64.1-10.92-.1-.47-.05-.78-.16-.78-.42,0-.21.21-.31.47-.42.47-.16.83-.31.52-.94l-3.54-8.79c-.05-.21-.21-.31-.42-.31h-10.3Zm9.31-2.6c.26,0,.26-.1.21-.26l-4.06-10.61c-.16-.42-.31-.52-.52,0l-4.11,10.61c-.05.16,0,.26.21.26h8.27Z"/>
  <path class="cls-5" d="m162.2,71.78c0,7.8-.05,11.28-.99,13.68-.99,2.81-3.48,5.93-8.06,8.63-.62.36-1.3.68-2.29,1.14-.31.16-.68.26-.94.26-.21,0-.36-.16-.36-.36s.16-.47.88-.88c.68-.36,1.46-.83,2.34-1.72,3.28-3.28,3.28-7.33,3.28-16.59v-12.43c0-6.76,0-7.8-.05-9.26-.1-1.4-.52-2.13-1.98-2.39-.42-.1-1.14-.16-1.77-.21-.52,0-.78-.21-.78-.52s.26-.42.99-.42c2.34,0,5.62.16,6.66.16s4.32-.16,6.08-.16c.68,0,.99.1.99.42s-.26.52-.83.52c-.52.05-.78.05-1.3.16-1.3.26-1.66,1.04-1.77,2.55-.1,1.4-.1,2.39-.1,9.15v8.27Z"/>
  <path class="cls-5" d="m179.51,73.18c-.21,0-.31.1-.42.36l-2.29,5.67c-.42,1.09-.68,2.18-.68,2.7,0,1.3,1.61,1.35,2.6,1.35.62,0,.78.21.78.42,0,.36-.36.47-.83.47-1.61,0-3.48-.16-5.1-.16-.52,0-3.12.16-5.51.16-.57,0-.83-.1-.83-.47,0-.26.26-.47.62-.47,3.28-.31,4-.94,5.2-3.95l11.02-26.05c.94-2.44,1.46-3.43,2.03-3.43.42,0,.68.47,1.2,1.61.88,2.55,8.58,20.28,11.49,26.94,1.66,3.9,2.96,4.58,4.06,4.78.47.1,1.25.1,1.72.1.57,0,.78.21.78.47,0,.31-.21.47-.88.47-2.18,0-7.64.1-10.92-.1-.47-.05-.78-.16-.78-.42,0-.21.21-.31.47-.42.47-.16.83-.31.52-.94l-3.54-8.79c-.05-.21-.21-.31-.42-.31h-10.3Zm9.31-2.6c.26,0,.26-.1.21-.26l-4.06-10.61c-.16-.42-.31-.52-.52,0l-4.11,10.61c-.05.16,0,.26.21.26h8.27Z"/>
  <path class="cls-5" d="m212.35,51.6c0-.99.16-1.61.68-1.61.47,0,.88.52,1.66,1.3.83.73,6.92,7.02,14.35,13.99,3.38,3.22,9.2,9.15,10.04,9.88l-.42-19.24c-.05-2.65-.42-3.54-1.66-4-.68-.21-1.72-.21-2.34-.26-.57,0-.78-.26-.78-.52,0-.36.52-.42,1.14-.42,2.29,0,4.63.16,5.77.16.57,0,2.44-.16,4.63-.16.57,0,.99.1.99.47,0,.26-.21.47-.78.47-.47.05-.83.05-1.3.16-1.35.36-1.77,1.25-1.82,3.74-.21,6.66-.31,18.25-.47,27.51,0,1.2-.26,1.61-.68,1.61-.57,0-1.25-.57-2.24-1.46-2.91-2.65-8.48-8.01-12.79-12.17-4.58-4.26-9.67-9.67-10.92-10.97l.47,18.04c.1,3.38.62,4.47,1.56,4.78.78.26,1.66.26,2.44.31.47,0,.78.16.78.42,0,.36-.42.52-1.04.52-2.71,0-4.52-.16-5.72-.16-.57,0-2.96.16-5.2.16-.57,0-.99-.05-.99-.47,0-.26.26-.47.73-.47.57-.05,1.35-.05,1.98-.21,1.3-.36,1.51-1.51,1.56-5.36.1-9.36.36-20.23.36-26.05Z"/>
  <path class="cls-6" d="m48.7,114.31c-1.94-1.74-2.42-4.02-2.42-5.92,0-1.34.46-3.68,2.24-5.46,1.2-1.2,3.02-2.14,6.1-2.14.8,0,1.92.06,2.9.24.76.14,1.38.2,2.12.3.14.02.18.1.18.22,0,.16-.06.4-.1,1.12-.04.66-.04,1.76-.06,2.06-.02.3-.06.42-.18.42-.14,0-.16-.14-.16-.42,0-.78-.32-1.6-.84-2.04-.7-.6-2.24-1.14-4-1.14-2.66,0-3.9.78-4.6,1.46-1.46,1.4-1.8,3.18-1.8,5.22,0,3.82,2.94,7.32,7.22,7.32,1.5,0,2.68-.18,3.48-1,.42-.44.68-1.32.74-1.68.04-.22.08-.3.2-.3.1,0,.14.14.14.3,0,.14-.24,1.88-.44,2.56-.12.38-.16.42-.52.58-.8.32-2.32.46-3.6.46-3,0-5.02-.74-6.6-2.16Z"/>
  <path class="cls-6" d="m65.66,111.31c-.1,0-.16.06-.2.16l-.88,2.5c-.2.56-.34,1.1-.34,1.42,0,.36.22.52.66.52h.14c.18,0,.24.06.24.14,0,.1-.16.14-.3.14-.44,0-1.36-.06-1.58-.06-.2,0-1.08.06-1.92.06-.22,0-.32-.04-.32-.14,0-.08.08-.14.24-.14.1,0,.28,0,.4-.02.86-.08,1.2-.74,1.54-1.58l4-10.54c.22-.58.28-.68.42-.68.1,0,.18.08.4.64.28.66,3,7.64,4.06,10.14.66,1.58,1.24,1.84,1.52,1.94.26.1.54.1.68.1s.24.04.24.14-.08.14-.3.14c-.2,0-1.7,0-3.04-.04-.38-.02-.5-.04-.5-.14,0-.06.06-.12.14-.14.08-.04.2-.14.08-.44l-1.58-4.02c-.04-.06-.08-.1-.16-.1h-3.64Zm3.4-.7c.08,0,.08-.06.06-.12l-1.58-4.42c-.1-.28-.12-.28-.22,0l-1.5,4.42c-.04.08,0,.12.04.12h3.2Z"/>
  <path class="cls-6" d="m77.12,108.25c0-2.64,0-3.12-.04-3.66s-.18-.84-.8-.96c-.12-.02-.32-.04-.48-.04-.14,0-.22-.04-.22-.12s.06-.14.24-.14c.86,0,2.08.06,2.12.06.18,0,1.54-.06,2.1-.06,1.12,0,2.34.1,3.28.76.38.28,1.2,1.08,1.2,2.44,0,1.1-.54,2.5-2.12,3.78,1.46,1.8,2.66,3.28,3.68,4.34.96.98,1.56,1.14,2.12,1.22.14.02.56.04.62.04.16,0,.22.06.22.14,0,.1-.08.14-.36.14h-1.4c-.94,0-1.38-.06-1.82-.24-.84-.36-1.44-1.26-2.48-2.6-.78-.96-1.58-2.04-1.92-2.46-.08-.08-.12-.12-.24-.12l-2.06-.02c-.08,0-.1.02-.1.1v.28c0,1.6,0,3.06.1,3.78.06.48.12.88.78.96.2.02.42.04.58.04.18,0,.26.06.26.12,0,.1-.08.16-.28.16-1.04,0-2.16-.06-2.24-.06-.32,0-1.2.06-1.74.06-.2,0-.28-.04-.28-.16,0-.06.12-.12.24-.12.14,0,.28,0,.44-.04.34-.06.46-.28.52-.76.1-.72.08-2.36.08-3.86v-3Zm1.54,1.42c0,.1.02.2.1.24.26.14,1.06.26,1.78.26.42,0,.92-.02,1.34-.3.6-.38,1-1.26,1-2.54,0-2.18-1.16-3.38-2.94-3.38-.5,0-.92.04-1.16.1-.06.02-.12.08-.12.18v5.44Z"/>
  <path class="cls-6" d="m88.72,109.73c0-2.66,2.06-6.64,7-6.64,3.96,0,6.98,2.36,6.98,6.38s-2.82,6.94-7.08,6.94c-4.9,0-6.9-3.64-6.9-6.68Zm12.1.24c0-4.02-2.48-6.26-5.22-6.26s-5.02,1.72-5.02,5.5,2.18,6.52,5.54,6.52c1.34,0,4.7-.68,4.7-5.76Z"/>
  <path class="cls-6" d="m108.38,111.29c0,2.3.08,3.46.42,3.78.32.28.72.4,2.1.4.88,0,1.68,0,2.12-.56.2-.3.34-.7.38-1,.02-.16.06-.24.16-.24.08,0,.12.06.12.26s-.12,1.34-.24,1.8c-.12.4-.1.5-1.06.5-1.36,0-2.86-.1-4.86-.1-.66,0-1.06.06-1.76.06-.2,0-.32-.04-.32-.16,0-.06.06-.12.22-.12s.32,0,.48-.04c.34-.06.46-.46.52-.94.12-.76.08-2.14.08-3.68v-3c0-2.64,0-3.08-.04-3.62-.04-.56-.12-.92-.8-1-.12-.02-.34-.02-.5-.02-.14,0-.22-.06-.22-.14,0-.1.1-.14.3-.14.84,0,2.04.06,2.08.06.28,0,1.5-.06,2.06-.06.2,0,.26.06.26.14s-.1.14-.22.14c-.14,0-.34.02-.54.04-.56.08-.68.4-.72.98-.04.54-.02.98-.02,3.62v3.04Z"/>
  <path class="cls-6" d="m128.44,110.39c0,1.92,0,3.5.1,4.34.06.58.18,1.02.78,1.1.28.04.72.08.9.08.12,0,.16.06.16.12,0,.1-.1.16-.32.16-1.1,0-2.36-.06-2.46-.06s-1.36.06-1.96.06c-.22,0-.32-.04-.32-.16,0-.06.04-.12.16-.12.18,0,.42-.04.6-.08.4-.08.5-.52.58-1.1.1-.84.1-2.42.1-4.34v-8.46c-.98.02-1.98.02-2.96.04-1.24.02-1.72.16-2.04.64-.22.34-.28.48-.34.62-.06.16-.12.2-.2.2-.06,0-.1-.06-.1-.18,0-.2.4-1.92.44-2.08.04-.12.12-.38.2-.38.14,0,.34.2.88.24.58.06,1.34.1,1.58.1h7.5c.64,0,1.1-.04,1.42-.1.3-.04.48-.1.56-.1.1,0,.1.12.1.24,0,.6-.06,1.98-.06,2.2,0,.18-.06.26-.14.26-.1,0-.14-.06-.16-.34,0-.08-.02-.14-.02-.22-.06-.6-.54-1.06-2.46-1.1-.84-.02-1.68-.02-2.52-.04v8.46Z"/>
  <path class="cls-6" d="m136.94,105.03c-.28-.88-.42-1.18-.98-1.34-.22-.06-.58-.08-.72-.08-.1,0-.24-.04-.24-.16,0-.08.1-.12.3-.12,1.04,0,1.96.06,2.16.06.14,0,1.02-.06,1.96-.06.24,0,.28.08.28.14,0,.12-.12.16-.28.16-.14,0-.42,0-.64.08-.18.06-.2.22-.2.42,0,.22.16.78.34,1.54.26,1.08,1.98,7.02,2.28,7.98l3.7-9.4c.28-.76.38-.86.48-.86.14,0,.24.24.48.88l3.54,9.4c.48-1.64,2.16-6.72,2.7-8.7.14-.52.16-.62.16-.84,0-.3-.1-.52-.96-.52-.18,0-.26-.08-.26-.16s.08-.12.3-.12c.74,0,1.54.06,1.68.06.12,0,1.1-.06,1.64-.06.16,0,.24.06.24.12,0,.1-.1.16-.26.16-.06,0-.32.02-.52.06-.6.14-.8.98-1.12,1.88-.78,2.16-2.56,7.52-3.16,9.18-.52,1.4-.66,1.68-.82,1.68-.2,0-.32-.28-.58-1.02l-3.44-9.12c-.64,1.56-3.06,7.6-3.66,9.12-.3.78-.44,1.02-.62,1.02-.2,0-.3-.26-.7-1.52l-3.08-9.86Z"/>
  <g>
    <path class="cls-6" d="m155.86,109.73c0-2.66,2.06-6.64,7-6.64,3.96,0,6.98,2.36,6.98,6.38s-2.82,6.94-7.08,6.94c-4.9,0-6.9-3.64-6.9-6.68Zm12.1.24c0-4.02-2.48-6.26-5.22-6.26s-5.02,1.72-5.02,5.5,2.18,6.52,5.54,6.52c1.34,0,4.7-.68,4.7-5.76Z"/>
    <path class="cls-6" d="m187.26,113.99c.06.48.18,1.6.96,1.78.34.08.74.12,1.02.14.08,0,.26.02.26.12s-.08.16-.3.16c-.36,0-2.52-.08-3.16-.12-.44-.04-.6-.08-.6-.18,0-.06.08-.14.18-.18s.16-.28.12-.56l-.88-8.56-4.24,8.6c-.38.78-.44.96-.62.96-.12,0-.22-.18-.6-.86-.32-.58-1.92-3.78-2.04-3.96-.12-.24-2.08-4.12-2.24-4.54l-.74,7.7c-.02.28-.02.46-.02.76,0,.22.1.52.5.6.22.04.36.04.56.06.16.02.2.08.2.12,0,.14-.12.16-.34.16-.64,0-1.5-.06-1.66-.06-.2,0-1.04.06-1.54.06-.18,0-.3-.02-.3-.16,0-.04.08-.12.26-.12.14,0,.16,0,.38-.02.48-.04.66-.52.76-1.32l1.34-10.98c.04-.34.12-.5.22-.5s.16.06.3.32l5.36,10.38,5.1-10.36c.1-.22.18-.34.3-.34s.18.18.2.5l1.26,10.4Z"/>
  </g>
  <path class="cls-6" d="m192.54,108.25c0-2.62,0-3.12-.04-3.66s-.18-.82-.78-.94c-.16-.02-.44-.04-.48-.04-.18,0-.26-.06-.26-.14,0-.1.12-.14.3-.14.84,0,2.04.06,2.08.06.48,0,1.14-.06,1.92-.06,3,0,3.6,1.66,3.6,2.52,0,1.48-.84,2.42-1.68,3.08,1.34.4,3.06,1.62,3.06,3.58s-1.5,3.72-4.54,3.72c-.32,0-.72-.04-1.24-.04-.56-.04-1.04-.06-1.12-.06-.62,0-1.14.06-1.8.06-.18,0-.28-.04-.28-.12,0-.06.02-.16.28-.16.14,0,.2,0,.36-.04.34-.06.46-.48.52-.96.1-.74.1-2.1.1-3.66v-3Zm1.56.36c0,.14.04.16.1.2.12.02.34.06,1,.06,1.02,0,1.32-.06,1.7-.48.32-.38.52-.94.52-1.6,0-1.38-.62-2.92-2.32-2.92-.16,0-.58.04-.76.1-.18.04-.24.08-.24.18v4.46Zm0,1.72c0,1.26,0,3.46.02,3.62.06.88.04,1.14.64,1.4.48.24,1.28.26,1.48.26.86,0,2.36-.42,2.36-2.26,0-1.02-.36-2.56-1.72-3.48-.6-.36-.96-.4-1.36-.44-.34-.04-1.04-.04-1.32,0-.06,0-.1.02-.1.12v.78Z"/>
  <path class="cls-6" d="m205.7,111.29c0,2.3.08,3.46.42,3.78.32.28.72.4,2.1.4.88,0,1.68,0,2.12-.56.2-.3.34-.7.38-1,.02-.16.06-.24.16-.24.08,0,.12.06.12.26s-.12,1.34-.24,1.8c-.12.4-.1.5-1.06.5-1.36,0-2.86-.1-4.86-.1-.66,0-1.06.06-1.76.06-.2,0-.32-.04-.32-.16,0-.06.06-.12.22-.12s.32,0,.48-.04c.34-.06.46-.46.52-.94.12-.76.08-2.14.08-3.68v-3c0-2.64,0-3.08-.04-3.62-.04-.56-.12-.92-.8-1-.12-.02-.34-.02-.5-.02-.14,0-.22-.06-.22-.14,0-.1.1-.14.3-.14.84,0,2.04.06,2.08.06.28,0,1.5-.06,2.06-.06.2,0,.26.06.26.14s-.1.14-.22.14c-.14,0-.34.02-.54.04-.56.08-.68.4-.72.98-.04.54-.02.98-.02,3.62v3.04Z"/>
  <path class="cls-6" d="m215.9,111.83c0-.96-.14-1.32-.44-1.84-.12-.22-2.44-4-3.06-4.86-.54-.76-.74-1-1.02-1.22-.28-.2-.54-.28-.94-.3-.12,0-.22-.06-.22-.16,0-.06.08-.12.24-.12.32,0,1.84.06,1.88.06.12,0,.78-.06,1.52-.06.2,0,.26.06.26.12,0,.08-.06.12-.22.16-.28.06-.32.16-.32.32,0,.2.12.4.26.66.26.5,2.9,4.74,3.2,5.24.32-.7,2.56-4.36,2.84-4.86.38-.66.46-.84.46-1.06,0-.26-.24-.26-.46-.3-.16-.02-.22-.08-.22-.16,0-.06.04-.12.24-.12.48,0,.9.06,1.22.06.26,0,1.42-.06,1.76-.06.18,0,.24.06.24.12,0,.1-.1.16-.24.16-.42.02-.72.06-1,.26-.3.2-.42.38-.74.82-1.16,1.6-3.1,4.86-3.4,5.56-.24.62-.2,1.06-.2,1.58v1.46c0,.14,0,.88.04,1.6.04.48.08.82.7.94.26.06.6.08.74.08.16,0,.22.06.22.12,0,.1-.06.16-.24.16-1,0-2.24-.06-2.3-.06-.04,0-1.24.06-1.8.06-.2,0-.28-.06-.28-.16,0-.06.06-.12.2-.12.16,0,.34-.02.5-.06.34-.06.48-.48.52-.96.06-.72.06-1.44.06-1.6v-1.46Z"/>
  <path class="cls-7" d="m50.55,142.39c-.18,0-.25.02-.33.23-.25.62-.47,1.3-.47,1.67,0,.5.15.83,1.47.9.47.02.65.1.65.3,0,.25-.3.27-.7.27-1.55,0-1.67-.08-3.75-.08-.52,0-1.9.08-3.22.08-.38,0-.7-.03-.7-.27,0-.18.15-.28.57-.3.82-.02,1.25-.4,2.3-2.17l7.02-13.72c1-1.97,1.52-2.87,1.92-2.87.43,0,.62.48,1.82,2.77.25.48,4.8,9.5,6.47,12.92,1.1,2.3,1.42,2.9,2.85,3.05.55.05.7.15.7.33,0,.2-.2.27-.77.27-3.75,0-7.57-.03-8.87-.1-.48-.02-.52-.15-.52-.3s.2-.23.42-.28c.27-.07.3-.3.23-.5l-1.07-2.07c-.02-.1-.08-.12-.23-.12h-5.8Zm4.82-2.85c.12,0,.1-.1.07-.12l-1.9-4c-.05-.08-.1-.05-.15.05l-1.9,3.92c-.02.07,0,.15.1.15h3.77Z"/>
  <path class="cls-7" d="m69.8,145.76c-.5,0-.55-.15-.55-.27,0-.18.2-.3.48-.3,1.5-.07,1.52-.45,1.57-2.3.12-4.67.07-10.85.25-13,.05-.65.22-.87.55-.87.22,0,.65.2,1.07.5,1.07.75,4.7,3.37,6.67,4.67,3.12,2.07,4.15,2.85,4.6,3.15-.02-1.92-.02-3.55-.12-5.47-.07-1.32-.22-1.87-1.6-1.95-.4-.03-.52-.15-.52-.33s.1-.27.55-.27c.85,0,1.95.08,3.32.08.73,0,1.97-.08,2.95-.08.45,0,.52.08.52.25s-.15.27-.5.32c-1.05.1-1.15.38-1.25,1.77-.17,2.57-.15,10.85-.32,13.22-.08,1.02-.27,1.17-.55,1.17-.52,0-1.35-.57-2.27-1.2-5.17-3.52-6.55-4.67-9.9-7.1l.12,4.95c.05,2.07.12,2.37,1.62,2.47.4,0,.52.15.52.27,0,.2-.1.3-.55.3-.65,0-2-.08-3.32-.08-.77,0-2.5.08-3.35.08Z"/>
  <path class="cls-7" d="m94.2,135.64c0-3.12-.02-3.72-.1-4.42-.08-1.1-.4-1.25-1.57-1.35-.33-.02-.5-.12-.5-.27,0-.12.08-.27.5-.27.2,0,2.82.08,4.35.08.92,0,2.27-.05,4.57-.05,4.87,0,6.82.85,8.62,2.52,1.2,1.1,2.22,3.05,2.22,5.42,0,2.7-1.05,4.92-2.72,6.32-1.62,1.38-3.95,2.25-7.72,2.25-1.55,0-3.75-.17-5.47-.17-1.1,0-2.2.08-3.6.08-.4,0-.65-.08-.65-.3s.3-.27.62-.27c1.15-.05,1.25-.62,1.32-1.5.08-1.2.12-2.75.12-4.35v-3.7Zm6.2,1.85c0,2.3.02,3.57.05,3.97.05.88.02,1.47.33,1.82.32.4.9.57,1.5.57.77,0,1.8-.22,2.57-1.4.8-1.25.95-2.67.95-4.4,0-1.47-.22-3.32-1.12-4.82-.92-1.52-2.37-1.87-3.47-1.87-.23,0-.5.02-.62.07s-.15.2-.15.35c0,.75-.02,1.87-.02,3.27v2.42Z"/>
  <path class="cls-6" d="m48.56,166.81c0-3.12,0-3.68-.04-4.32-.04-.68-.2-1-.86-1.14-.16-.04-.5-.06-.68-.06-.08,0-.16-.04-.16-.12,0-.12.1-.16.32-.16.9,0,2.16.06,2.26.06.22,0,1.74-.06,2.36-.06,1.26,0,2.6.12,3.66.88.5.36,1.38,1.34,1.38,2.72,0,1.48-.62,2.96-2.42,4.62,1.64,2.1,3,3.88,4.16,5.12,1.08,1.14,1.94,1.36,2.44,1.44.38.06.66.06.78.06.1,0,.18.06.18.12,0,.12-.12.16-.48.16h-1.42c-1.12,0-1.62-.1-2.14-.38-.86-.46-1.56-1.44-2.7-2.94-.84-1.1-1.78-2.44-2.18-2.96-.08-.08-.14-.12-.26-.12l-2.46-.04c-.1,0-.14.06-.14.16v.48c0,1.92,0,3.5.1,4.34.06.58.18,1.02.78,1.1.28.04.72.08.9.08.12,0,.16.06.16.12,0,.1-.1.16-.32.16-1.1,0-2.36-.06-2.46-.06-.02,0-1.28.06-1.88.06-.22,0-.32-.04-.32-.16,0-.06.04-.12.16-.12.18,0,.42-.04.6-.08.4-.08.5-.52.58-1.1.1-.84.1-2.42.1-4.34v-3.52Zm1.6,1.74c0,.1.04.18.14.24.3.18,1.22.32,2.1.32.48,0,1.04-.06,1.5-.38.7-.48,1.22-1.56,1.22-3.08,0-2.5-1.32-4-3.46-4-.6,0-1.14.06-1.34.12-.1.04-.16.12-.16.24v6.54Z"/>
  <path class="cls-6" d="m61.56,169.67c0-2.66,2.06-6.64,7-6.64,3.96,0,6.98,2.36,6.98,6.38s-2.82,6.94-7.08,6.94c-4.9,0-6.9-3.64-6.9-6.68Zm12.1.24c0-4.02-2.48-6.26-5.22-6.26s-5.02,1.72-5.02,5.5,2.18,6.52,5.54,6.52c1.34,0,4.7-.68,4.7-5.76Z"/>
  <path class="cls-6" d="m79.56,168.19c0-2.62,0-3.12-.04-3.66s-.18-.82-.78-.94c-.16-.02-.44-.04-.48-.04-.18,0-.26-.06-.26-.14,0-.1.12-.14.3-.14.84,0,2.04.06,2.08.06.48,0,1.14-.06,1.92-.06,3,0,3.6,1.66,3.6,2.52,0,1.48-.84,2.42-1.68,3.08,1.34.4,3.06,1.62,3.06,3.58s-1.5,3.72-4.54,3.72c-.32,0-.72-.04-1.24-.04-.56-.04-1.04-.06-1.12-.06-.62,0-1.14.06-1.8.06-.18,0-.28-.04-.28-.12,0-.06.02-.16.28-.16.14,0,.2,0,.36-.04.34-.06.46-.48.52-.96.1-.74.1-2.1.1-3.66v-3Zm1.56.36c0,.14.04.16.1.2.12.02.34.06,1,.06,1.02,0,1.32-.06,1.7-.48.32-.38.52-.94.52-1.6,0-1.38-.62-2.92-2.32-2.92-.16,0-.58.04-.76.1-.18.04-.24.08-.24.18v4.46Zm0,1.72c0,1.26,0,3.46.02,3.62.06.88.04,1.14.64,1.4.48.24,1.28.26,1.48.26.86,0,2.36-.42,2.36-2.26,0-1.02-.36-2.56-1.72-3.48-.6-.36-.96-.4-1.36-.44-.34-.04-1.04-.04-1.32,0-.06,0-.1.02-.1.12v.78Z"/>
  <path class="cls-6" d="m91.08,168.19c0-2.62,0-3.1-.04-3.64-.04-.56-.18-.84-.76-.96-.12-.02-.32-.04-.48-.04-.14,0-.26-.06-.26-.12,0-.12.1-.16.3-.16.4,0,.94.04,2.06.06.1,0,3.66,0,4.06-.02.4-.02.62-.04.78-.1.12-.04.14-.06.22-.06.04,0,.08.04.08.14,0,.12-.12.4-.16.9-.02.34-.04.66-.06,1.04,0,.18-.04.3-.14.3s-.14-.08-.14-.22c-.02-.3-.08-.5-.14-.64-.12-.4-.3-.54-1.3-.6-.26-.02-2.24-.04-2.28-.04-.06,0-.1.04-.1.16v4.54c0,.12.02.2.12.2.24,0,2.28-.02,2.7-.06.46-.02.76-.08.92-.3.08-.12.14-.16.22-.16.04,0,.08.02.08.12s-.08.48-.14,1.06c-.06.56-.06.96-.08,1.22-.02.16-.06.22-.14.22-.1,0-.12-.12-.12-.26,0-.12-.02-.32-.06-.48-.08-.26-.2-.54-.96-.6-.46-.04-2.08-.08-2.4-.08-.12,0-.14.06-.14.14v1.46c0,.62-.02,2.38,0,2.72.04.74.14,1.12.56,1.3.3.14.78.18,1.46.18.38,0,1.02.02,1.52-.12.6-.18.74-.58.9-1.32.04-.2.1-.28.18-.28.12,0,.12.18.12.3,0,.14-.16,1.4-.22,1.74-.08.4-.22.44-.88.44-1.32,0-1.88-.04-2.58-.04-.7-.02-1.62-.06-2.36-.06-.46,0-.84.06-1.32.06-.18,0-.28-.04-.28-.14,0-.08.08-.14.18-.14.12,0,.26-.02.4-.06.36-.08.6-.34.64-1.58.02-.68.04-1.5.04-3.02v-3Z"/>
  <path class="cls-6" d="m101.54,168.19c0-2.64,0-3.12-.04-3.66s-.18-.84-.8-.96c-.12-.02-.32-.04-.48-.04-.14,0-.22-.04-.22-.12s.06-.14.24-.14c.86,0,2.08.06,2.12.06.18,0,1.54-.06,2.1-.06,1.12,0,2.34.1,3.28.76.38.28,1.2,1.08,1.2,2.44,0,1.1-.54,2.5-2.12,3.78,1.46,1.8,2.66,3.28,3.68,4.34.96.98,1.56,1.14,2.12,1.22.14.02.56.04.62.04.16,0,.22.06.22.14,0,.1-.08.14-.36.14h-1.4c-.94,0-1.38-.06-1.82-.24-.84-.36-1.44-1.26-2.48-2.6-.78-.96-1.58-2.04-1.92-2.46-.08-.08-.12-.12-.24-.12l-2.06-.02c-.08,0-.1.02-.1.1v.28c0,1.6,0,3.06.1,3.78.06.48.12.88.78.96.2.02.42.04.58.04.18,0,.26.06.26.12,0,.1-.08.16-.28.16-1.04,0-2.16-.06-2.24-.06-.32,0-1.2.06-1.74.06-.2,0-.28-.04-.28-.16,0-.06.12-.12.24-.12.14,0,.28,0,.44-.04.34-.06.46-.28.52-.76.1-.72.08-2.36.08-3.86v-3Zm1.54,1.42c0,.1.02.2.1.24.26.14,1.06.26,1.78.26.42,0,.92-.02,1.34-.3.6-.38,1-1.26,1-2.54,0-2.18-1.16-3.38-2.94-3.38-.5,0-.92.04-1.16.1-.06.02-.12.08-.12.18v5.44Z"/>
  <path class="cls-6" d="m118.06,171.19c0,1.54.02,2.96.1,3.7.06.48.1.76.6.88.24.06.62.08.78.08s.24.06.24.12c0,.1-.06.16-.26.16-1.02,0-2.2-.06-2.28-.06s-1.26.06-1.78.06c-.22,0-.3-.04-.3-.14,0-.06.06-.14.22-.14s.28,0,.44-.02c.38-.06.44-.3.52-.98.08-.72.08-2.16.08-3.66v-7.14c-.66,0-1.72,0-2.52.02-1.28.02-1.56.22-1.84.64-.18.28-.26.52-.3.62-.06.14-.1.16-.18.16s-.1-.08-.1-.18c-.02-.12.28-1.44.4-1.98.06-.24.12-.32.18-.32.14,0,.52.18.88.22.7.08,1.26.1,1.28.1h6.56c.56,0,1.16-.04,1.44-.1.26-.06.32-.08.38-.08.08,0,.12.1.12.18,0,.56-.04,1.88-.04,2.04,0,.18-.08.24-.14.24-.1,0-.14-.08-.14-.24,0-.06,0-.08-.02-.28-.08-.8-.34-1-2.36-1.02-.76,0-1.38-.02-1.96-.02v7.14Z"/>
  <path class="cls-6" d="m132.08,175.87c-.28-.14-.3-.22-.3-.76,0-1,.08-1.8.1-2.12.02-.22.06-.32.16-.32.12,0,.14.06.14.22,0,.18,0,.46.06.74.3,1.48,1.62,2.04,2.96,2.04,1.92,0,2.86-1.38,2.86-2.66,0-1.38-.58-2.18-2.3-3.6l-.9-.74c-2.12-1.74-2.6-2.98-2.6-4.34,0-2.14,1.6-3.6,4.14-3.6.78,0,1.36.08,1.86.2.38.08.54.1.7.1s.2.04.2.14-.08.76-.08,2.12c0,.32-.04.46-.14.46-.12,0-.14-.1-.16-.26-.02-.24-.14-.78-.26-1-.12-.22-.66-1.06-2.5-1.06-1.38,0-2.46.86-2.46,2.32,0,1.14.52,1.86,2.44,3.36l.56.44c2.36,1.86,2.92,3.1,2.92,4.7,0,.82-.32,2.34-1.7,3.32-.86.6-1.94.84-3.02.84-.94,0-1.86-.14-2.68-.54Z"/>
  <g>
    <path class="cls-6" d="m145.36,171.23c0,2.3.08,3.46.42,3.78.32.28.72.4,2.1.4.88,0,1.68,0,2.12-.56.2-.3.34-.7.38-1,.02-.16.06-.24.16-.24.08,0,.12.06.12.26s-.12,1.34-.24,1.8c-.12.4-.1.5-1.06.5-1.36,0-2.86-.1-4.86-.1-.66,0-1.06.06-1.76.06-.2,0-.32-.04-.32-.16,0-.06.06-.12.22-.12s.32,0,.48-.04c.34-.06.46-.46.52-.94.12-.76.08-2.14.08-3.68v-3c0-2.64,0-3.08-.04-3.62-.04-.56-.12-.92-.8-1-.12-.02-.34-.02-.5-.02-.14,0-.22-.06-.22-.14,0-.1.1-.14.3-.14.84,0,2.04.06,2.08.06.28,0,1.5-.06,2.06-.06.2,0,.26.06.26.14s-.1.14-.22.14c-.14,0-.34.02-.54.04-.56.08-.68.4-.72.98-.04.54-.02.98-.02,3.62v3.04Z"/>
    <path class="cls-6" d="m154.2,168.19c0-2.64,0-3.12-.04-3.66s-.16-.84-.58-.92c-.2-.04-.34-.04-.46-.06-.14-.02-.22-.06-.22-.14,0-.1.08-.14.3-.14.62,0,1.76.06,1.82.06.08,0,1.24-.06,1.8-.06.2,0,.3.04.3.14,0,.08-.06.12-.22.14-.12.02-.22.02-.36.04-.58.08-.64.38-.68.96-.04.54-.02,1-.02,3.64v3c0,1.54-.02,2.94.08,3.66.08.58.16.8.68.92.26.06.68.08.76.08.18.02.22.06.22.14s-.08.14-.28.14c-1.02,0-2.18-.06-2.28-.06-.06,0-1.24.06-1.8.06-.18,0-.32-.04-.32-.14,0-.08.08-.14.26-.14.1,0,.32-.02.48-.06.34-.08.4-.48.46-.96.1-.72.1-2.14.1-3.64v-3Z"/>
    <path class="cls-6" d="m175.24,173.93c.06.48.18,1.6.96,1.78.34.08.74.12,1.02.14.08,0,.26.02.26.12s-.08.16-.3.16c-.36,0-2.52-.08-3.16-.12-.44-.04-.6-.08-.6-.18,0-.06.08-.14.18-.18s.16-.28.12-.56l-.88-8.56-4.24,8.6c-.38.78-.44.96-.62.96-.12,0-.22-.18-.6-.86-.32-.58-1.92-3.78-2.04-3.96-.12-.24-2.08-4.12-2.24-4.54l-.74,7.7c-.02.28-.02.46-.02.76,0,.22.1.52.5.6.22.04.36.04.56.06.16.02.2.08.2.12,0,.14-.12.16-.34.16-.64,0-1.5-.06-1.66-.06-.2,0-1.04.06-1.54.06-.18,0-.3-.02-.3-.16,0-.04.08-.12.26-.12.14,0,.16,0,.38-.02.48-.04.66-.52.76-1.32l1.34-10.98c.04-.34.12-.5.22-.5s.16.06.3.32l5.36,10.38,5.1-10.36c.1-.22.18-.34.3-.34s.18.18.2.5l1.26,10.4Z"/>
  </g>
  <path class="cls-6" d="m180.52,168.19c0-2.62,0-3.12-.04-3.66s-.18-.82-.78-.94c-.16-.02-.44-.04-.48-.04-.18,0-.26-.06-.26-.14,0-.1.12-.14.3-.14.84,0,2.04.06,2.08.06.48,0,1.14-.06,1.92-.06,3,0,3.6,1.66,3.6,2.52,0,1.48-.84,2.42-1.68,3.08,1.34.4,3.06,1.62,3.06,3.58s-1.5,3.72-4.54,3.72c-.32,0-.72-.04-1.24-.04-.56-.04-1.04-.06-1.12-.06-.62,0-1.14.06-1.8.06-.18,0-.28-.04-.28-.12,0-.06.02-.16.28-.16.14,0,.2,0,.36-.04.34-.06.46-.48.52-.96.1-.74.1-2.1.1-3.66v-3Zm1.56.36c0,.14.04.16.1.2.12.02.34.06,1,.06,1.02,0,1.32-.06,1.7-.48.32-.38.52-.94.52-1.6,0-1.38-.62-2.92-2.32-2.92-.16,0-.58.04-.76.1-.18.04-.24.08-.24.18v4.46Zm0,1.72c0,1.26,0,3.46.02,3.62.06.88.04,1.14.64,1.4.48.24,1.28.26,1.48.26.86,0,2.36-.42,2.36-2.26,0-1.02-.36-2.56-1.72-3.48-.6-.36-.96-.4-1.36-.44-.34-.04-1.04-.04-1.32,0-.06,0-.1.02-.1.12v.78Z"/>
  <path class="cls-6" d="m193.72,171.25c-.1,0-.16.06-.2.16l-.88,2.5c-.2.56-.34,1.1-.34,1.42,0,.36.22.52.66.52h.14c.18,0,.24.06.24.14,0,.1-.16.14-.3.14-.44,0-1.36-.06-1.58-.06-.2,0-1.08.06-1.92.06-.22,0-.32-.04-.32-.14,0-.08.08-.14.24-.14.1,0,.28,0,.4-.02.86-.08,1.2-.74,1.54-1.58l4-10.54c.22-.58.28-.68.42-.68.1,0,.18.08.4.64.28.66,3,7.64,4.06,10.14.66,1.58,1.24,1.84,1.52,1.94.26.1.54.1.68.1s.24.04.24.14-.08.14-.3.14c-.2,0-1.7,0-3.04-.04-.38-.02-.5-.04-.5-.14,0-.06.06-.12.14-.14.08-.04.2-.14.08-.44l-1.58-4.02c-.04-.06-.08-.1-.16-.1h-3.64Zm3.4-.7c.08,0,.08-.06.06-.12l-1.58-4.42c-.1-.28-.12-.28-.22,0l-1.5,4.42c-.04.08,0,.12.04.12h3.2Z"/>
  <path class="cls-6" d="m205.48,174.53c-1.7-1.48-2.14-3.44-2.14-5.1,0-1.12.44-3.1,2.02-4.62,1.08-1.04,2.7-1.78,5.38-1.78.92,0,1.66.08,2.64.22.64.1,1.28.2,1.76.22.16,0,.18.1.18.2,0,.16-.06.34-.1.98-.02.56-.02,1.6-.04,1.84-.02.28-.06.38-.16.38-.14,0-.16-.12-.16-.38,0-.58-.28-1.36-.78-1.74-.6-.52-2-1.02-3.54-1.02-2.22,0-3.24.62-3.84,1.16-1.3,1.18-1.6,2.62-1.6,4.38,0,3.32,2.7,6.24,6.22,6.24,1.36,0,2.36-.14,3.06-.82.36-.38.56-.88.66-1.44.04-.2.1-.3.22-.3.1,0,.1.14.1.28,0,.16-.26,1.78-.4,2.22-.12.32-.18.38-.46.5-.7.3-2.04.4-3.16.4-2.64,0-4.44-.6-5.86-1.82Z"/>
  <path class="cls-6" d="m228.36,168.63c.06,0,.12,0,.12-.1v-.36c0-2.64,0-3.1-.04-3.64s-.12-.82-.78-.94c-.14-.02-.34-.04-.5-.04-.14,0-.24-.06-.24-.14,0-.12.1-.14.28-.14.84,0,2.02.06,2.1.06s1.2-.06,1.8-.06c.2,0,.32.02.32.14,0,.06-.06.14-.22.14-.12,0-.28.02-.4.04-.54.08-.62.4-.66.96-.02.54-.02,1-.02,3.64v3c0,1.64,0,2.94.08,3.66.06.48.16.88.68.94.26.04.52.06.7.06.16,0,.26.06.26.14,0,.1-.1.14-.3.14-1,0-2.16-.06-2.26-.06-.08,0-1.24.06-1.78.06-.2,0-.3-.04-.3-.16,0-.06.06-.12.22-.12s.3,0,.46-.04c.34-.06.44-.5.5-.96.1-.72.1-1.98.1-3.6v-1.78c0-.08-.06-.12-.12-.12h-7.26c-.06,0-.1.02-.1.12v1.78c0,1.62,0,2.92.1,3.64.06.44.16.84.68.9.26.04.56.06.72.06.14,0,.24.06.24.14s-.08.14-.26.14c-1.02,0-2.2-.06-2.3-.06-.06,0-1.28.06-1.8.06-.2,0-.32-.04-.32-.14,0-.06.04-.14.22-.14.16,0,.32-.02.48-.06.36-.08.44-.46.5-.9.12-.72.1-2.06.1-3.7v-2.96c0-2.64,0-3.16-.04-3.7-.04-.52-.18-.9-.76-.96-.18-.02-.38-.04-.54-.04-.14,0-.22-.06-.22-.12,0-.12.1-.14.3-.14.86,0,1.82.06,2.08.06.08,0,1.24-.06,1.8-.06.2,0,.3.04.3.14,0,.08-.08.12-.2.12s-.18,0-.4.04c-.5.08-.62.42-.66.98-.02.54-.02.98-.02,3.62v.36c0,.1.06.1.12.1h7.24Z"/>
  <text class="cls-9" transform="translate(54.06 365.01)"><tspan x="0" y="0">1</tspan></text>
  <text class="cls-9" transform="translate(64.21 365.01)"><tspan x="0" y="0">9</tspan></text>
  <text class="cls-9" transform="translate(79.36 365.01)"><tspan x="0" y="0">8</tspan></text>
  <text class="cls-9" transform="translate(94.46 365.01)"><tspan x="0" y="0">9</tspan></text>
  <g class="cls-4">
    <path class="cls-8" d="m147.95,337.45c13.65.33,27.3.33,40.95.65,31.2.65,39,8.12,39.98,17.88,0,1.3.32,2.28.32,3.58.32,4.55.97,5.52,2.6,5.52,1.3,0,2.28-1.3,2.28-4.23,0-3.57.97-26,.97-35.75,0-1.95,0-3.9-1.62-3.9-1.3,0-4.22.98-9.1,1.62-5.2.98-12.68,1.62-23.07,1.62h-121.88c-3.9,0-16.25-.65-25.68-1.62-8.78-.65-12.03-3.9-14.3-3.9-1.3,0-2.6,4.23-3.25,6.17-.65,2.6-7.15,30.55-7.15,33.8,0,1.95.65,2.93,1.62,2.93,1.3,0,2.27-.65,3.25-3.25.97-2.27,1.95-4.55,5.52-10.08,5.2-7.8,13-10.07,33.15-10.4,15.93-.32,32.18-.32,48.1-.65v137.48c0,31.2,0,56.88-1.62,70.52-1.3,9.43-2.92,16.57-9.42,17.88-2.93.65-6.83,1.3-9.75,1.3-1.95,0-2.6.97-2.6,1.95,0,1.95,1.62,2.6,5.2,2.6,9.75,0,30.23-.98,31.85-.98s22.1.98,39.97.98c3.57,0,5.2-.98,5.2-2.6,0-.98-.65-1.95-2.6-1.95-2.93,0-10.07-.65-14.62-1.3-9.75-1.3-11.7-8.45-12.68-17.88-1.62-13.65-1.62-39.32-1.62-70.52v-137.48Z"/>
    <path class="cls-1" d="m147.98,336.11c6.82.16,13.64.24,20.46.33,6.83.08,13.66.16,20.49.32,27.65.58,39.99,6.28,41.27,19.08,0,.71.08,1.22.15,1.73.09.63.18,1.26.18,1.98.3,4.19.84,4.19,1.27,4.19.47,0,.94-.99.94-2.89,0-1.37.14-5.37.31-10.44.28-8.13.66-19.26.66-25.31,0-.8,0-2.29-.26-2.59-.47.03-1.43.24-2.55.48-1.56.34-3.69.8-6.4,1.16-5.76,1.08-13.61,1.64-23.25,1.64h-121.88c-3.99,0-16.33-.65-25.81-1.63-5.83-.43-9.35-1.99-11.68-3.03-.96-.43-1.75-.78-2.28-.85-.7.73-1.71,3.78-2.05,4.82l-.14.43c-.83,3.32-7.08,30.45-7.08,33.38,0,1.1.25,1.54.33,1.61.43-.02,1.07-.02,1.96-2.4,1-2.35,2.02-4.71,5.65-10.33,5.4-8.1,13.4-10.67,34.25-11.01,7.96-.16,16.01-.24,24.06-.32,8.04-.08,16.08-.16,24.04-.33l1.36-.03v138.84c0,31.82,0,56.95-1.63,70.68-1.31,9.54-3.01,17.53-10.49,19.03-1.77.39-6.36,1.33-10.01,1.33-1.27,0-1.27.46-1.27.62,0,.47,0,1.27,3.87,1.27,6.9,0,19.08-.49,26.35-.78,2.95-.12,5.02-.2,5.5-.2.38,0,1.79.05,3.95.13,7.24.27,22.32.84,36.03.84,1.87,0,3.87-.33,3.87-1.27,0-.15,0-.62-1.27-.62-2.89,0-10.09-.64-14.81-1.31-11.08-1.48-12.9-10.23-13.81-19.06-1.63-13.71-1.63-38.84-1.63-70.66v-138.84l1.37.03Z"/>
    <path class="cls-1" d="m149.28,338.81c6.38.14,12.75.22,19.12.29,6.82.08,13.64.16,20.46.32,32.68.68,37.89,8.81,38.68,16.67,0,.59.08,1.21.17,1.84.07.51.15,1.02.15,1.6.28,3.93.74,6.86,3.93,6.86.85,0,3.61-.4,3.61-5.56,0-1.33.14-5.31.31-10.35.28-8.15.66-19.3.66-25.4,0-1.96,0-5.23-2.96-5.23-.73,0-1.67.2-3.09.51-1.51.33-3.58.78-6.19,1.13-5.74,1.07-13.42,1.61-22.9,1.61h-121.88c-3.99,0-16.47-.68-25.54-1.62-5.44-.4-8.58-1.8-10.87-2.81-1.38-.61-2.47-1.1-3.57-1.1-2.02,0-3.13,2.89-4.38,6.67l-.14.42c-.41,1.64-7.22,30.65-7.22,34.22,0,3.14,1.53,4.26,2.96,4.26,2.6,0,3.74-2.08,4.5-4.12.96-2.23,1.88-4.39,5.4-9.82,4.85-7.27,12.04-9.47,32.05-9.79,7.96-.16,16-.24,24.04-.32,7.59-.08,15.18-.15,22.7-.3v136.11c0,31.73,0,56.8-1.62,70.37-1.42,10.26-3.1,15.67-8.36,16.72-3.6.8-7.14,1.27-9.49,1.27-2.9,0-3.93,1.77-3.93,3.28,0,3.93,4.58,3.93,6.53,3.93,6.95,0,19.16-.49,26.46-.78,2.89-.12,4.93-.2,5.39-.2.37,0,1.74.05,3.85.13,7.26.27,22.37.84,36.13.84,5.68,0,6.53-2.46,6.53-3.93s-1.03-3.28-3.93-3.28-9.81-.62-14.44-1.29c-8.36-1.11-10.51-6.73-11.54-16.69-1.62-13.59-1.62-38.66-1.62-70.39v-136.11Z"/>
    <path class="cls-8" d="m230.32,428c0-1.2.6-2,1.6-2.4,2-.6,7.4-1.2,13.4-1.2,21.4,0,34.6,15,34.6,40,0,15.2-5.2,26-12.2,30.8-4.6,3.2-10.2,3.8-15,3.8-8.8,0-18-1.4-21-3.2-1-.6-1.4-1.4-1.4-2.4v-65.4Zm-16,83.2c0,19.2,0,35-1,43.4-.8,5.8-1.8,10.2-5.8,11-1.8.4-4.2.8-6,.8-1.2,0-1.6.6-1.6,1.2,0,1.2,1,1.6,3.2,1.6,6,0,18.6-.6,18.8-.6,1,0,13.6.6,24.6.6,2.2,0,3.2-.6,3.2-1.6,0-.6-.4-1.2-1.6-1.2-1.8,0-6.2-.4-9-.8-6-.8-7.2-5.2-7.8-11-1-8.4-1-24.2-1-43.4v-4.8c0-1,.4-1.6,1.4-1.6l24.6.4c1.2,0,1.8.4,2.6,1.2,4,5.2,13.4,18.6,21.8,29.6,11.4,15,18.4,24.8,27,29.4,5.2,2.8,10.2,3.8,21.4,3.8h14.2c3.6,0,4.8-.4,4.8-1.6,0-.6-.8-1.2-1.8-1.2-1.2,0-4,0-7.8-.6-5-.8-13.6-3-24.4-14.4-11.6-12.4-25.2-30.2-41.6-51.2,18-16.6,24.2-31.4,24.2-46.2,0-13.8-8.8-23.6-13.8-27.2-10.6-7.6-24-8.8-36.6-8.8-6.2,0-21.4.6-23.6.6-1,0-13.6-.6-22.6-.6-2.2,0-3.2.4-3.2,1.6,0,.8.8,1.2,1.6,1.2,1.8,0,5.2.2,6.8.6,6.6,1.4,8.2,4.6,8.6,11.4.4,6.4.4,12,.4,43.2v35.2Z"/>
    <path class="cls-2" d="m212.99,511.2c0,18.74,0,34.92-.99,43.24-.84,6.06-1.8,9.26-4.74,9.85-2.19.49-4.33.77-5.74.77-2.03,0-2.93,1.27-2.93,2.53,0,2.93,3.29,2.93,4.53,2.93,5.1,0,14.77-.42,17.95-.56l.88-.04c.2,0,1.04.03,2.32.08,4.47.17,13.78.52,22.25.52,3.95,0,4.53-1.84,4.53-2.93,0-1.26-.91-2.53-2.93-2.53-1.7,0-5.98-.38-8.81-.79-4.84-.65-6.04-3.81-6.66-9.82-.99-8.34-.99-24.53-.99-43.26v-4.8c0-.26.04-.36.04-.36l24.6.49c.73,0,1.01.14,1.68.81,1.57,2.06,4.26,5.77,7.37,10.06,4.21,5.81,9.46,13.05,14.31,19.4l2.54,3.36c10.05,13.26,16.69,22.02,24.89,26.41,5.56,3,10.92,3.96,22.03,3.96h14.2c2.44,0,6.13,0,6.13-2.93,0-1.4-1.41-2.53-3.13-2.53-1.17,0-3.9,0-7.59-.58-5.25-.84-13.41-3.21-23.64-14-10.14-10.84-21.95-26-35.64-43.57-1.71-2.19-3.42-4.38-5.13-6.57,16.18-15.2,23.73-29.95,23.73-46.34,0-14.17-9.02-24.44-14.36-28.28-11.12-7.98-25.14-9.05-37.38-9.05-3.91,0-11.41.24-16.89.41-3.28.1-5.9.19-6.71.19-.24,0-1.2-.04-2.64-.09-4.28-.16-13.19-.51-19.96-.51-1.24,0-4.53,0-4.53,2.93,0,1.47,1.23,2.53,2.93,2.53s5.03.2,6.48.56c5.57,1.18,7.19,3.37,7.59,10.18.4,6.36.4,11.98.4,43.12v35.2Z"/>
    <path class="cls-2" d="m215.65,511.2c0,19.6,0,35.08-1.01,43.56-.81,5.85-1.94,11.17-6.86,12.15-1.1.24-3.96.83-6.26.83-.28,0-.38.05-.38.05.11-.15.43.08,1.98.08,5.04,0,14.67-.42,17.83-.56.59-.03.93-.04.97-.04.24,0,1.11.03,2.45.08,4.46.17,13.72.52,22.15.52,1.54,0,1.9-.33,1.9-.33l.08.26s-.1-.05-.38-.05c-1.83,0-6.21-.39-9.19-.81-7.18-.96-8.35-6.54-8.94-12.18-1.01-8.46-1.01-23.94-1.01-43.54v-4.8c0-2.16,1.41-2.93,2.73-2.93l24.62.4c1.6,0,2.54.61,3.52,1.59,1.82,2.35,4.52,6.07,7.64,10.38,4.21,5.8,9.44,13.03,14.27,19.35l2.55,3.36c9.84,12.98,16.33,21.56,24.02,25.67,5.12,2.76,10.17,3.64,20.77,3.64h14.2c1.3,0,2.13-.06,2.66-.13-1.37,0-4.09-.05-7.67-.62-5.64-.9-14.38-3.42-25.16-14.8-10.23-10.94-22.08-26.15-35.81-43.76l-5.88-7.54-.76-.97.9-.83c16.22-14.96,23.77-29.32,23.77-45.22,0-13.09-8.33-22.58-13.25-26.12-10.51-7.53-24-8.55-35.82-8.55-3.86,0-11.34.24-16.8.41-3.32.11-5.97.19-6.8.19-.25,0-1.25-.04-2.74-.1-4.26-.16-13.14-.5-19.86-.5-1.55,0-1.88.23-1.91.25-.02-.17.11-.12.31-.12,1.84,0,5.38.2,7.12.64,7.54,1.6,9.2,5.67,9.61,12.62.4,6.44.4,12.06.4,43.28v35.2Z"/>
    <path class="cls-2" d="m228.99,428c0-1.69.89-3.02,2.44-3.64,2.19-.66,7.6-1.29,13.9-1.29,22.16,0,35.93,15.84,35.93,41.33,0,14.49-4.78,26.41-12.78,31.9-5.2,3.61-11.48,4.03-15.75,4.03-9.14,0-18.46-1.46-21.69-3.39-1.36-.82-2.05-2.01-2.05-3.54v-65.4Z"/>
    <path class="cls-2" d="m231.65,428c0-.61.22-.95.76-1.16,1.76-.52,7.14-1.11,12.9-1.11,20.83,0,33.27,14.46,33.27,38.67,0,13.61-4.34,24.71-11.62,29.7-4.6,3.2-10.33,3.57-14.25,3.57-9.45,0-17.9-1.56-20.31-3.01-.63-.38-.75-.76-.75-1.26v-65.4Z"/>
  </g>
</svg>