<?xml version="1.0" encoding="UTF-8"?>
<svg id="Layer_1" data-name="Layer 1" xmlns="http://www.w3.org/2000/svg" xmlns:xlink="http://www.w3.org/1999/xlink" viewBox="0 0 396 612">
  <defs>
    <style>
      .cls-1 {
        letter-spacing: .01em;
      }

      .cls-2 {
        letter-spacing: -.01em;
      }

      .cls-3 {
        stroke: #dc4030;
      }

      .cls-3, .cls-4 {
        stroke-width: 1.33px;
      }

      .cls-3, .cls-4, .cls-5 {
        fill: none;
      }

      .cls-4 {
        stroke: #d2232a;
      }

      .cls-6 {
        letter-spacing: -.02em;
      }

      .cls-7 {
        letter-spacing: -.04em;
      }

      .cls-8 {
        font-size: 35px;
      }

      .cls-8, .cls-9, .cls-10 {
        fill: #fff;
      }

      .cls-8, .cls-11 {
        font-family: TrajanPro3-Black, 'Trajan Pro 3';
        font-weight: 800;
      }

      .cls-12 {
        clip-path: url(#clippath);
      }

      .cls-13 {
        letter-spacing: .04em;
      }

      .cls-5, .cls-14, .cls-10 {
        stroke-width: 0px;
      }

      .cls-15 {
        letter-spacing: -.02em;
      }

      .cls-16 {
        letter-spacing: 0em;
      }

      .cls-17 {
        letter-spacing: 0em;
      }

      .cls-18 {
        letter-spacing: 0em;
      }

      .cls-19 {
        letter-spacing: 0em;
      }

      .cls-20 {
        letter-spacing: 0em;
      }

      .cls-21 {
        letter-spacing: -.03em;
      }

      .cls-22 {
        letter-spacing: 0em;
      }

      .cls-9, .cls-23 {
        font-family: TrajanPro3-Semibold, 'Trajan Pro 3';
        font-weight: 600;
      }

      .cls-9, .cls-11 {
        font-size: 25px;
      }

      .cls-23 {
        font-size: 52px;
      }

      .cls-23, .cls-14 {
        fill: #3a3883;
      }

      .cls-24 {
        letter-spacing: -.03em;
      }

      .cls-25 {
        letter-spacing: -.03em;
      }

      .cls-26 {
        letter-spacing: 0em;
      }

      .cls-27 {
        letter-spacing: -.02em;
      }

      .cls-28 {
        letter-spacing: 0em;
      }

      .cls-29 {
        letter-spacing: .04em;
      }

      .cls-30 {
        letter-spacing: .03em;
      }

      .cls-31 {
        letter-spacing: .01em;
      }

      .cls-32 {
        letter-spacing: .03em;
      }

      .cls-33 {
        letter-spacing: -.01em;
      }

      .cls-11 {
        fill: #dc4030;
      }

      .cls-34 {
        letter-spacing: -.03em;
      }

      .cls-35 {
        letter-spacing: -.03em;
      }

      .cls-36 {
        letter-spacing: -.02em;
      }

      .cls-37 {
        letter-spacing: -.03em;
      }

      .cls-38 {
        fill: #231f20;
        font-family: TrajanPro3-Regular, 'Trajan Pro 3';
        font-size: 20px;
      }

      .cls-39 {
        letter-spacing: .02em;
      }
    </style>
    <clipPath id="clippath">
      <rect class="cls-5" width="396" height="612"/>
    </clipPath>
  </defs>
  <rect class="cls-10" width="396" height="597"/>
  <rect class="cls-14" y="295.2" width="396" height="316.8"/>
  <text class="cls-23" transform="translate(34.24 84)"><tspan class="cls-33" x="0" y="0">T</tspan><tspan class="cls-13" x="36.04" y="0">r</tspan><tspan class="cls-17" x="73.53" y="0">a</tspan><tspan class="cls-30" x="107.27" y="0">j</tspan><tspan class="cls-1" x="128.39" y="0">a</tspan><tspan x="162.34" y="0">n</tspan></text>
  <text class="cls-38" transform="translate(45 116.13)"><tspan class="cls-32" x="0" y="0">C</tspan><tspan class="cls-18" x="16.68" y="0">a</tspan><tspan class="cls-31" x="29" y="0">r</tspan><tspan class="cls-20" x="42.62" y="0">o</tspan><tspan x="58.64" y="0">l </tspan><tspan class="cls-29" x="75.62" y="0">T</tspan><tspan class="cls-28" x="90.26" y="0">w</tspan><tspan x="109.76" y="0">om</tspan><tspan class="cls-35" x="144.44" y="0">b</tspan><tspan class="cls-25" x="155.96" y="0">l</tspan><tspan x="165.86" y="0">y</tspan></text>
  <text class="cls-11" transform="translate(45 145.69)"><tspan x="0" y="0">A</tspan><tspan class="cls-19" x="20.67" y="0">n</tspan><tspan x="42.07" y="0">d</tspan></text>
  <text class="cls-38" transform="translate(45 176.07)"><tspan class="cls-39" x="0" y="0">R</tspan><tspan class="cls-2" x="15.46" y="0">o</tspan><tspan class="cls-34" x="31.46" y="0">b</tspan><tspan class="cls-15" x="42.98" y="0">e</tspan><tspan class="cls-37" x="53.42" y="0">r</tspan><tspan x="66.06" y="0">t </tspan><tspan class="cls-25" x="84.8" y="0">S</tspan><tspan class="cls-22" x="95.62" y="0">lim</tspan><tspan class="cls-16" x="132.42" y="0">b</tspan><tspan class="cls-28" x="144.74" y="0">a</tspan><tspan class="cls-26" x="157.24" y="0">c</tspan><tspan x="171.26" y="0">h</tspan></text>
  <text class="cls-8" transform="translate(18.94 243.76)"><tspan class="cls-27" x="0" y="0">1</tspan><tspan class="cls-6" x="18.23" y="0">9</tspan><tspan class="cls-21" x="45.71" y="0">8</tspan><tspan x="72.41" y="0">9</tspan></text>
  <text class="cls-9" transform="translate(54.06 365.01)"><tspan class="cls-7" x="0" y="0">1</tspan><tspan class="cls-36" x="10.15" y="0">9</tspan><tspan class="cls-24" x="25.3" y="0">8</tspan><tspan x="40.4" y="0">9</tspan></text>
  <g class="cls-12">
    <path class="cls-10" d="m147.95,337.45c13.65.33,27.3.33,40.95.65,31.2.65,39,8.12,39.98,17.88,0,1.3.32,2.28.32,3.58.32,4.55.97,5.52,2.6,5.52,1.3,0,2.28-1.3,2.28-4.23,0-3.57.97-26,.97-35.75,0-1.95,0-3.9-1.62-3.9-1.3,0-4.22.98-9.1,1.62-5.2.98-12.68,1.62-23.07,1.62h-121.88c-3.9,0-16.25-.65-25.68-1.62-8.78-.65-12.03-3.9-14.3-3.9-1.3,0-2.6,4.23-3.25,6.17-.65,2.6-7.15,30.55-7.15,33.8,0,1.95.65,2.93,1.62,2.93,1.3,0,2.27-.65,3.25-3.25.97-2.27,1.95-4.55,5.52-10.08,5.2-7.8,13-10.07,33.15-10.4,15.93-.32,32.18-.32,48.1-.65v137.48c0,31.2,0,56.88-1.62,70.52-1.3,9.43-2.92,16.57-9.42,17.88-2.93.65-6.83,1.3-9.75,1.3-1.95,0-2.6.97-2.6,1.95,0,1.95,1.62,2.6,5.2,2.6,9.75,0,30.23-.98,31.85-.98s22.1.98,39.97.98c3.57,0,5.2-.98,5.2-2.6,0-.98-.65-1.95-2.6-1.95-2.93,0-10.07-.65-14.62-1.3-9.75-1.3-11.7-8.45-12.68-17.88-1.62-13.65-1.62-39.32-1.62-70.52v-137.48Z"/>
    <path class="cls-3" d="m147.98,336.11c6.82.16,13.64.24,20.46.33,6.83.08,13.66.16,20.49.32,27.65.58,39.99,6.28,41.27,19.08,0,.71.08,1.22.15,1.73.09.63.18,1.26.18,1.98.3,4.19.84,4.19,1.27,4.19.47,0,.94-.99.94-2.89,0-1.37.14-5.37.31-10.44.28-8.13.66-19.26.66-25.31,0-.8,0-2.29-.26-2.59-.47.03-1.43.24-2.55.48-1.56.34-3.69.8-6.4,1.16-5.76,1.08-13.61,1.64-23.25,1.64h-121.88c-3.99,0-16.33-.65-25.81-1.63-5.83-.43-9.35-1.99-11.68-3.03-.96-.43-1.75-.78-2.28-.85-.7.73-1.71,3.78-2.05,4.82l-.14.43c-.83,3.32-7.08,30.45-7.08,33.38,0,1.1.25,1.54.33,1.61.43-.02,1.07-.02,1.96-2.4,1-2.35,2.02-4.71,5.65-10.33,5.4-8.1,13.4-10.67,34.25-11.01,7.96-.16,16.01-.24,24.06-.32,8.04-.08,16.08-.16,24.04-.33l1.36-.03v138.84c0,31.82,0,56.95-1.63,70.68-1.31,9.54-3.01,17.53-10.49,19.03-1.77.39-6.36,1.33-10.01,1.33-1.27,0-1.27.46-1.27.62,0,.47,0,1.27,3.87,1.27,6.9,0,19.08-.49,26.35-.78,2.95-.12,5.02-.2,5.5-.2.38,0,1.79.05,3.95.13,7.24.27,22.32.84,36.03.84,1.87,0,3.87-.33,3.87-1.27,0-.15,0-.62-1.27-.62-2.89,0-10.09-.64-14.81-1.31-11.08-1.48-12.9-10.23-13.81-19.06-1.63-13.71-1.63-38.84-1.63-70.66v-138.84l1.37.03Z"/>
    <path class="cls-3" d="m149.28,338.81c6.38.14,12.75.22,19.12.29,6.82.08,13.64.16,20.46.32,32.68.68,37.89,8.81,38.68,16.67,0,.59.08,1.21.17,1.84.07.51.15,1.02.15,1.6.28,3.93.74,6.86,3.93,6.86.85,0,3.61-.4,3.61-5.56,0-1.33.14-5.31.31-10.35.28-8.15.66-19.3.66-25.4,0-1.96,0-5.23-2.96-5.23-.73,0-1.67.2-3.09.51-1.51.33-3.58.78-6.19,1.13-5.74,1.07-13.42,1.61-22.9,1.61h-121.88c-3.99,0-16.47-.68-25.54-1.62-5.44-.4-8.58-1.8-10.87-2.81-1.38-.61-2.47-1.1-3.57-1.1-2.02,0-3.13,2.89-4.38,6.67l-.14.42c-.41,1.64-7.22,30.65-7.22,34.22,0,3.14,1.53,4.26,2.96,4.26,2.6,0,3.74-2.08,4.5-4.12.96-2.23,1.88-4.39,5.4-9.82,4.85-7.27,12.04-9.47,32.05-9.79,7.96-.16,16-.24,24.04-.32,7.59-.08,15.18-.15,22.7-.3v136.11c0,31.73,0,56.8-1.62,70.37-1.42,10.26-3.1,15.67-8.36,16.72-3.6.8-7.14,1.27-9.49,1.27-2.9,0-3.93,1.77-3.93,3.28,0,3.93,4.58,3.93,6.53,3.93,6.95,0,19.16-.49,26.46-.78,2.89-.12,4.93-.2,5.39-.2.37,0,1.74.05,3.85.13,7.26.27,22.37.84,36.13.84,5.68,0,6.53-2.46,6.53-3.93s-1.03-3.28-3.93-3.28-9.81-.62-14.44-1.29c-8.36-1.11-10.51-6.73-11.54-16.69-1.62-13.59-1.62-38.66-1.62-70.39v-136.11Z"/>
    <path class="cls-10" d="m230.32,428c0-1.2.6-2,1.6-2.4,2-.6,7.4-1.2,13.4-1.2,21.4,0,34.6,15,34.6,40,0,15.2-5.2,26-12.2,30.8-4.6,3.2-10.2,3.8-15,3.8-8.8,0-18-1.4-21-3.2-1-.6-1.4-1.4-1.4-2.4v-65.4Zm-16,83.2c0,19.2,0,35-1,43.4-.8,5.8-1.8,10.2-5.8,11-1.8.4-4.2.8-6,.8-1.2,0-1.6.6-1.6,1.2,0,1.2,1,1.6,3.2,1.6,6,0,18.6-.6,18.8-.6,1,0,13.6.6,24.6.6,2.2,0,3.2-.6,3.2-1.6,0-.6-.4-1.2-1.6-1.2-1.8,0-6.2-.4-9-.8-6-.8-7.2-5.2-7.8-11-1-8.4-1-24.2-1-43.4v-4.8c0-1,.4-1.6,1.4-1.6l24.6.4c1.2,0,1.8.4,2.6,1.2,4,5.2,13.4,18.6,21.8,29.6,11.4,15,18.4,24.8,27,29.4,5.2,2.8,10.2,3.8,21.4,3.8h14.2c3.6,0,4.8-.4,4.8-1.6,0-.6-.8-1.2-1.8-1.2-1.2,0-4,0-7.8-.6-5-.8-13.6-3-24.4-14.4-11.6-12.4-25.2-30.2-41.6-51.2,18-16.6,24.2-31.4,24.2-46.2,0-13.8-8.8-23.6-13.8-27.2-10.6-7.6-24-8.8-36.6-8.8-6.2,0-21.4.6-23.6.6-1,0-13.6-.6-22.6-.6-2.2,0-3.2.4-3.2,1.6,0,.8.8,1.2,1.6,1.2,1.8,0,5.2.2,6.8.6,6.6,1.4,8.2,4.6,8.6,11.4.4,6.4.4,12,.4,43.2v35.2Z"/>
    <path class="cls-4" d="m212.99,511.2c0,18.74,0,34.92-.99,43.24-.84,6.06-1.8,9.26-4.74,9.85-2.19.49-4.33.77-5.74.77-2.03,0-2.93,1.27-2.93,2.53,0,2.93,3.29,2.93,4.53,2.93,5.1,0,14.77-.42,17.95-.56l.88-.04c.2,0,1.04.03,2.32.08,4.47.17,13.78.52,22.25.52,3.95,0,4.53-1.84,4.53-2.93,0-1.26-.91-2.53-2.93-2.53-1.7,0-5.98-.38-8.81-.79-4.84-.65-6.04-3.81-6.66-9.82-.99-8.34-.99-24.53-.99-43.26v-4.8c0-.26.04-.36.04-.36l24.6.49c.73,0,1.01.14,1.68.81,1.57,2.06,4.26,5.77,7.37,10.06,4.21,5.81,9.46,13.05,14.31,19.4l2.54,3.36c10.05,13.26,16.69,22.02,24.89,26.41,5.56,3,10.92,3.96,22.03,3.96h14.2c2.44,0,6.13,0,6.13-2.93,0-1.4-1.41-2.53-3.13-2.53-1.17,0-3.9,0-7.59-.58-5.25-.84-13.41-3.21-23.64-14-10.14-10.84-21.95-26-35.64-43.57-1.71-2.19-3.42-4.38-5.13-6.57,16.18-15.2,23.73-29.95,23.73-46.34,0-14.17-9.02-24.44-14.36-28.28-11.12-7.98-25.14-9.05-37.38-9.05-3.91,0-11.41.24-16.89.41-3.28.1-5.9.19-6.71.19-.24,0-1.2-.04-2.64-.09-4.28-.16-13.19-.51-19.96-.51-1.24,0-4.53,0-4.53,2.93,0,1.47,1.23,2.53,2.93,2.53s5.03.2,6.48.56c5.57,1.18,7.19,3.37,7.59,10.18.4,6.36.4,11.98.4,43.12v35.2Z"/>
    <path class="cls-4" d="m215.65,511.2c0,19.6,0,35.08-1.01,43.56-.81,5.85-1.94,11.17-6.86,12.15-1.1.24-3.96.83-6.26.83-.28,0-.38.05-.38.05.11-.15.43.08,1.98.08,5.04,0,14.67-.42,17.83-.56.59-.03.93-.04.97-.04.24,0,1.11.03,2.45.08,4.46.17,13.72.52,22.15.52,1.54,0,1.9-.33,1.9-.33l.08.26s-.1-.05-.38-.05c-1.83,0-6.21-.39-9.19-.81-7.18-.96-8.35-6.54-8.94-12.18-1.01-8.46-1.01-23.94-1.01-43.54v-4.8c0-2.16,1.41-2.93,2.73-2.93l24.62.4c1.6,0,2.54.61,3.52,1.59,1.82,2.35,4.52,6.07,7.64,10.38,4.21,5.8,9.44,13.03,14.27,19.35l2.55,3.36c9.84,12.98,16.33,21.56,24.02,25.67,5.12,2.76,10.17,3.64,20.77,3.64h14.2c1.3,0,2.13-.06,2.66-.13-1.37,0-4.09-.05-7.67-.62-5.64-.9-14.38-3.42-25.16-14.8-10.23-10.94-22.08-26.15-35.81-43.76l-5.88-7.54-.76-.97.9-.83c16.22-14.96,23.77-29.32,23.77-45.22,0-13.09-8.33-22.58-13.25-26.12-10.51-7.53-24-8.55-35.82-8.55-3.86,0-11.34.24-16.8.41-3.32.11-5.97.19-6.8.19-.25,0-1.25-.04-2.74-.1-4.26-.16-13.14-.5-19.86-.5-1.55,0-1.88.23-1.91.25-.02-.17.11-.12.31-.12,1.84,0,5.38.2,7.12.64,7.54,1.6,9.2,5.67,9.61,12.62.4,6.44.4,12.06.4,43.28v35.2Z"/>
    <path class="cls-4" d="m228.99,428c0-1.69.89-3.02,2.44-3.64,2.19-.66,7.6-1.29,13.9-1.29,22.16,0,35.93,15.84,35.93,41.33,0,14.49-4.78,26.41-12.78,31.9-5.2,3.61-11.48,4.03-15.75,4.03-9.14,0-18.46-1.46-21.69-3.39-1.36-.82-2.05-2.01-2.05-3.54v-65.4Z"/>
    <path class="cls-4" d="m231.65,428c0-.61.22-.95.76-1.16,1.76-.52,7.14-1.11,12.9-1.11,20.83,0,33.27,14.46,33.27,38.67,0,13.61-4.34,24.71-11.62,29.7-4.6,3.2-10.33,3.57-14.25,3.57-9.45,0-17.9-1.56-20.31-3.01-.63-.38-.75-.76-.75-1.26v-65.4Z"/>
  </g>
</svg>