<svg width="1765" height="375" viewBox="0 0 1765 375" fill="none" xmlns="http://www.w3.org/2000/svg">
<path d="M1765 375L-2.28882e-05 375V1.5378e-05L1765 1.5378e-05V375Z" fill="#4C4C4C"/>
<path d="M157.95 214V47.9501H229.275C238.875 47.9501 247.8 48.8501 256.05 50.6501C264.45 52.4501 271.8 55.3001 278.1 59.2001C284.4 63.1001 289.275 68.3501 292.725 74.9501C296.325 81.5501 298.125 89.5751 298.125 99.0251C298.125 107.275 296.4 114.625 292.95 121.075C289.5 127.375 284.7 132.775 278.55 137.275C272.55 141.625 265.35 144.925 256.95 147.175C248.7 149.425 239.7 150.55 229.95 150.55H201.6V214H157.95ZM201.6 135.25H225.675C232.125 135.25 237.375 134.125 241.425 131.875C245.625 129.625 248.7 125.875 250.65 120.625C252.6 115.225 253.575 108.025 253.575 99.0251C253.575 89.4251 252.6 82.0001 250.65 76.7501C248.7 71.5001 245.625 67.8251 241.425 65.7251C237.225 63.6251 231.825 62.5751 225.225 62.5751H201.6V135.25ZM253.125 214L217.8 146.725L256.275 128.95L301.275 214H253.125Z" fill="white"/>
<path d="M104.95 303V136.95H176.275C185.875 136.95 194.8 137.85 203.05 139.65C211.45 141.45 218.8 144.3 225.1 148.2C231.4 152.1 236.275 157.35 239.725 163.95C243.325 170.55 245.125 178.575 245.125 188.025C245.125 196.275 243.4 203.625 239.95 210.075C236.5 216.375 231.7 221.775 225.55 226.275C219.55 230.625 212.35 233.925 203.95 236.175C195.7 238.425 186.7 239.55 176.95 239.55H148.6V303H104.95ZM148.6 224.25H172.675C179.125 224.25 184.375 223.125 188.425 220.875C192.625 218.625 195.7 214.875 197.65 209.625C199.6 204.225 200.575 197.025 200.575 188.025C200.575 178.425 199.6 171 197.65 165.75C195.7 160.5 192.625 156.825 188.425 154.725C184.225 152.625 178.825 151.575 172.225 151.575H148.6V224.25ZM200.125 303L164.8 235.725L203.275 217.95L248.275 303H200.125Z" fill="#E2CD97"/>
<path d="M531.35 279L478.475 112.95H496.7L546.65 268.425L542.15 268.875L591.875 112.95H599.75L547.1 279H531.35Z" fill="white"/>
<path d="M563.35 256L510.475 89.9501H528.7L578.65 245.425L574.15 245.875L623.875 89.9501H631.75L579.1 256H563.35Z" fill="#5077A5"/>
<path d="M905.75 286.025C886.55 286.025 869.9 283.4 855.8 278.15C841.85 273.05 830.225 265.7 820.925 256.1C811.775 246.65 804.95 235.325 800.45 222.125C796.1 208.775 793.925 193.925 793.925 177.575C793.925 161.225 796.175 146.525 800.675 133.475C805.175 120.275 812.075 109.025 821.375 99.7251C830.675 90.2751 842.45 83.0751 856.7 78.1251C871.1 73.1751 888.05 70.7001 907.55 70.7001C926.3 70.7001 942.5 72.9501 956.15 77.4501C969.8 81.8001 981.05 88.1001 989.9 96.3501C998.9 104.45 1005.58 114.275 1009.93 125.825C1014.43 137.225 1016.68 149.975 1016.68 164.075C1016.68 171.125 1015.7 178.625 1013.75 186.575C1011.95 194.525 1009.03 201.95 1004.98 208.85C1001.08 215.75 995.75 221.375 989 225.725C982.4 230.075 974.15 232.25 964.25 232.25H928.7V226.4C925.4 228.8 921.575 230.6 917.225 231.8C912.875 233 908.3 233.6 903.5 233.6C896.9 233.6 891.125 232.475 886.175 230.225C881.375 227.825 877.325 224.45 874.025 220.1C870.725 215.75 868.25 210.575 866.6 204.575C865.1 198.425 864.35 191.6 864.35 184.1C864.35 173.9 865.85 165.125 868.85 157.775C872 150.425 876.425 144.725 882.125 140.675C887.975 136.625 895.1 134.6 903.5 134.6C906.95 134.6 910.175 134.975 913.175 135.725C916.175 136.325 918.95 137.225 921.5 138.425C924.2 139.475 926.6 140.9 928.7 142.7V136.4H964.925V217.625H968.975C974.075 217.625 978.65 216.275 982.7 213.575C986.75 210.725 990.125 206.825 992.825 201.875C995.675 196.925 997.775 191.225 999.125 184.775C1000.48 178.325 1001.15 171.425 1001.15 164.075C1001.15 152.375 999.35 141.8 995.75 132.35C992.3 122.9 986.975 114.8 979.775 108.05C972.725 101.15 963.725 95.9001 952.775 92.3001C941.975 88.5501 929.15 86.6751 914.3 86.6751C900.2 86.6751 888.125 88.5501 878.075 92.3001C868.025 95.9001 859.85 101.375 853.55 108.725C847.25 116.075 842.6 125.525 839.6 137.075C836.75 148.475 835.325 161.975 835.325 177.575C835.325 193.325 836.675 207.05 839.375 218.75C842.225 230.45 846.725 240.05 852.875 247.55C859.175 255.2 867.5 260.9 877.85 264.65C888.2 268.4 901.025 270.2 916.325 270.05C921.275 270.05 926.525 269.825 932.075 269.375C937.775 269.075 943.55 268.55 949.4 267.8V281.525C944.9 282.425 940.175 283.175 935.225 283.775C930.275 284.525 925.325 285.05 920.375 285.35C915.425 285.8 910.55 286.025 905.75 286.025ZM919.25 219.425C921.05 219.425 922.625 219.275 923.975 218.975C925.475 218.675 927.05 218.225 928.7 217.625V151.475C927.05 150.875 925.475 150.425 923.975 150.125C922.625 149.825 921.05 149.675 919.25 149.675C916.7 149.675 914.225 150.275 911.825 151.475C909.575 152.525 907.625 154.325 905.975 156.875C904.475 159.425 903.275 162.95 902.375 167.45C901.475 171.95 901.025 177.65 901.025 184.55C901.025 191.6 901.475 197.45 902.375 202.1C903.425 206.6 904.7 210.125 906.2 212.675C907.85 215.225 909.8 217.025 912.05 218.075C914.3 218.975 916.7 219.425 919.25 219.425Z" fill="#F5F5F5"/>
<path d="M940.75 314.025C921.55 314.025 904.9 311.4 890.8 306.15C876.85 301.05 865.225 293.7 855.925 284.1C846.775 274.65 839.95 263.325 835.45 250.125C831.1 236.775 828.925 221.925 828.925 205.575C828.925 189.225 831.175 174.525 835.675 161.475C840.175 148.275 847.075 137.025 856.375 127.725C865.675 118.275 877.45 111.075 891.7 106.125C906.1 101.175 923.05 98.7001 942.55 98.7001C961.3 98.7001 977.5 100.95 991.15 105.45C1004.8 109.8 1016.05 116.1 1024.9 124.35C1033.9 132.45 1040.58 142.275 1044.93 153.825C1049.43 165.225 1051.68 177.975 1051.68 192.075C1051.68 199.125 1050.7 206.625 1048.75 214.575C1046.95 222.525 1044.03 229.95 1039.98 236.85C1036.08 243.75 1030.75 249.375 1024 253.725C1017.4 258.075 1009.15 260.25 999.25 260.25H963.7V254.4C960.4 256.8 956.575 258.6 952.225 259.8C947.875 261 943.3 261.6 938.5 261.6C931.9 261.6 926.125 260.475 921.175 258.225C916.375 255.825 912.325 252.45 909.025 248.1C905.725 243.75 903.25 238.575 901.6 232.575C900.1 226.425 899.35 219.6 899.35 212.1C899.35 201.9 900.85 193.125 903.85 185.775C907 178.425 911.425 172.725 917.125 168.675C922.975 164.625 930.1 162.6 938.5 162.6C941.95 162.6 945.175 162.975 948.175 163.725C951.175 164.325 953.95 165.225 956.5 166.425C959.2 167.475 961.6 168.9 963.7 170.7V164.4H999.925V245.625H1003.98C1009.08 245.625 1013.65 244.275 1017.7 241.575C1021.75 238.725 1025.13 234.825 1027.83 229.875C1030.68 224.925 1032.78 219.225 1034.13 212.775C1035.48 206.325 1036.15 199.425 1036.15 192.075C1036.15 180.375 1034.35 169.8 1030.75 160.35C1027.3 150.9 1021.98 142.8 1014.78 136.05C1007.73 129.15 998.725 123.9 987.775 120.3C976.975 116.55 964.15 114.675 949.3 114.675C935.2 114.675 923.125 116.55 913.075 120.3C903.025 123.9 894.85 129.375 888.55 136.725C882.25 144.075 877.6 153.525 874.6 165.075C871.75 176.475 870.325 189.975 870.325 205.575C870.325 221.325 871.675 235.05 874.375 246.75C877.225 258.45 881.725 268.05 887.875 275.55C894.175 283.2 902.5 288.9 912.85 292.65C923.2 296.4 936.025 298.2 951.325 298.05C956.275 298.05 961.525 297.825 967.075 297.375C972.775 297.075 978.55 296.55 984.4 295.8V309.525C979.9 310.425 975.175 311.175 970.225 311.775C965.275 312.525 960.325 313.05 955.375 313.35C950.425 313.8 945.55 314.025 940.75 314.025ZM954.25 247.425C956.05 247.425 957.625 247.275 958.975 246.975C960.475 246.675 962.05 246.225 963.7 245.625V179.475C962.05 178.875 960.475 178.425 958.975 178.125C957.625 177.825 956.05 177.675 954.25 177.675C951.7 177.675 949.225 178.275 946.825 179.475C944.575 180.525 942.625 182.325 940.975 184.875C939.475 187.425 938.275 190.95 937.375 195.45C936.475 199.95 936.025 205.65 936.025 212.55C936.025 219.6 936.475 225.45 937.375 230.1C938.425 234.6 939.7 238.125 941.2 240.675C942.85 243.225 944.8 245.025 947.05 246.075C949.3 246.975 951.7 247.425 954.25 247.425Z" fill="#BC6666"/>
<path d="M1233.43 187.975V181.225H1240.18C1246.63 181.225 1252.48 180.55 1257.73 179.2C1263.13 177.7 1267.7 175.3 1271.45 172C1275.2 168.55 1278.13 164.05 1280.23 158.5C1282.33 152.8 1283.38 145.75 1283.38 137.35C1283.38 125.95 1281.5 117.1 1277.75 110.8C1274.15 104.35 1268.83 99.7751 1261.78 97.0751C1254.73 94.2251 1246.1 92.8001 1235.9 92.8001C1230.65 92.8001 1225.48 93.1001 1220.38 93.7001C1215.28 94.1501 1210.33 94.8251 1205.53 95.7251V89.8751C1211.68 88.5251 1217.75 87.5501 1223.75 86.9501C1229.75 86.2001 1235.83 85.8251 1241.98 85.8251C1249.48 85.8251 1256.75 86.5751 1263.8 88.0751C1271 89.5751 1277.38 92.2751 1282.93 96.1751C1288.63 99.9251 1293.13 105.175 1296.43 111.925C1299.88 118.525 1301.6 127 1301.6 137.35C1301.6 147.4 1299.95 155.725 1296.65 162.325C1293.35 168.925 1288.85 174.1 1283.15 177.85C1277.45 181.6 1271 184.225 1263.8 185.725C1256.75 187.225 1249.48 187.975 1241.98 187.975H1233.43ZM1230.05 253V228.025H1245.58V253H1230.05Z" fill="white"/>
<path d="M1255.43 225.975V219.225H1262.18C1268.63 219.225 1274.48 218.55 1279.73 217.2C1285.13 215.7 1289.7 213.3 1293.45 210C1297.2 206.55 1300.13 202.05 1302.23 196.5C1304.33 190.8 1305.38 183.75 1305.38 175.35C1305.38 163.95 1303.5 155.1 1299.75 148.8C1296.15 142.35 1290.83 137.775 1283.78 135.075C1276.73 132.225 1268.1 130.8 1257.9 130.8C1252.65 130.8 1247.48 131.1 1242.38 131.7C1237.28 132.15 1232.33 132.825 1227.53 133.725V127.875C1233.68 126.525 1239.75 125.55 1245.75 124.95C1251.75 124.2 1257.83 123.825 1263.98 123.825C1271.48 123.825 1278.75 124.575 1285.8 126.075C1293 127.575 1299.38 130.275 1304.93 134.175C1310.63 137.925 1315.13 143.175 1318.43 149.925C1321.88 156.525 1323.6 165 1323.6 175.35C1323.6 185.4 1321.95 193.725 1318.65 200.325C1315.35 206.925 1310.85 212.1 1305.15 215.85C1299.45 219.6 1293 222.225 1285.8 223.725C1278.75 225.225 1271.48 225.975 1263.98 225.975H1255.43ZM1252.05 291V266.025H1267.58V291H1252.05Z" fill="#BE9961"/>
<path d="M1470.9 279L1547.4 130.275H1469.78V112.95H1610.18V130.275L1535.25 279H1470.9Z" fill="white"/>
<path d="M1495.9 285L1572.4 136.275H1494.78V118.95H1635.18V136.275L1560.25 285H1495.9Z" fill="#33476E"/>
</svg>
