<?xml version="1.0" encoding="utf-8"?>
<!-- Generator: Adobe Illustrator 28.0.0, SVG Export Plug-In . SVG Version: 6.00 Build 0)  -->
<svg version="1.1" id="Layer_1" xmlns="http://www.w3.org/2000/svg" xmlns:xlink="http://www.w3.org/1999/xlink" x="0px" y="0px"
	 viewBox="0 0 1733.3 1152" style="enable-background:new 0 0 1733.3 1152;" xml:space="preserve">
<style type="text/css">
	.st0{fill:#4C4C4C;}
	.st1{fill:none;}
	.st2{fill:#BE9961;}
	.st3{fill:#FFFFFF;}
</style>
<g>
	<rect x="150.6" class="st0" width="1379.7" height="29.5"/>
	<path class="st1" d="M0,329.6v-12v-10.1v-11v-7.1v-19v-2.1v-17c-0.1,0-0.1,0-0.2,0v82.5c0.1,0,0.1,0,0.2,0V329.6z"/>
	<path class="st1" d="M0,516v-0.6v-20.6v-139v-8.5v-3.8c-0.1-0.2-0.1-0.4-0.2-0.6v219.8l0.1-21.1L0,516z"/>
	<polygon class="st1" points="1733.3,1150.9 1733.3,1156 1730.7,1156 1730.7,1150.9 	"/>
	<path class="st1" d="M0,230.5V102.3v-3.8V84.6V62.5V44.4V23.2v-17V0h-0.2v249.7c0.1,0,0.1,0,0.2,0V230.5z"/>
	<path class="st1" d="M1039.7,3c1.8,0,3.6,0,5.3,0.1c0.2-1,0.5-2.1,0.7-3.1h-10.2c0.2,1,0.5,2,0.7,3C1037.4,3,1038.6,3,1039.7,3z"/>
	<path class="st1" d="M689.7,6c1.6,0,3.1,0,4.7,0.1c0.4-2,0.9-4.1,1.4-6.1h-10.2c0.5,2,1,4,1.4,6C687.9,6,688.8,6,689.7,6z"/>
	<path class="st1" d="M1390.7,3c1.5,0,2.9,0,4.4,0.1c0.2-1,0.5-2,0.7-3.1h-10.2c0.3,1,0.5,2,0.7,3.1C1387.8,3,1389.2,3,1390.7,3z"/>
	<path class="st1" d="M341.7,6c0.9,0,1.8,0,2.7,0c0.4-2,0.9-4,1.4-6h-10.2c0.5,2,1,4,1.4,6.1C338.5,6,340.1,6,341.7,6z"/>
	<path class="st0" d="M1733.7,661v489.9h-3v5.1H-0.2v-8H0V600.8c80.1-4.2,146-62.3,162-138.8c1.2,0,2.5,0,3.7,0c1.6,0,3.1,0,4.7-0.1
		c8.3,39.7,30,74.5,60.2,99.3S299.5,601,341.7,601c84.3,0,154.7-59.6,171.3-139c0.9,0,1.8,0,2.7,0s1.8,0,2.7,0
		c16.6,79.4,87,139,171.3,139S844.4,541.3,861,461.9c1.6,0,3.1,0.1,4.7,0.1c1.1,0,2.2,0,3.4,0c17.7,77.9,87.4,136,170.6,136
		c83.3,0,153-58.2,170.7-136.1c1.8,0.1,3.6,0.1,5.3,0.1c1.5,0,2.9,0,4.4-0.1c17.7,77.9,87.4,136.1,170.6,136.1
		s152.9-58.2,170.6-136.1c1.4,0,2.9,0.1,4.4,0.1c2,0,4.1,0,6.1-0.1c18.1,73.8,83.1,129.2,161.5,132.9V661H1733.7z"/>
	<path class="st2" d="M513,462c-16.6,79.4-87,139-171.3,139c-42.2,0-80.8-14.9-111.1-39.8c-30.2-24.8-52-59.6-60.2-99.3
		c7-0.2,13.9-0.8,20.6-1.8l0,0C207.5,528.3,268.9,579,342.2,579c73.1,0,134.4-50.5,151-118.4C499.7,461.4,506.3,461.9,513,462z"/>
	<path class="st0" d="M342.7,558c-63.5,0-116.8-43.2-132.4-101.7l0,0c-6.3,1.6-12.7,3-19.2,3.9C207.5,528.4,268.9,579,342.2,579
		c73.1,0,134.4-50.4,151-118.4c-6.2-0.8-12.4-1.9-18.4-3.4C459,515.3,405.8,558,342.7,558z"/>
	<path class="st2" d="M861,461.9C844.4,541.3,774,601,689.7,601S535,541.4,518.4,462c7-0.1,13.9-0.6,20.7-1.5
		C555.7,528.5,617,579,690.2,579s134.6-50.6,151.1-118.7C847.8,461.2,854.3,461.8,861,461.9z"/>
	<path class="st0" d="M692.7,563c-65.2,0-119.7-45.5-133.6-106.4c-6.5,1.7-13.2,3-20,3.9C555.7,528.5,617,579,690.2,579
		s134.6-50.6,151.1-118.7c-5.2-0.7-10.2-1.7-15.2-2.8C811.8,518,757.5,563,692.7,563z"/>
	<path class="st2" d="M1210.3,461.9C1192.6,539.8,1123,598,1039.7,598s-152.9-58.2-170.6-136c7-0.1,14-0.7,20.8-1.6
		c17.6,66.6,78.2,115.7,150.3,115.7c72.2,0,132.8-49.2,150.4-115.8C1197,461.1,1203.6,461.7,1210.3,461.9z"/>
	<path class="st0" d="M1042.7,558c-63.5,0-116.9-43.2-132.4-101.7c-6.7,1.8-13.5,3.1-20.4,4.1c17.6,66.6,78.2,115.7,150.3,115.7
		c72.2,0,132.8-49.2,150.4-115.8c-5.3-0.8-10.6-1.8-15.7-3C1159,515.3,1105.8,558,1042.7,558z"/>
	<path class="st2" d="M1561.3,461.9c-17.7,77.9-87.4,136.1-170.6,136.1s-152.9-58.2-170.6-136.1c7-0.2,14-0.8,20.8-1.7
		c17.5,66.6,78.2,115.8,150.4,115.8c72.1,0,132.8-49.1,150.3-115.7C1548,461.2,1554.6,461.8,1561.3,461.9z"/>
	<path class="st0" d="M1391.7,558c-63.4,0-116.7-43-132.3-101.5c-6.1,1.6-12.2,2.8-18.5,3.7c17.5,66.6,78.2,115.8,150.4,115.8
		c72.1,0,132.7-49.1,150.3-115.7c-6-0.8-11.9-2-17.6-3.4C1508.1,515.2,1454.9,558,1391.7,558z"/>
	<path class="st2" d="M1733.3,572.7v22c-78.5-3.7-143.4-59.1-161.5-132.9c7.1-0.2,14-0.9,20.8-1.9
		C1610.2,522.5,1666,568.9,1733.3,572.7z"/>
	<path class="st0" d="M1613.3,455.4c-6.8,1.9-13.7,3.4-20.8,4.5c17.7,62.5,73.5,109,140.7,112.8v-16.3
		C1675.4,551.2,1627.9,510.1,1613.3,455.4z"/>
	<path class="st2" d="M162,462C146,538.4,80.1,596.5,0,600.8v-22c69.2-3.9,126.4-53,142.3-118.3C148.7,461.3,155.3,461.8,162,462z"
		/>
	<path class="st2" d="M340.2,535c-53.3,0-98.4-35.5-112.7-84.2c-5.6,2.1-11.3,4-17.2,5.5C225.8,514.8,279.2,558,342.7,558
		c63.1,0,116.3-42.7,132.2-100.8c-7.5-1.8-14.8-4.1-21.8-6.8C438.8,499.3,393.6,535,340.2,535z"/>
	<path class="st2" d="M1633.8,448.3c-6.6,2.8-13.4,5.2-20.4,7.2c14.6,54.6,62.1,95.8,119.9,101v-22.3
		C1685.2,528.5,1646.1,493.9,1633.8,448.3z"/>
	<path class="st2" d="M1042.2,535c-53.6,0-98.8-35.9-112.9-84.9c-6.2,2.4-12.5,4.5-19,6.2c15.6,58.6,68.9,101.7,132.4,101.7
		c63.1,0,116.3-42.7,132.2-100.8c-6.8-1.6-13.5-3.7-20-6.1C1140.3,499.6,1095.4,535,1042.2,535z"/>
	<path class="st0" d="M1650.5,440.1c-5.4,3-11,5.8-16.8,8.2c12.3,45.6,51.5,80.2,99.5,85.9v-19.6
		C1692,510.7,1658.6,480,1650.5,440.1z"/>
	<path class="st2" d="M1391.2,536c-53.8,0-99.1-36.1-113.1-85.5c-6.1,2.3-12.4,4.3-18.8,6c15.6,58.4,69,101.5,132.3,101.5
		c63.2,0,116.4-42.8,132.2-101c-6.7-1.7-13.3-3.7-19.7-6.1C1490.1,500,1444.8,536,1391.2,536z"/>
	<path class="st2" d="M692.2,543c-56.2,0-103.2-39.5-114.8-92.2c-6,2.2-12.1,4.2-18.3,5.8C573,517.5,627.5,563,692.7,563
		c64.8,0,119.1-45,133.4-105.5c-6.6-1.5-13-3.4-19.3-5.7C794.8,504,748,543,692.2,543z"/>
	<path class="st0" d="M142.3,460.4c-6.5-0.9-12.8-2.1-19.1-3.6C110,514.4,60.4,558.1,0,562.6v16.1
		C69.2,574.9,126.4,525.7,142.3,460.4z"/>
	<path class="st0" d="M1390.2,516c-45.2,0-83-32.1-91.6-74.8c-6.6,3.5-13.4,6.7-20.4,9.4c13.9,49.3,59.3,85.5,113.1,85.5
		c53.7,0,98.9-36,113-85.1c-7.7-2.9-15.1-6.3-22.3-10.2C1473.4,483.6,1435.6,516,1390.2,516z"/>
	<path class="st0" d="M1044.2,516c-46,0-84.2-33.1-92-76.8c-7.3,4.2-15,7.8-22.9,10.9c14.1,49,59.3,84.9,112.9,84.9
		c53.2,0,98.2-35.4,112.6-83.9c-6.6-2.5-13.1-5.3-19.3-8.5C1126.3,484.6,1088.9,516,1044.2,516z"/>
	<path class="st0" d="M693.2,518c-46.4,0-84.9-33.8-92.2-78.2c-7.5,4.2-15.4,7.9-23.5,10.9C589,503.5,636,543,692.2,543
		c55.8,0,102.6-39,114.5-91.2c-7.5-2.7-14.8-5.9-21.7-9.5C776.7,485.4,738.7,518,693.2,518z"/>
	<path class="st0" d="M340.2,516c-45.2,0-83-32.1-91.6-74.8c-6.8,3.6-13.8,6.8-21.1,9.6l0,0c14.3,48.7,59.4,84.2,112.7,84.2
		c53.5,0,98.6-35.7,112.8-84.6c-7.3-2.8-14.3-6-21.1-9.7C423.4,483.6,385.6,516,340.2,516z"/>
	<path class="st2" d="M694.7,495c-38.9,0-70.8-30-73.8-68.2c-6.3,4.8-13,9.1-20,13c7.3,44.3,45.8,78.2,92.2,78.2
		c45.5,0,83.5-32.6,91.8-75.7c-5.9-3.1-11.6-6.5-17.1-10.2C762.5,467.7,731.8,495,694.7,495z"/>
	<path class="st0" d="M676.8,355.5c-12.1,28.4-31.5,52.9-55.8,71.3c3,38.1,34.8,68.2,73.8,68.2c37.1,0,67.8-27.3,73.2-62.9
		c-27.9-18.8-50-45.5-63.3-76.8c-4.9,0.4-9.9,0.6-14.9,0.6C685.3,356,681,355.8,676.8,355.5z"/>
	<path class="st2" d="M338.7,495c-37.5,0-68.5-27.9-73.3-64.1l0,0c-5.4,3.7-11,7.2-16.8,10.3l0,0c8.7,42.7,46.4,74.8,91.6,74.8
		c45.4,0,83.3-32.4,91.7-75.3c-6.8-3.7-13.4-7.9-19.6-12.5C408.7,465.7,377.1,495,338.7,495z"/>
	<path class="st0" d="M326.8,355.4L326.8,355.4c-13,30.6-34.5,56.8-61.5,75.5c4.8,36.2,35.8,64.1,73.3,64.1
		c38.4,0,70-29.3,73.6-66.8c-25.2-18.5-45.3-43.6-57.7-72.7c-4.3,0.3-8.6,0.5-12.9,0.5C336.7,356,331.7,355.8,326.8,355.4z"/>
	<path class="st2" d="M676.8,355.5c-12.1,28.4-31.5,52.9-55.8,71.3c-6.3,4.8-13,9.1-20,13c-7.5,4.2-15.4,7.9-23.5,10.9
		c-6,2.2-12.1,4.2-18.3,5.8c-6.5,1.7-13.2,3-20,3.9s-13.7,1.4-20.7,1.5c-0.9,0-1.8,0-2.7,0s-1.8,0-2.7,0c-6.7-0.1-13.3-0.6-19.8-1.4
		c-6.2-0.8-12.4-1.9-18.4-3.4c-7.5-1.8-14.8-4.1-21.8-6.8c-7.3-2.8-14.3-6-21.1-9.8c-6.8-3.7-13.4-7.9-19.6-12.5
		c-25.2-18.5-45.3-43.6-57.7-72.7c6.8-0.5,13.4-1.4,19.9-2.6c25.3,51.6,78.3,87.1,139.7,87.1c61.5,0,114.7-35.8,139.9-87.6
		C661.5,353.9,669.1,355,676.8,355.5z"/>
	<path class="st2" d="M123.2,456.8c-6.7-1.7-13.1-3.7-19.5-6.1C92.6,499.6,51,536.8,0,541.5v21.1C60.4,558.1,110,514.4,123.2,456.8z
		"/>
	<path class="st0" d="M103.7,450.7c-7.9-3-15.5-6.5-22.7-10.5c-7.6,39.7-40.3,70.5-81,75.2v0.6v25.5
		C51,536.8,92.6,499.6,103.7,450.7z"/>
	<path class="st0" d="M635.6,347.5C612.5,390.6,567,420,514.7,420c-52.1,0-97.5-29.1-120.6-72c-6.4,2-12.9,3.6-19.6,4.9
		c25.3,51.6,78.3,87.1,139.7,87.1c61.5,0,114.7-35.8,139.9-87.6C647.8,351.1,641.6,349.4,635.6,347.5z"/>
	<path class="st2" d="M1044.7,497c-39.6,0-71.9-31-73.9-70.1c-5.9,4.5-12.1,8.5-18.6,12.2c7.9,43.7,46.1,76.8,92,76.8
		c44.7,0,82.1-31.4,91.3-73.4c-6-3.1-11.8-6.6-17.4-10.3C1113.5,468.8,1082.4,497,1044.7,497z"/>
	<path class="st2" d="M1390.7,498c-38.9,0-70.8-30.1-73.8-68.2c-5.9,4.2-12,8-18.4,11.4c8.7,42.7,46.4,74.8,91.6,74.8
		c45.4,0,83.3-32.4,91.7-75.3c-6-3.3-11.9-7-17.5-10.9C1461.5,467.9,1429.6,498,1390.7,498z"/>
	<path class="st0" d="M1028,352.6c-12,29.7-31.9,55.3-57.2,74.3c2,39,34.3,70.1,73.9,70.1c37.7,0,68.8-28.2,73.4-64.7
		c-28.8-19.4-51.6-47.2-64.7-79.8c-4.5,0.3-9.1,0.5-13.7,0.5C1035.7,353,1031.8,352.9,1028,352.6z"/>
	<path class="st2" d="M1028,352.6c-12,29.7-31.9,55.4-57.2,74.3c-5.9,4.5-12.2,8.5-18.6,12.2c-7.3,4.2-15,7.8-22.9,10.9
		c-6.2,2.4-12.5,4.5-19,6.2c-6.7,1.8-13.5,3.1-20.4,4.1c-6.8,0.9-13.8,1.5-20.8,1.6c-1.1,0-2.2,0-3.4,0c-1.6,0-3.1,0-4.7-0.1
		c-6.7-0.2-13.2-0.7-19.7-1.6c-5.2-0.7-10.2-1.6-15.2-2.8c-6.6-1.5-13-3.4-19.3-5.7c-7.5-2.7-14.8-5.9-21.7-9.5
		c-5.9-3.1-11.6-6.5-17.1-10.2c-27.9-18.8-50-45.5-63.3-76.8c6.7-0.6,13.3-1.5,19.8-2.8c25.2,51.8,78.4,87.4,139.8,87.4
		c62.6,0,116.6-37,141.2-90.4C1012.8,351.1,1020.3,352.1,1028,352.6z"/>
	<path class="st0" d="M1378,352.5c-12.6,31.2-34,58-61.1,77.2c2.9,38.2,34.8,68.2,73.8,68.2s70.8-30.1,73.8-68.2
		c-27.1-19.2-48.4-46-61.1-77.2c-4.2,0.3-8.4,0.5-12.7,0.5S1382.2,352.8,1378,352.5z"/>
	<path class="st2" d="M1669.4,428c-6,4.4-12.3,8.5-18.8,12.1c8,39.9,41.5,70.6,82.7,74.5v-23.2C1700.1,487.2,1673.8,461,1669.4,428z
		"/>
	<path class="st2" d="M1378,352.5c-12.6,31.2-34,58-61.1,77.2c-5.9,4.2-12,8-18.4,11.4c-6.6,3.5-13.4,6.7-20.5,9.4
		c-6.1,2.3-12.4,4.3-18.8,6c-6.1,1.5-12.2,2.8-18.5,3.7c-6.8,1-13.7,1.6-20.8,1.7c-1.5,0-2.9,0.1-4.4,0.1c-1.8,0-3.6,0-5.3-0.1
		c-6.7-0.2-13.3-0.8-19.8-1.7c-5.3-0.8-10.6-1.8-15.7-3c-6.8-1.6-13.5-3.7-20-6.1c-6.6-2.5-13.1-5.3-19.3-8.5
		c-6-3.1-11.8-6.6-17.4-10.3c-28.8-19.4-51.6-47.2-64.7-79.8c7-0.5,13.9-1.5,20.6-2.8c24.6,53.3,78.6,90.4,141.2,90.4
		s116.6-37,141.2-90.4C1363.5,351,1370.7,352,1378,352.5z"/>
	<path class="st0" d="M1669.4,428c4.5,33.1,30.7,59.2,63.9,63.4V349.8c-1.4-0.1-2.7-0.1-4.1-0.2
		C1717.1,381.1,1696.1,408.3,1669.4,428z"/>
	<path class="st0" d="M986.9,344.9C964.3,389.5,918,420,864.7,420c-52.4,0-97.8-29.4-120.9-72.5c-6.3,2.1-12.8,3.8-19.4,5.1
		c25.2,51.8,78.4,87.4,139.8,87.4c62.6,0,116.6-37,141.2-90.4C999.1,348.4,993,346.8,986.9,344.9z"/>
	<path class="st2" d="M1729.2,349.5c-12.1,31.5-33,58.7-59.8,78.4c-6,4.4-12.3,8.5-18.8,12.1c-5.4,3-11,5.8-16.8,8.2
		c-6.6,2.8-13.4,5.2-20.4,7.2c-6.8,1.9-13.7,3.4-20.8,4.5c-6.8,1-13.8,1.7-20.8,1.9c-2,0.1-4,0.1-6.1,0.1c-1.5,0-2.9,0-4.4-0.1
		c-6.7-0.2-13.3-0.7-19.8-1.6c-6-0.8-11.9-2-17.6-3.4c-6.7-1.6-13.3-3.7-19.7-6.1c-7.7-2.9-15.1-6.3-22.2-10.2
		c-6.1-3.3-11.9-7-17.5-10.9c-27.1-19.2-48.4-46-61.1-77.2c7-0.5,13.9-1.4,20.7-2.7c24.7,53.2,78.6,90.2,141.1,90.2
		c63.8,0,118.6-38.4,142.6-93.3C1714.7,348.1,1721.9,349,1729.2,349.5z"/>
	<path class="st0" d="M1565.7,423c-54.4,0-101.4-31.7-123.5-77.7c-5.9,1.8-12,3.3-18.1,4.5c24.7,53.2,78.6,90.2,141.1,90.2
		c63.8,0,118.6-38.4,142.5-93.3c-5.8-1.1-11.6-2.6-17.2-4.3C1669.1,389.9,1621.2,423,1565.7,423z"/>
	<path class="st0" d="M1337.9,344.9c-22.6,44.6-68.9,75.1-122.2,75.1c-53.5,0-99.8-30.7-122.4-75.4c-6.3,2-12.8,3.7-19.3,5
		c24.6,53.3,78.6,90.4,141.2,90.4s116.6-37,141.2-90.4C1350.1,348.4,1344,346.8,1337.9,344.9z"/>
	<path class="st2" d="M81,440.2c-4.8-2.7-9.5-5.6-14.1-8.7c-4.8,33.8-32.5,60.3-66.8,63.2H0v20.6C40.7,510.7,73.4,479.9,81,440.2z"
		/>
	<path class="st0" d="M66.9,431.5c-27.4-18.8-49.2-45.1-62.4-76c-1.3,0.1-2.6,0.2-3.8,0.3c-0.2,0-0.5,0-0.7,0v139h0.1
		C34.5,491.8,62.1,465.3,66.9,431.5z"/>
	<path class="st2" d="M326.8,355.4L326.8,355.4c-13,30.6-34.5,56.8-61.5,75.5l0,0c-5.4,3.7-11,7.2-16.8,10.3
		c-6.8,3.6-13.8,6.9-21.1,9.6c-5.6,2.1-11.3,4-17.2,5.5c-6.3,1.6-12.7,3-19.2,3.9l0,0c-6.8,1-13.7,1.6-20.6,1.8
		c-1.6,0-3.1,0.1-4.7,0.1c-1.2,0-2.5,0-3.7,0c-6.7-0.1-13.2-0.7-19.7-1.5c-6.5-0.9-12.8-2.1-19.1-3.6c-6.7-1.7-13.1-3.7-19.5-6.1
		c-7.9-3-15.5-6.5-22.7-10.5c-4.8-2.7-9.5-5.6-14.1-8.7c-27.4-18.8-49.2-45.1-62.4-76C10.8,355,17,354.2,23,353
		c1.1-0.2,2.2-0.4,3.3-0.7c25.2,51.9,78.4,87.6,139.9,87.6s114.7-35.8,139.9-87.6C312.9,353.8,319.8,354.8,326.8,355.4z"/>
	<path class="st0" d="M164.7,420c-52.2,0-97.6-29.2-120.8-72.2c-5.8,1.8-11.7,3.4-17.7,4.6c25.2,51.9,78.4,87.6,139.9,87.6
		s114.7-35.8,139.9-87.6c-6.9-1.4-13.7-3.3-20.2-5.5C262.9,390.4,217.3,420,164.7,420z"/>
	<path class="st2" d="M1565.2,402c-45.5,0-84.9-25.8-104.4-63.6c-6,2.6-12.2,5-18.6,6.9c22.1,46,69.1,77.7,123.5,77.7
		c55.6,0,103.4-33.1,124.9-80.6c-6.6-2-13.1-4.4-19.4-7.2C1652.3,374.7,1611.9,402,1565.2,402z"/>
	<path class="st2" d="M1215.7,420c53.4,0,99.6-30.5,122.2-75.1c-5.9-1.9-11.7-4-17.3-6.5c-19.5,37.8-59,63.6-104.4,63.6
		c-45.8,0-85.4-26.2-104.8-64.3c-5.9,2.6-11.9,5-18.1,6.9C1115.9,389.3,1162.2,420,1215.7,420z"/>
	<path class="st2" d="M864.7,420c53.4,0,99.6-30.5,122.2-75.1c-5.6-1.8-11.1-3.8-16.5-6.1c-19.6,37.6-58.9,63.2-104.2,63.2
		c-44.8,0-83.7-25.1-103.5-61.9c-6.1,2.8-12.4,5.3-18.9,7.4C766.8,390.6,812.3,420,864.7,420z"/>
	<path class="st2" d="M514.7,420c52.4,0,97.8-29.4,120.9-72.5c-6.2-2-12.2-4.3-18.1-7c-19.9,36.6-58.7,61.5-103.3,61.5
		c-44.2,0-82.7-24.4-102.7-60.5c-5.6,2.5-11.4,4.6-17.4,6.5C417.2,390.9,462.5,420,514.7,420z"/>
	<path class="st2" d="M164.7,420c52.6,0,98.2-29.6,121.2-73.1c-6.2-2.1-12.1-4.5-18-7.2c-19.8,37.1-58.8,62.3-103.7,62.3
		c-44.3,0-82.9-24.6-102.9-60.8c-5.3,2.3-10.7,4.4-16.3,6.2c-0.3,0.1-0.7,0.2-1,0.3l0,0C67,390.8,112.4,420,164.7,420z"/>
	<path class="st0" d="M164.2,402c44.9,0,84-25.2,103.7-62.3c-6.6-3.1-13-6.6-19.1-10.4c-15,31.7-47.2,53.7-84.6,53.7
		c-36.6,0-68.4-21.1-83.7-51.8c-3.9,2.3-7.9,4.5-12,6.6c-2.4,1.2-4.8,2.3-7.2,3.4l0,0C81.2,377.4,119.8,402,164.2,402z"/>
	<path class="st0" d="M514.2,402c44.6,0,83.4-24.9,103.3-61.5c-6.6-3-13-6.4-19.2-10.2c-15.2,31.2-47.1,52.7-84.2,52.7
		c-36.5,0-68-20.9-83.5-51.3c-6.2,3.7-12.6,7-19.3,9.9C431.5,377.6,470,402,514.2,402z"/>
	<path class="st0" d="M866.2,402c45.3,0,84.6-25.7,104.2-63.2c-7.3-3.1-14.3-6.7-21-10.8c-14.7,32.5-47.3,55-85.3,55
		c-36.8,0-68.7-21.3-83.9-52.2c-5.7,3.4-11.5,6.6-17.6,9.3C782.5,376.9,821.4,402,866.2,402z"/>
	<path class="st0" d="M1216.2,402c45.5,0,84.9-25.8,104.4-63.6c-7-3.1-13.7-6.5-20.2-10.4c-14.7,32.5-47.3,55-85.3,55
		s-70.6-22.6-85.2-55c-6,3.6-12.2,6.8-18.6,9.7C1130.8,375.8,1170.4,402,1216.2,402z"/>
	<path class="st0" d="M1565.2,383c-37.7,0-70.3-22.4-85-54.6c-6.2,3.7-12.7,7-19.4,10c19.5,37.8,59,63.6,104.4,63.6
		c46.7,0,87.1-27.3,106-66.8c-6.7-3-13.3-6.4-19.5-10.1C1637.7,359.1,1604.2,383,1565.2,383z"/>
	<path class="st2" d="M164.2,383c37.4,0,69.7-22,84.6-53.7c-6.1-3.8-12-8-17.5-12.6c-11,27.1-37.5,46.2-68.6,46.2
		c-29.5,0-54.9-17.2-66.8-42.1l0,0c-3.4,2.5-6.8,5-10.4,7.2c-1.7,1.1-3.3,2.1-5,3.1l0,0C95.8,361.9,127.5,383,164.2,383z"/>
	<path class="st2" d="M514.2,383c37,0,69-21.5,84.2-52.7c-5.6-3.4-10.9-7.1-16.1-11.1C570.7,345,544.8,363,514.7,363
		c-29.7,0-55.3-17.5-67.1-42.7c-5.4,4.1-11,7.9-16.9,11.4C446.1,362.1,477.7,383,514.2,383z"/>
	<path class="st2" d="M864.2,383c37.9,0,70.6-22.6,85.3-55c-6.5-3.9-12.6-8.2-18.5-12.9c-10.6,28-37.6,47.9-69.2,47.9
		c-29.5,0-54.9-17.2-66.8-42.1c-4.7,3.5-9.6,6.8-14.6,9.9C795.5,361.7,827.4,383,864.2,383z"/>
	<path class="st2" d="M1215.2,383c37.9,0,70.6-22.6,85.3-55c-5.9-3.6-11.6-7.5-17-11.7c-10.9,27.4-37.6,46.7-68.8,46.7
		c-31,0-57.5-19.1-68.5-46.1c-5.2,4-10.6,7.7-16.2,11.1C1144.6,360.4,1177.2,383,1215.2,383z"/>
	<path class="st2" d="M1565.7,363c-31,0-57.5-19.1-68.5-46.1c-5.4,4.2-11.1,8-17,11.5c14.8,32.2,47.3,54.6,85,54.6
		c39,0,72.5-23.9,86.5-57.9c-5.7-3.4-11.1-7.1-16.3-11.1C1625.1,342.6,1597.8,363,1565.7,363z"/>
	<path class="st0" d="M1146.1,316.9c11,27,37.5,46.1,68.5,46.1c31.2,0,57.9-19.3,68.8-46.7c-31.4-24.4-54.3-59.3-63.4-99.4
		c-1.4,0-2.9,0.1-4.4,0.1c-1.8,0-3.6,0-5.3-0.1C1201.1,257.4,1178,292.5,1146.1,316.9z"/>
	<path class="st0" d="M1497.1,316.9c11,27,37.5,46.1,68.5,46.1c32.1,0,59.4-20.4,69.7-49c-31.1-23.8-54-57.9-63.6-97.1
		c-2,0.1-4,0.1-6.1,0.1c-1.5,0-2.9,0-4.4-0.1C1552.1,257.4,1529,292.5,1497.1,316.9z"/>
	<path class="st0" d="M102.9,315.3c-2.3,1.9-4.6,3.8-7,5.5c11.9,24.9,37.3,42.1,66.8,42.1c31,0,57.6-19.1,68.6-46.2
		c-30.6-24.9-52.5-59.8-60.9-99.8c-1.6,0-3.1,0.1-4.7,0.1c-1.2,0-2.5,0-3.7,0c-6.9,33.3-23.4,63.1-46.3,86.5
		C111.6,307.7,107.3,311.6,102.9,315.3z"/>
	<path class="st0" d="M447.6,320.3c11.8,25.2,37.4,42.7,67.1,42.7c30.1,0,56-18,67.6-43.9c-32.1-25-55.2-60.9-63.9-102.2
		c-0.9,0-1.8,0-2.7,0s-1.8,0-2.7,0C504.2,258.9,480.5,295.3,447.6,320.3z"/>
	<path class="st0" d="M794.9,320.9c11.9,24.9,37.3,42.1,66.8,42.1c31.7,0,58.7-19.9,69.2-47.9C900.3,290.8,878,256.4,869,217
		c-1.1,0-2.2,0-3.4,0c-1.6,0-3.1,0-4.7-0.1C852.2,259.2,828.1,295.8,794.9,320.9z"/>
	<path class="st2" d="M344.4,6c-0.9,0-1.8,0-2.7,0c-1.6,0-3.1,0-4.7,0.1l0,0c1.2,5.6,2.1,11.2,2.7,16.9l0,0c0.7,0,1.4,0,2,0
		C342.3,17.3,343.2,11.6,344.4,6z"/>
	<path class="st2" d="M231.3,316.8c5.6,4.5,11.4,8.7,17.5,12.6c6.1,3.8,12.5,7.3,19.1,10.4c5.8,2.7,11.8,5.1,18,7.2
		c6.6,2.2,13.3,4,20.2,5.5c6.8,1.4,13.7,2.4,20.7,3c4.9,0.4,9.8,0.6,14.9,0.6c4.3,0,8.7-0.2,12.9-0.5c6.7-0.5,13.4-1.4,19.9-2.6
		c6.7-1.3,13.2-2.9,19.6-4.9c5.9-1.9,11.7-4,17.4-6.5c6.7-2.9,13.1-6.2,19.3-9.9c5.9-3.5,11.5-7.3,16.9-11.4
		c32.9-25,56.6-61.4,65.4-103.3c-6.7-0.1-13.3-0.6-19.8-1.4c-16.6,68-77.9,118.4-151,118.4c-73.2,0-134.7-50.6-151.1-118.8l0,0
		c-4.3,0.6-8.7,1.1-13.1,1.4l0,0c-2.5,0.2-5,0.3-7.5,0.4l0,0C178.7,256.9,200.7,291.9,231.3,316.8z"/>
	<path class="st0" d="M341.7,23c-0.7,0-1.4,0-2,0c0.5,4.8,0.8,9.6,1,14.5c0,0.5,0,1,0,1.4l0,0c0,0,0,0,0.1,0
		C340.8,33.6,341.1,28.3,341.7,23z"/>
	<path class="st0" d="M342.2,334c73.1,0,134.4-50.4,151-118.4c-6.2-0.8-12.4-1.9-18.4-3.4C459,270.3,405.8,313,342.7,313
		c-63.5,0-116.8-43.2-132.4-101.7l0,0c-6.3,1.6-12.7,3-19.2,3.9C207.5,283.4,268.9,334,342.2,334z"/>
	<path class="st2" d="M691.7,23c0.6-5.7,1.5-11.4,2.7-17c-1.6,0-3.1-0.1-4.7-0.1c-0.9,0-1.8,0-2.7,0c1.2,5.6,2.1,11.2,2.7,17
		c0.2,0,0.4,0,0.5,0C690.7,23,691.2,23,691.7,23z"/>
	<path class="st2" d="M582.3,319.1c5.1,4,10.5,7.7,16.1,11.1c6.2,3.8,12.6,7.2,19.2,10.2c5.9,2.7,11.9,5,18.1,7
		c6,2,12.2,3.6,18.5,4.9c7.4,1.5,14.9,2.6,22.6,3.1c4.3,0.3,8.6,0.5,12.9,0.5c5,0,10-0.2,14.9-0.6c6.7-0.6,13.3-1.5,19.8-2.8
		c6.6-1.3,13.1-3,19.4-5.1c6.5-2.1,12.8-4.6,18.9-7.4c6.1-2.8,11.9-5.9,17.6-9.3c5-3.1,9.9-6.4,14.6-9.9
		c33.3-25.1,57.3-61.7,66.1-103.9c-6.7-0.2-13.2-0.7-19.7-1.6C824.8,283.4,763.4,334,690.2,334s-134.5-50.5-151.1-118.6
		c-6.8,0.9-13.7,1.4-20.7,1.5C527,258.2,550.2,294.2,582.3,319.1z"/>
	<path class="st0" d="M691.7,23c-0.5,0-1,0-1.5,0c-0.2,0-0.4,0-0.5,0c0.7,6.2,1,12.6,1,19C690.7,35.6,691,29.3,691.7,23z"/>
	<path class="st0" d="M690.7,42c0,0.7,0,1.4,0,2c0,0,0,0,0.1,0C690.7,43.3,690.7,42.7,690.7,42z"/>
	<path class="st0" d="M690.2,334c73.2,0,134.6-50.6,151.1-118.7c-5.2-0.7-10.2-1.7-15.2-2.8C811.8,273,757.5,318,692.7,318
		c-65.2,0-119.7-45.5-133.6-106.4c-6.5,1.7-13.2,3-20,3.9C555.7,283.5,617,334,690.2,334z"/>
	<path class="st2" d="M1042.1,20c0.7-5.7,1.7-11.4,3-16.9c-1.8-0.1-3.6-0.1-5.3-0.1c-1.1,0-2.2,0-3.4,0c1.3,5.6,2.3,11.2,3,17
		c0.3,0,0.6,0,0.9,0C1040.8,20,1041.4,20,1042.1,20z"/>
	<path class="st2" d="M930.9,315.1c5.9,4.7,12.1,9,18.5,12.9c6.7,4.1,13.7,7.7,21,10.8c5.4,2.3,10.9,4.4,16.5,6.1
		c6,1.9,12.2,3.5,18.5,4.7c7.4,1.5,14.9,2.5,22.5,3c3.9,0.3,7.8,0.4,11.7,0.4c4.6,0,9.2-0.2,13.7-0.5c7-0.5,13.9-1.5,20.6-2.8
		c6.6-1.3,13-3,19.3-5c6.2-2,12.2-4.3,18.1-6.9c6.4-2.9,12.6-6.1,18.6-9.7c5.6-3.4,11-7.1,16.2-11.1c31.8-24.4,55-59.5,64.2-100
		c-6.7-0.2-13.3-0.8-19.8-1.7C1173,281.8,1112.3,331,1040.2,331c-72.1,0-132.7-49.1-150.3-115.7c-6.8,0.9-13.8,1.5-20.8,1.6
		C878,256.4,900.3,290.8,930.9,315.1z"/>
	<path class="st0" d="M1042.1,20c-0.6,0-1.2,0-1.9,0c-0.3,0-0.6,0-0.9,0c0.8,6.2,1.2,12.6,1.3,19h0.1
		C1040.8,32.6,1041.3,26.3,1042.1,20z"/>
	<path class="st0" d="M1040.2,331c72.2,0,132.8-49.2,150.4-115.8c-5.3-0.8-10.6-1.8-15.7-3c-15.9,58.1-69,100.8-132.2,100.8
		c-63.5,0-116.9-43.2-132.4-101.7c-6.7,1.8-13.5,3.1-20.4,4.1C907.4,281.9,968.1,331,1040.2,331z"/>
	<path class="st2" d="M1392.1,20c0.7-5.7,1.7-11.4,3-17c-1.4,0-2.9-0.1-4.4-0.1s-2.9,0-4.4,0.1c1.3,5.6,2.3,11.2,3,17
		c0.6,0,1.2,0,1.9,0C1391.5,20,1391.8,20,1392.1,20z"/>
	<path class="st2" d="M1283.5,316.3c5.4,4.2,11.1,8.1,17,11.7c6.5,3.9,13.2,7.4,20.2,10.4c5.6,2.5,11.4,4.6,17.3,6.5
		c6,1.9,12.2,3.5,18.5,4.7c7,1.4,14.2,2.4,21.6,2.9c4.2,0.3,8.4,0.5,12.7,0.5s8.5-0.2,12.7-0.5c7-0.5,13.9-1.4,20.7-2.7
		c6.2-1.2,12.2-2.7,18.1-4.5c6.4-2,12.6-4.3,18.6-6.9c6.7-2.9,13.2-6.3,19.4-10c5.9-3.5,11.6-7.4,17-11.5
		c31.8-24.4,55-59.5,64.2-99.9c-6.7-0.2-13.3-0.7-19.8-1.6c-17.6,66.6-78.2,115.7-150.3,115.7c-72.2,0-132.8-49.2-150.4-115.8
		c-6.8,1-13.7,1.6-20.8,1.7C1229.1,257,1252,291.9,1283.5,316.3z"/>
	<path class="st0" d="M1392.1,20c-0.3,0-0.6,0-0.9,0c-0.6,0-1.2,0-1.9,0c0.8,6.2,1.2,12.6,1.3,19h0.1
		C1390.8,32.6,1391.3,26.2,1392.1,20z"/>
	<path class="st0" d="M1391.2,331c72.1,0,132.7-49.1,150.3-115.7c-6-0.8-11.9-2-17.6-3.4c-15.8,58.2-69,101-132.2,101
		c-63.4,0-116.7-43-132.3-101.5c-6.1,1.6-12.2,2.8-18.5,3.7C1258.3,281.8,1319,331,1391.2,331z"/>
	<path class="st2" d="M1592.5,214.9c-6.8,1-13.8,1.7-20.8,1.9c9.6,39.2,32.5,73.3,63.6,97.1c5.2,4,10.7,7.7,16.3,11.1
		c6.3,3.8,12.8,7.1,19.5,10.1c6.3,2.8,12.7,5.2,19.4,7.2c5.6,1.7,11.3,3.1,17.2,4.3c7,1.4,14.2,2.3,21.4,2.9
		c1.4,0.1,2.7,0.2,4.1,0.2v-22.1C1666,323.9,1610.2,277.4,1592.5,214.9z"/>
	<path class="st0" d="M1613.3,210.4c-6.8,1.9-13.7,3.4-20.8,4.5c17.7,62.5,73.5,109,140.7,112.8v-16.3
		C1675.4,306.2,1627.9,265.1,1613.3,210.4z"/>
	<path class="st2" d="M4.6,355.5C10.8,355,17,354.2,23,353c1.1-0.2,2.2-0.4,3.3-0.7l0,0c6-1.2,11.9-2.8,17.7-4.6l0,0
		c0.3-0.1,0.7-0.2,1-0.3c5.6-1.8,11-3.9,16.3-6.2l0,0c2.4-1.1,4.8-2.2,7.2-3.4c4.1-2,8.1-4.2,12-6.6l0,0c1.7-1,3.4-2,5-3.1
		c3.5-2.3,7-4.7,10.4-7.2l0,0c2.4-1.8,4.7-3.6,7-5.5c4.5-3.7,8.7-7.7,12.8-11.8c23-23.4,39.4-53.2,46.3-86.5
		c-4.3-0.1-8.5-0.3-12.8-0.7l0,0c-2.3-0.2-4.6-0.5-6.9-0.8c-0.2,0.9-0.4,1.7-0.7,2.6c-7.2,27.5-21.8,52.1-41.5,71.4
		c-3.4,3.4-7,6.6-10.8,9.6c-0.8,0.6-1.6,1.3-2.4,1.9c-4.4,3.5-9.1,6.7-13.9,9.7c-1.6,1-3.3,2-5,2.9c-5,2.9-10.2,5.5-15.5,7.7
		c-1.3,0.6-2.7,1.1-4.1,1.7c-4.4,1.7-8.8,3.3-13.4,4.6c-5.6,1.6-11.3,3-17.2,4l0,0c-1.3,0.2-2.6,0.4-4,0.6
		c-4.3,0.6-8.7,1.1-13.2,1.4c-0.3,0-0.6,0-0.8,0v9.7v3.8v8.5c0.2,0,0.5,0,0.7,0C2,355.6,3.3,355.6,4.6,355.5z"/>
	<path class="st2" d="M340.7,42c0,1.2,0,2.5,0,3.7l0,0h0.1C340.7,44.5,340.7,43.2,340.7,42z"/>
	<path class="st2" d="M340.7,39c0,1,0,2,0,3C340.7,41,340.7,40,340.7,39L340.7,39z"/>
	<path class="st2" d="M342.7,313c63.1,0,116.3-42.7,132.2-100.8c-7.5-1.8-14.8-4.1-21.8-6.8c-14.2,48.9-59.4,84.6-112.8,84.6
		c-53.3,0-98.4-35.5-112.7-84.2c-4.4,1.7-9,3.2-13.6,4.5c-1.2,0.3-2.4,0.7-3.6,1C225.8,269.8,279.2,313,342.7,313z"/>
	<path class="st2" d="M1633.8,203.3c-6.6,2.8-13.4,5.2-20.4,7.2c14.6,54.6,62.1,95.8,119.9,101v-22.3
		C1685.2,283.5,1646.1,248.9,1633.8,203.3z"/>
	<path class="st2" d="M1040.7,39L1040.7,39c-0.1,1,0,2,0,3C1040.7,41,1040.7,40,1040.7,39z"/>
	<path class="st2" d="M1040.7,42c0,2.3-0.1,4.6-0.1,6.9h0.3C1040.7,46.6,1040.7,44.3,1040.7,42z"/>
	<path class="st2" d="M1042.7,313c63.1,0,116.3-42.7,132.2-100.8c-6.8-1.6-13.5-3.7-20-6.1c-14.5,48.5-59.4,83.9-112.6,83.9
		c-53.6,0-98.8-35.9-112.9-84.9c-6.2,2.4-12.5,4.5-19,6.2C925.8,269.8,979.2,313,1042.7,313z"/>
	<path class="st0" d="M1650.5,195.1c-5.4,3-11,5.8-16.8,8.2c12.3,45.6,51.5,80.2,99.5,85.9v-19.6
		C1692,265.7,1658.6,235,1650.5,195.1z"/>
	<path class="st2" d="M1390.6,39c0,1,0,2,0,3C1390.7,41,1390.7,40,1390.6,39C1390.7,39,1390.7,39,1390.6,39z"/>
	<path class="st2" d="M1390.7,42c0,2.9-0.1,5.7-0.2,8.5h0.4C1390.8,47.7,1390.7,44.9,1390.7,42z"/>
	<path class="st2" d="M1391.7,313c63.2,0,116.4-42.8,132.2-101c-6.7-1.7-13.3-3.7-19.7-6.1c-14.1,49.2-59.3,85.1-113,85.1
		c-53.8,0-99.1-36.1-113.1-85.5c-6.1,2.3-12.4,4.3-18.8,6C1275,270,1328.3,313,1391.7,313z"/>
	<path class="st2" d="M690.8,47.3h-0.2c0-1.1,0-2.2,0.1-3.3C690.7,45.1,690.7,46.2,690.8,47.3z"/>
	<path class="st2" d="M692.7,318c64.8,0,119.1-45,133.4-105.5c-6.6-1.5-13-3.4-19.3-5.7C794.8,259,748,298,692.2,298
		c-56.2,0-103.2-39.5-114.8-92.2c-6,2.2-12.1,4.2-18.3,5.8C573,272.5,627.5,318,692.7,318z"/>
	<path class="st0" d="M14,332.3c1.3-0.2,2.6-0.4,4-0.6l0,0c5.8-1,11.6-2.4,17.2-4c4.6-1.3,9-2.9,13.4-4.6c1.4-0.6,2.7-1.1,4.1-1.7
		c5.3-2.3,10.5-4.9,15.5-7.7c1.7-0.9,3.3-1.9,5-2.9c4.8-3,9.5-6.2,13.9-9.7c0.8-0.6,1.6-1.3,2.4-1.9c3.7-3,7.3-6.3,10.8-9.6
		c19.7-19.3,34.3-43.9,41.5-71.4c0.2-0.9,0.4-1.7,0.7-2.6c-6.5-0.9-12.8-2.1-19.1-3.6c-1.5,6.4-3.4,12.6-5.7,18.6
		c-6.3,16.3-15.7,31.1-27.3,43.7c-1.5,1.6-3.1,3.2-4.7,4.8c-4.3,4.2-8.8,8.1-13.6,11.7c-0.4,0.3-0.8,0.6-1.2,0.9
		c-6.2,4.5-12.7,8.6-19.6,12c-0.9,0.4-1.8,0.9-2.7,1.3c-5.7,2.7-11.6,5-17.7,7c-1.4,0.5-2.9,0.9-4.3,1.3c-4.1,1.1-8.3,2.1-12.5,2.8
		c-4.2,0.8-8.6,1.3-12.9,1.7c-0.3,0-0.6,0.1-0.9,0.1v12v4.1c0.3,0,0.6,0,0.8,0C5.3,333.4,9.7,333,14,332.3z"/>
	<path class="st0" d="M1391.2,291c53.7,0,98.9-36,113-85.1c-7.7-2.9-15.1-6.3-22.3-10.2c-8.5,42.9-46.3,75.3-91.7,75.3
		c-45.2,0-83-32.1-91.6-74.8c-6.6,3.5-13.4,6.7-20.4,9.4C1292,254.9,1337.4,291,1391.2,291z"/>
	<path class="st0" d="M1042.2,290c53.2,0,98.2-35.4,112.6-83.9c-6.6-2.5-13.1-5.3-19.3-8.5c-9.2,42-46.6,73.4-91.3,73.4
		c-46,0-84.2-33.1-92-76.8c-7.3,4.2-15,7.8-22.9,10.9C943.4,254.1,988.6,290,1042.2,290z"/>
	<path class="st0" d="M692.2,298c55.8,0,102.6-39,114.5-91.2c-7.5-2.7-14.8-5.9-21.7-9.5c-8.3,43.1-46.3,75.7-91.8,75.7
		c-46.4,0-84.9-33.8-92.2-78.2c-7.5,4.2-15.4,7.9-23.5,10.9C589,258.5,636,298,692.2,298z"/>
	<path class="st0" d="M340.2,290c53.5,0,98.6-35.7,112.8-84.6c-7.3-2.8-14.3-6-21.1-9.7c-8.5,42.9-46.3,75.3-91.7,75.3
		c-45.2,0-83-32.1-91.6-74.8c-1.4,0.8-2.9,1.5-4.4,2.3c-5.4,2.7-11,5.2-16.7,7.3l0,0C241.8,254.5,286.8,290,340.2,290z"/>
	<path class="st2" d="M785,197.3c-8.3,43.1-46.3,75.7-91.8,75.7c-18.9,0-36.4-5.6-51.1-15.2c-1.1-0.7-2.2-1.5-3.3-2.3
		c-0.5-0.4-1.1-0.8-1.6-1.2c-18.8-14.1-32.2-35.2-36.2-59.5c0,0,0,0,0,0c0,0,0,0,0,0c7-3.9,13.7-8.2,20-13c0,0,0,0.1,0,0.1
		c1.5,19.1,10.2,36.1,23.4,48.3c13.2,12.3,30.9,19.8,50.4,19.8c37.1,0,67.8-27.3,73.2-62.9C773.4,190.8,779.1,194.2,785,197.3z"/>
	<path class="st0" d="M767.9,187.1c-5.4,35.6-36.1,62.9-73.2,62.9c-19.5,0-37.2-7.5-50.4-19.8c-13.2-12.3-21.9-29.3-23.3-48.4
		c5.7-4.3,11.2-9,16.3-13.9c1-1,2.1-2.1,3.1-3.1c0.7-0.7,1.3-1.3,1.9-2c0.1-0.1,0.2-0.2,0.2-0.2c0.1-0.1,0.2-0.2,0.3-0.3
		c0,0,0.1-0.1,0.1-0.1c0.3-0.4,0.7-0.7,1-1.1c0.5-0.6,1.1-1.2,1.6-1.8c0.9-1,1.7-1.9,2.6-2.9c0.8-1,1.7-2,2.5-3
		c7.4-9,14-18.8,19.5-29.1c0.6-1.1,1.2-2.3,1.8-3.5c1.2-2.3,2.3-4.6,3.3-7c0.8-1.8,1.6-3.7,2.4-5.6c0.2-0.6,0.5-1.1,0.7-1.7
		c0.2-0.6,0.5-1.1,0.7-1.7c3.1-8.1,5.6-16.4,7.5-25.1c2.3-10.5,3.7-21.3,4-32.4h0.2c0.2,5.6,0.6,11.1,1.3,16.5
		c0.3,2.7,0.7,5.4,1.2,8.1c0,0,0,0,0,0c0.4,2.6,1,5.2,1.5,7.8c6.8,31,21.8,59,42.8,81.4c0.5,0.5,0.9,1,1.3,1.4
		c1.1,1.2,2.2,2.3,3.3,3.4c5,5,10.3,9.7,15.8,14.1C761.2,182.5,764.5,184.8,767.9,187.1z"/>
	<path class="st0" d="M637.3,167.8c1-1,2.1-2,3.1-3.1C639.4,165.8,638.4,166.9,637.3,167.8c-5.1,5-10.6,9.7-16.3,14c0,0,0,0,0,0
		C626.8,177.5,632.2,172.8,637.3,167.8z"/>
	<path class="st2" d="M431.9,195.7c-0.1,0.7-0.3,1.3-0.4,2c-0.1,0.6-0.3,1.3-0.4,2c0,0,0,0,0,0.1c-0.3,1.3-0.7,2.6-1,3.9
		c-5.4,18.8-16.6,35.2-31.6,47.1c-1.5,1.2-3.1,2.4-4.8,3.5c-0.5,0.4-1.1,0.8-1.6,1.1c-1.6,1.1-3.3,2.1-5,3.1c0,0-0.1,0.1-0.1,0.1
		c-1.7,1-3.4,1.9-5.2,2.8c0,0,0,0-0.1,0c-0.6,0.3-1.1,0.5-1.7,0.8c-0.6,0.3-1.2,0.6-1.9,0.9h0c-0.6,0.3-1.2,0.5-1.8,0.8
		c-1.2,0.5-2.5,1-3.7,1.5c-1.3,0.5-2.5,0.9-3.8,1.3c-1.3,0.4-2.6,0.8-3.9,1.1c-0.6,0.2-1.3,0.4-2,0.5c-1.3,0.3-2.6,0.6-4,0.9
		c0,0,0,0,0,0c-1.3,0.3-2.7,0.5-4,0.7c-1.4,0.2-2.7,0.4-4.1,0.5c-3.4,0.4-6.9,0.6-10.5,0.6c-0.8,0-1.6,0-2.4,0c-0.8,0-1.6,0-2.4-0.1
		c-0.6,0-1.2-0.1-1.8-0.1c-0.5,0-0.9-0.1-1.4-0.1c-0.3,0-0.7-0.1-1-0.1c-0.3,0-0.7,0-1-0.1c-0.4,0-0.8-0.1-1.2-0.1
		c-0.4,0-0.8-0.1-1.1-0.1c-0.3,0-0.5-0.1-0.8-0.1c-0.5-0.1-0.9-0.1-1.4-0.2c-0.2,0-0.4-0.1-0.6-0.1c-0.5-0.1-1-0.2-1.6-0.3
		c-0.7-0.1-1.3-0.2-2-0.4c-0.9-0.2-1.8-0.4-2.7-0.6c-0.2-0.1-0.5-0.1-0.7-0.2c-0.4-0.1-0.7-0.2-1-0.3c0,0,0,0,0,0
		c-0.3-0.1-0.6-0.2-0.9-0.2c-0.7-0.2-1.4-0.4-2.1-0.6c-0.2,0-0.4-0.1-0.5-0.2c-0.4-0.1-0.8-0.2-1.2-0.4c-0.3-0.1-0.7-0.2-1-0.3
		c0,0,0,0,0,0c-0.1,0-0.2,0-0.3-0.1c-0.2-0.1-0.5-0.2-0.7-0.2c-0.3-0.1-0.6-0.2-1-0.3c-0.2-0.1-0.5-0.2-0.7-0.2c0,0-0.1,0-0.1,0
		c-0.9-0.3-1.7-0.6-2.6-1c-0.6-0.2-1.1-0.4-1.7-0.7c-0.6-0.2-1.2-0.5-1.8-0.8c0,0,0,0-0.1,0c-7.9-3.5-15.2-8-21.8-13.5
		c-5.5-4.6-10.6-9.8-14.9-15.6c-0.4-0.5-0.8-1-1.1-1.5c0-0.1-0.1-0.1-0.1-0.2c-0.3-0.5-0.7-0.9-1-1.4c-0.1-0.2-0.2-0.3-0.4-0.5
		c0,0,0,0,0,0c-0.5-0.7-0.9-1.4-1.4-2.1c0-0.1-0.1-0.1-0.1-0.2c-0.1-0.2-0.2-0.3-0.3-0.5c-0.3-0.5-0.6-1-1-1.5
		c0-0.1-0.1-0.2-0.2-0.2c-0.4-0.7-0.8-1.3-1.2-2c0-0.1-0.1-0.2-0.2-0.3c-0.4-0.7-0.8-1.3-1.1-2c0-0.1-0.1-0.2-0.1-0.3
		c-0.1-0.1-0.2-0.3-0.2-0.4c-0.3-0.6-0.7-1.3-1-1.9c-0.3-0.6-0.6-1.2-0.9-1.8c-0.6-1.2-1.1-2.4-1.6-3.6c-0.9-2.2-1.8-4.6-2.6-6.9
		c-0.1-0.4-0.3-0.8-0.4-1.2c-0.1-0.2-0.2-0.5-0.2-0.8c-0.1-0.4-0.3-0.9-0.4-1.3c-0.2-0.6-0.3-1.2-0.5-1.8c-0.1-0.4-0.2-0.9-0.3-1.3
		c-0.2-0.6-0.3-1.2-0.5-1.9c-0.2-0.7-0.3-1.5-0.5-2.2c5-2.7,9.8-5.6,14.4-8.7c0.8-0.5,1.5-1,2.3-1.5c0,0,0,0,0.1-0.1
		c1.5,11.6,5.8,22.4,12.1,31.7c0.4,0.6,0.8,1.2,1.3,1.8c0.7,0.9,1.3,1.8,2,2.6c0.7,0.8,1.4,1.7,2.1,2.5c0.4,0.4,0.7,0.8,1.1,1.2
		c0.7,0.8,1.5,1.6,2.2,2.3c2.5,2.5,5.1,4.8,7.9,6.9c0.7,0.5,1.4,1,2.1,1.5c0.9,0.6,1.8,1.2,2.7,1.8c1.4,0.9,2.8,1.7,4.2,2.5
		c1,0.5,1.9,1,2.9,1.5c3.4,1.7,7,3.1,10.8,4.3c1.1,0.3,2.1,0.6,3.2,0.9c6,1.5,12.2,2.4,18.7,2.4c38.4,0,70-29.3,73.6-66.8
		C418.5,187.8,425.1,192,431.9,195.7z"/>
	<path class="st0" d="M412.3,183.2c-3.6,37.5-35.2,66.8-73.6,66.8c-6.5,0-12.7-0.8-18.7-2.4c-1.1-0.3-2.2-0.6-3.2-0.9
		c-3.7-1.2-7.3-2.6-10.8-4.3c-1-0.5-2-1-2.9-1.5c-1.4-0.8-2.8-1.6-4.2-2.5c-0.9-0.6-1.8-1.2-2.7-1.8c-0.7-0.5-1.4-1-2.1-1.5
		c-2.8-2.1-5.4-4.4-7.9-6.9c-0.8-0.8-1.5-1.5-2.2-2.3c-0.4-0.4-0.8-0.8-1.1-1.2c-0.7-0.8-1.4-1.6-2.1-2.5c-0.7-0.9-1.4-1.7-2-2.6
		c-0.4-0.6-0.9-1.2-1.3-1.8c-6.3-9.3-10.6-20.1-12.1-31.7c0,0-0.1,0-0.1,0.1c0-0.1,0-0.1,0-0.2c3.9-2.7,7.7-5.5,11.3-8.5
		c0.4-0.3,0.8-0.6,1.2-1c4.5-3.7,8.7-7.6,12.8-11.8c0,0,0.1-0.1,0.1-0.1c1.3-1.3,2.5-2.6,3.7-3.9h0c0,0,0.1-0.1,0.1-0.1
		c0.5-0.5,0.9-1,1.3-1.5c0.3-0.3,0.6-0.6,0.8-1l2-2.3c4.2-4.8,8-9.9,11.6-15.2l4.6-7.1c0,0,0-0.1,0.1-0.1c6-9.7,11-20,15-30.9
		c1.8-4.9,3.4-9.8,4.8-14.9c0.3-1.2,0.6-2.3,0.9-3.5c2.3-9.4,3.9-19.2,4.6-29.1c0.2-3.1,0.4-6.1,0.4-9.2c0,0.9,0,1.8,0.1,2.7
		c0.5,13.5,2.5,26.5,5.8,39.1c5.7,21.2,15.3,40.9,28,58.1c0.8,1.2,1.7,2.3,2.6,3.4c1,1.3,2.1,2.6,3.2,3.9c1.4,1.7,2.8,3.4,4.3,5
		c0.9,1,1.7,1.9,2.6,2.9c3.2,3.5,6.6,6.8,10.1,10C402.1,175.3,407.1,179.4,412.3,183.2z"/>
	<path class="st0" d="M277.5,217.6c-6.3-9.2-10.6-20-12.2-31.7c0,0,0,0,0.1-0.1C267,197.5,271.2,208.3,277.5,217.6z"/>
	<path class="st2" d="M1135.5,197.6c-9.2,42-46.6,73.4-91.3,73.4c-0.8,0-1.6,0-2.4,0c-0.6,0-1.3,0-1.9-0.1c-0.7,0-1.4-0.1-2.1-0.1
		c0,0-0.1,0-0.1,0c-0.5,0-1-0.1-1.5-0.1c-0.3,0-0.6,0-1-0.1c-0.5,0-1.1-0.1-1.6-0.2c-0.1,0-0.1,0-0.2,0c-0.5-0.1-1-0.1-1.5-0.2
		c-0.6-0.1-1.1-0.2-1.6-0.2c-2.6-0.4-5.2-0.9-7.7-1.5c-0.6-0.1-1.2-0.3-1.8-0.5c0,0-0.1,0-0.1,0c-0.6-0.2-1.2-0.3-1.8-0.5
		c-0.3-0.1-0.6-0.2-0.8-0.2c-0.4-0.1-0.8-0.2-1.2-0.4c-0.6-0.2-1.2-0.4-1.8-0.6c-0.5-0.1-0.9-0.3-1.3-0.4c-0.2-0.1-0.4-0.1-0.5-0.2
		c-0.5-0.2-1-0.4-1.6-0.6c-1.3-0.5-2.5-1-3.8-1.5c-1.2-0.5-2.5-1.1-3.7-1.7c-1.2-0.6-2.4-1.2-3.6-1.8c-1.2-0.6-2.4-1.3-3.5-2
		c-0.7-0.4-1.4-0.8-2.1-1.2c-0.6-0.3-1.1-0.7-1.7-1.1c-0.3-0.2-0.6-0.4-0.9-0.6c-0.6-0.4-1.1-0.8-1.7-1.2c-1.2-0.9-2.4-1.7-3.6-2.7
		c-0.3-0.2-0.5-0.4-0.8-0.6c-0.5-0.4-0.9-0.7-1.4-1.1c-0.1-0.1-0.2-0.2-0.3-0.2c-0.5-0.5-1.1-0.9-1.7-1.4c0,0-0.1-0.1-0.1-0.1
		c-1.2-1.1-2.5-2.2-3.6-3.3c-1.2-1.2-2.4-2.3-3.5-3.6c-11.9-12.8-20.2-29-23.4-46.9c0,0,0,0,0,0c2.4-1.4,4.8-2.8,7.1-4.2
		c1.6-1,3.1-2,4.7-3c0.6-0.4,1.2-0.8,1.8-1.3c0.6-0.4,1.2-0.8,1.8-1.3c0.3-0.2,0.7-0.5,1-0.7c0.4-0.3,0.8-0.5,1.1-0.8
		c0.4-0.3,0.7-0.5,1.1-0.8c0,0,0,0,0,0c2,39.1,34.3,70.1,73.9,70.1c37.7,0,68.8-28.2,73.4-64.7
		C1123.7,191,1129.5,194.5,1135.5,197.6z"/>
	<path class="st2" d="M1390.2,271c45.4,0,83.3-32.4,91.7-75.3c-6-3.3-11.9-7-17.5-10.9c-2.9,38.2-34.8,68.2-73.8,68.2
		s-70.8-30.1-73.8-68.2c-5.9,4.2-12,8-18.4,11.4C1307.2,238.9,1344.9,271,1390.2,271z"/>
	<path class="st0" d="M650.7,153.3c7.4-9,14-18.8,19.5-29.1C664.7,134.6,658.2,144.4,650.7,153.3z"/>
	<path class="st0" d="M675.3,113.8c-1,2.3-2.2,4.7-3.3,7C673.2,118.4,674.3,116.1,675.3,113.8z"/>
	<path class="st0" d="M340.2,55c0.2-3.1,0.4-6.2,0.5-9.2C340.7,48.8,340.5,51.8,340.2,55c-0.6,9.8-2.2,19.6-4.5,29
		c-0.3,1.2-0.6,2.3-0.9,3.5c-1.4,5.1-3,10-4.8,14.9c-4,10.8-9,21.2-15,30.9c0,0,0,0.1-0.1,0.1c6-9.7,11-20,15-30.9
		c1.9-4.9,3.4-9.9,4.8-15c0.3-1.1,0.6-2.3,0.9-3.4C337.9,74.7,339.5,65,340.2,55z"/>
	<path class="st0" d="M374.7,145.6c-12.7-17.2-22.3-36.9-28-58.1c-3.4-12.5-5.4-25.6-5.8-39.1c0.5,13.5,2.5,26.5,5.9,39.1
		C352.4,108.8,362,128.4,374.7,145.6z"/>
	<path class="st0" d="M1052.1,104.4L1052.1,104.4c-0.1,0-0.2,0-0.3,0C1051.9,104.4,1052,104.4,1052.1,104.4z"/>
	<path class="st0" d="M1402.8,106c-6.8-17.3-10.9-36-11.9-55.5h-0.4c-0.9,19.5-5.1,38.1-11.9,55.5c3.9-0.6,8-1,12.1-1
		C1394.8,105,1398.8,105.4,1402.8,106z"/>
	<path class="st0" d="M334.8,87.5c-1.4,5.1-3,10-4.8,14.9c-4,10.8-9,21.2-15,30.9c0,0,0,0.1-0.1,0.1l-4.6,7.1
		c-3.6,5.3-7.5,10.3-11.6,15.2l-2,2.3c-0.3,0.3-0.6,0.6-0.8,1c-0.4,0.5-0.9,1-1.3,1.5c0,0-0.1,0.1-0.1,0.1h0
		c-1.2,1.3-2.4,2.6-3.7,3.9c0,0-0.1,0.1-0.1,0.1c-4.1,4.2-8.3,8.1-12.8,11.8c-0.4,0.3-0.8,0.7-1.2,1V87.5H334.8z"/>
	<path class="st0" d="M397.4,87.5v83.4c-3.5-3.2-6.8-6.5-10.1-10c-0.9-1-1.8-1.9-2.6-2.9c-1.5-1.7-2.9-3.3-4.3-5
		c-1.1-1.3-2.1-2.6-3.2-3.9c-0.9-1.1-1.7-2.3-2.6-3.4c-12.7-17.2-22.3-36.9-28-58.1H397.4z"/>
	<path class="st0" d="M686.6,79.7c-1.9,8.6-4.4,17-7.5,25.1c-0.2,0.6-0.4,1.2-0.7,1.7c-0.2,0.6-0.5,1.2-0.7,1.7
		c-0.8,1.9-1.6,3.7-2.4,5.6c-1,2.3-2.2,4.7-3.3,7c-0.6,1.2-1.2,2.3-1.8,3.5c-5.5,10.4-12,20.2-19.5,29.1c-0.8,1-1.7,2-2.5,3
		c-0.9,1-1.7,2-2.6,2.9c-0.5,0.6-1.1,1.2-1.6,1.8c-0.3,0.4-0.7,0.7-1,1.1c0,0-0.1,0.1-0.1,0.1c-0.1,0.1-0.2,0.2-0.3,0.3
		c-0.1,0.1-0.2,0.2-0.2,0.2c-0.6,0.7-1.3,1.3-1.9,2c-1,1-2,2.1-3.1,3.1V79.7H686.6z"/>
	<path class="st0" d="M758.1,79.7V180c-5.6-4.4-10.9-9.1-15.8-14.1c-1.1-1.1-2.2-2.2-3.3-3.4c-0.5-0.5-0.9-1-1.3-1.4
		c-21-22.4-36-50.4-42.8-81.4H758.1z"/>
	<path class="st0" d="M1052.1,104.4L1052.1,104.4c-0.1,0-0.2,0-0.3,0C1051.9,104.4,1052,104.4,1052.1,104.4z"/>
	<path class="st0" d="M1104.2,29.4v116.1h-29.6c-9.2-12.5-16.8-26.4-22.4-41.2c0,0-0.1,0-0.1,0c-6.6-17.3-10.5-36-11.3-55.4h-0.3
		c-0.8,20-4.9,39-11.8,56.7c0,0,0,0,0,0c-3.9,10-8.7,19.6-14.3,28.6c-0.4,0.6-0.8,1.3-1.2,1.9c-0.4,0.7-0.8,1.3-1.2,1.9
		c-1.1,1.7-2.3,3.4-3.5,5.1c-0.6,0.8-1.1,1.6-1.7,2.4h-23.2V29.4H1104.2z"/>
	<rect x="1318.2" y="32.9" class="st0" width="120.7" height="116.1"/>
	<path class="st0" d="M1118.1,187.3c-4.6,36.5-35.7,64.7-73.4,64.7c-39.6,0-71.9-31-73.9-70.1c11.3-8.5,21.6-18.4,30.5-29.4
		c0.6-0.7,1.2-1.5,1.8-2.2c0.6-0.8,1.2-1.6,1.8-2.4c0.6-0.8,1.2-1.6,1.8-2.4h0c0.6-0.8,1.1-1.6,1.7-2.4c1.2-1.7,2.3-3.4,3.5-5.1
		c0.4-0.6,0.8-1.3,1.2-1.9c0.4-0.6,0.8-1.3,1.2-1.9c5.6-9,10.4-18.6,14.3-28.6c0,0,0,0,0,0c6.9-17.7,11-36.7,11.8-56.7h0.3
		c0.8,19.4,4.7,38.1,11.3,55.4c-0.1,0-0.2,0-0.3,0c0.1,0,0.2,0,0.3,0v0c0,0,0.1,0,0.1,0c5.6,14.8,13.2,28.6,22.4,41.2
		C1086.6,161.9,1101.3,176,1118.1,187.3z"/>
	<path class="st0" d="M1001.3,152.6c-8.9,11-19.2,20.8-30.5,29.4c0,0,0,0,0,0C982.1,173.4,992.3,163.5,1001.3,152.6z"/>
	<path class="st0" d="M1008.4,143.2c-0.6,0.8-1.1,1.6-1.7,2.4h0C1007.3,144.8,1007.9,144,1008.4,143.2z"/>
	<path class="st0" d="M1052.1,104.4L1052.1,104.4c-0.1,0-0.2,0-0.3,0C1051.9,104.4,1052,104.4,1052.1,104.4z"/>
	<path class="st2" d="M690.6,42.1v2c-0.1,1.1-0.1,2.2-0.1,3.3c-0.3,11-1.7,21.8-4,32.3c-1.9,8.6-4.4,17-7.5,25.1
		c-0.2,0.6-0.4,1.2-0.7,1.7c-0.2,0.6-0.5,1.2-0.7,1.7c-0.8,1.9-1.6,3.7-2.4,5.6c-1,2.3-2.2,4.7-3.3,7c-0.6,1.2-1.2,2.3-1.8,3.5
		c-5.5,10.4-12,20.2-19.5,29.1c-0.8,1-1.7,2-2.5,3c-0.9,1-1.7,2-2.6,2.9c-0.5,0.6-1.1,1.2-1.6,1.8c-0.3,0.4-0.7,0.7-1,1.1
		c0,0-0.1,0.1-0.1,0.1c-0.1,0.1-0.2,0.2-0.3,0.3c-0.1,0.1-0.2,0.2-0.2,0.2c-0.6,0.7-1.3,1.3-1.9,2c-1,1-2,2.1-3.1,3.1
		c-5.1,5-10.6,9.7-16.3,13.9c0,0-0.1,0-0.1,0.1l0,0c-6.4,4.8-12.9,9-19.9,12.9c0,0-0.1,0-0.1,0c0,0,0,0,0,0
		c-2.6,1.4-5.2,2.8-7.9,4.1c-0.6,0.3-1.2,0.6-1.8,0.8c-0.1,0-0.2,0.1-0.3,0.1c-0.9,0.4-1.8,0.8-2.7,1.3c-0.1,0-0.1,0.1-0.2,0.1
		c-0.1,0-0.1,0.1-0.2,0.1c0,0-0.1,0-0.1,0c-0.9,0.4-1.9,0.8-2.8,1.2c-0.6,0.3-1.2,0.5-1.8,0.8c-1.9,0.8-3.7,1.5-5.6,2.3
		c0,0-0.1,0-0.1,0c-5.9,2.3-12.1,4.2-18.3,5.8c-6.5,1.7-13.2,3-20,3.9h0c0,0,0,0,0,0c-6.8,0.9-13.7,1.4-20.7,1.5c0,0,0,0,0,0H513
		c0,0,0,0,0,0c-0.8,0-1.6,0-2.4-0.1c-0.8,0-1.5,0-2.3-0.1c-0.1,0-0.2,0-0.2,0c-0.8,0-1.6-0.1-2.5-0.1c-0.8,0-1.6-0.1-2.5-0.2
		c-0.8-0.1-1.6-0.1-2.4-0.2c0,0,0,0,0,0c-1.6-0.1-3.3-0.3-4.9-0.5c-0.8-0.1-1.6-0.2-2.4-0.3c0,0-0.1,0-0.1,0
		c-0.8-0.1-1.6-0.2-2.4-0.3c-0.8-0.1-1.6-0.2-2.3-0.4c-4.6-0.7-9.2-1.7-13.6-2.7c0,0-0.1,0-0.1,0c-2.8-0.7-5.5-1.4-8.2-2.2
		c-0.9-0.3-1.8-0.5-2.7-0.8c0,0,0,0,0,0c-1.8-0.6-3.6-1.2-5.4-1.8c0,0,0,0,0,0c-1-0.4-2.1-0.7-3.1-1.1c-0.8-0.3-1.5-0.5-2.2-0.8
		c0,0-0.1,0-0.1,0c-7.3-2.7-14.3-6-21.1-9.7c-6.8-3.8-13.4-7.9-19.6-12.5c-5.2-3.8-10.2-7.9-14.9-12.3c-3.5-3.2-6.8-6.5-10.1-10
		c-0.9-1-1.8-1.9-2.6-2.9c-1.5-1.7-2.9-3.3-4.3-5c-1.1-1.3-2.1-2.6-3.2-3.9c-0.9-1.1-1.7-2.3-2.6-3.4c-0.4-0.5-0.8-1.1-1.2-1.6
		c-12.1-16.9-21.3-35.9-26.9-56.5c-3.2-11.7-5.1-23.9-5.7-36.5c0-0.8-0.1-1.7-0.1-2.5c0-0.9-0.1-1.8-0.1-2.7v-6.8
		c0-2.7,0.1-5.3,0.3-8c0-0.5,0.1-1,0.1-1.4c0-0.2,0-0.5,0-0.7c0.1-1.3,0.2-2.6,0.3-3.8c0.1-0.7,0.1-1.3,0.2-2
		c0.6-5.7,1.5-11.4,2.7-17c0.4-2,0.9-4,1.4-6h18c-2.5,9.5-4.1,19.4-4.8,29.5c-0.1,0.8-0.1,1.6-0.1,2.4c0,0.8-0.1,1.7-0.1,2.5
		c0,0.8-0.1,1.7-0.1,2.5c0,0.9,0,1.7,0,2.6c0,0.8,0,1.7,0,2.5c0,1.1,0,2.1,0.1,3.2c0,0.6,0,1.2,0.1,1.9c0.1,2.5,0.3,5,0.5,7.5
		c0.1,1.1,0.2,2.3,0.4,3.4c0.1,0.5,0.1,0.9,0.2,1.4c0.1,0.6,0.2,1.2,0.2,1.9c0,0.4,0.1,0.7,0.2,1.1c0.1,0.4,0.1,0.9,0.2,1.3
		c0.1,0.5,0.2,1,0.2,1.6c0.1,0.6,0.2,1.3,0.3,1.9c0.2,1.3,0.5,2.6,0.7,3.8c0.1,0.6,0.2,1.2,0.4,1.8c0.2,0.7,0.3,1.3,0.5,2
		c0.3,1.2,0.6,2.5,0.9,3.7c0.2,0.6,0.3,1.2,0.5,1.9c0.3,1.2,0.7,2.5,1,3.7c0,0,0,0,0,0c0.3,1.2,0.7,2.4,1.1,3.6
		c6.6,20.4,17.3,39,31.1,54.7c28.5,32.4,70.2,52.9,116.7,52.9c28.9,0,56-7.9,79.1-21.6c0.5-0.3,1.1-0.6,1.6-1c1.1-0.6,2.1-1.3,3.2-2
		c0.5-0.3,1-0.7,1.6-1c0.5-0.3,1-0.7,1.6-1c1-0.7,2.1-1.4,3.1-2.1c1-0.7,2-1.4,3-2.2c0.5-0.3,1-0.7,1.5-1.1c0.5-0.4,1-0.8,1.5-1.2
		c0.3-0.2,0.6-0.5,0.9-0.7c0,0,0.1,0,0.1-0.1c0.8-0.6,1.6-1.2,2.3-1.9c5.6-4.6,10.8-9.6,15.6-15c2.8-3.1,5.5-6.4,8.1-9.7
		c12.4-16,21.7-34.6,27-54.8c3.4-12.8,5.2-26.2,5.2-40.1c0-3.4-0.1-6.8-0.3-10.1c-0.7-10.1-2.3-19.9-4.8-29.4h21c0.5,2,1,4,1.4,6
		c1.2,5.6,2.1,11.3,2.7,17c0.2,2.1,0.4,4.2,0.5,6.4C690.4,33.7,690.6,37.9,690.6,42.1z"/>
	<path class="st2" d="M13.8,315.9c4.2-0.8,8.4-1.7,12.5-2.8c1.4-0.4,2.9-0.8,4.3-1.3c6.1-1.9,12-4.2,17.7-7c0.9-0.4,1.8-0.8,2.7-1.3
		c6.9-3.5,13.4-7.5,19.6-12c0.4-0.3,0.8-0.6,1.2-0.9c4.8-3.6,9.3-7.5,13.6-11.7c1.6-1.6,3.1-3.2,4.7-4.8
		c11.7-12.6,21-27.4,27.3-43.7c2.3-6,4.2-12.2,5.7-18.6c-2.6-0.7-5.2-1.4-7.8-2.1c-4-1.2-7.9-2.5-11.7-4c-1.4,6-3.2,11.8-5.4,17.4
		l0,0c-5.3,13.3-13,25.3-22.5,35.7c-3,3.3-6.2,6.4-9.5,9.3c-4.9,4.3-10.2,8.2-15.8,11.6c-1.2,0.8-2.5,1.5-3.8,2.2
		c-6,3.4-12.3,6.2-18.8,8.5c-2.2,0.8-4.5,1.5-6.8,2.1c-3.3,0.9-6.6,1.7-10,2.4c-3.3,0.6-6.6,1.1-10,1.4c-0.3,0-0.7,0.1-1,0.1v11
		v10.1c0.3,0,0.6,0,0.9-0.1C5.3,317.2,9.6,316.6,13.8,315.9z"/>
	<path class="st0" d="M11,295c3.4-0.6,6.8-1.4,10-2.4c2.3-0.6,4.6-1.3,6.8-2.1c6.6-2.3,12.9-5.1,18.8-8.5c1.3-0.7,2.6-1.5,3.8-2.2
		c5.6-3.4,10.9-7.3,15.8-11.6c3.3-2.9,6.5-6,9.5-9.3c9.5-10.4,17.2-22.4,22.5-35.7l0,0c2.2-5.6,4.1-11.4,5.4-17.4
		c-6.3-2.4-12.5-5.2-18.5-8.3c-1.4-0.7-2.9-1.5-4.3-2.3c-0.5,2.8-1.2,5.7-2,8.4c-4.7,16.2-13.7,30.7-25.7,42l0,0
		c-4.7,4.5-9.9,8.4-15.5,11.8c-2.7,1.7-5.6,3.2-8.5,4.6l0,0c-5.6,2.7-11.6,4.8-17.8,6.3c-1,0.2-1.9,0.5-2.9,0.7
		c-2.5,0.5-5,1-7.5,1.3c-0.4,0-0.8,0.1-1.1,0.1v19v7.1c0.3,0,0.7,0,1-0.1C4.4,296.1,7.7,295.6,11,295z"/>
	<path class="st0" d="M358.7,39.5c0,85.9,69.6,155.5,155.5,155.5s155.5-69.6,155.5-155.5c0-13.6-1.8-26.9-5.1-39.5h-18.3
		c3.5,12.1,5.3,24.8,5.3,38c0,75.7-61.3,137-137,137s-137-61.3-137-137c0-13.2,1.9-25.9,5.3-38h-19.3
		C360.4,12.6,358.7,25.9,358.7,39.5z"/>
	<path class="st2" d="M1040.5,39.1v3c0,2.3,0,4.6-0.1,6.9c-0.7,20-4.9,39.1-11.8,56.8c-3.9,10-8.7,19.5-14.2,28.5
		c-0.4,0.6-0.8,1.3-1.2,1.9c-0.4,0.7-0.8,1.3-1.2,1.9c-1.1,1.7-2.3,3.4-3.5,5.1c-0.6,0.8-1.1,1.6-1.7,2.4h0
		c-0.6,0.8-1.2,1.6-1.8,2.4c-0.6,0.8-1.2,1.6-1.8,2.4c-0.6,0.7-1.2,1.5-1.8,2.2c-8.9,11-19.2,20.8-30.5,29.4c0,0-0.1,0-0.1,0.1
		c-0.3,0.2-0.7,0.5-1,0.7c-0.4,0.3-0.8,0.6-1.1,0.8c-0.3,0.2-0.7,0.5-1,0.7c-0.6,0.4-1.2,0.9-1.8,1.3c-0.6,0.4-1.2,0.8-1.8,1.3
		c-1.5,1-3.1,2.1-4.7,3c-2.3,1.5-4.7,2.9-7.1,4.3c0,0-0.1,0-0.1,0.1c-7.3,4.1-15,7.8-22.9,10.9c-6.2,2.4-12.5,4.5-19,6.2
		c-6.6,1.8-13.4,3.1-20.3,4.1c0,0-0.1,0-0.1,0c-6.8,0.9-13.7,1.5-20.7,1.6h-3.5c-1.6,0-3-0.1-4.6-0.1h-0.1
		c-6.7-0.1-13.1-0.7-19.6-1.6c0,0-0.1,0-0.1,0c-5.1-0.7-10.1-1.6-15.1-2.8c0,0-0.1,0-0.1,0c-2.1-0.5-4.2-1-6.3-1.6
		c-0.2,0-0.3-0.1-0.4-0.1c-0.5-0.2-1.1-0.3-1.6-0.5c-2.1-0.6-4.1-1.2-6.2-1.9c-0.2-0.1-0.5-0.2-0.7-0.2c-0.2-0.1-0.4-0.1-0.6-0.2
		c-0.1,0-0.2-0.1-0.3-0.1c-1-0.3-2-0.7-3-1c0,0-0.1,0-0.1,0c-1.9-0.7-3.7-1.4-5.6-2.1c-0.7-0.3-1.4-0.6-2.1-0.8
		c-4.1-1.7-8.1-3.6-12.1-5.5c-0.7-0.3-1.3-0.7-2-1c-5.9-3.1-11.6-6.5-17.1-10.2c-3.4-2.3-6.6-4.7-9.8-7.2c-5.6-4.4-10.9-9-15.8-14
		c-1.1-1.1-2.2-2.2-3.3-3.4c-0.5-0.5-0.9-1-1.3-1.4c-20.9-22.5-36-50.4-42.8-81.4c-0.6-2.6-1.1-5.2-1.5-7.8c0,0,0,0,0,0
		c-0.5-2.7-0.9-5.4-1.2-8.1c-0.7-5.4-1.1-10.9-1.3-16.5c-0.1-1.1-0.1-2.2-0.1-3.3v-2c0-0.9,0-1.8,0-2.8c0-0.5,0-1.1,0-1.6
		c0-0.7,0-1.5,0.1-2.2c0-0.7,0.1-1.4,0.1-2.1c0.1-1.3,0.1-2.5,0.2-3.8c0-0.6,0.1-1.2,0.1-1.8c0.1-0.8,0.1-1.5,0.2-2.3
		c0.1-0.8,0.1-1.6,0.2-2.4c0.1-0.9,0.2-1.8,0.3-2.7c0.1-0.6,0.1-1.3,0.2-1.9c0.1-0.4,0.1-0.9,0.2-1.3c0.1-0.7,0.2-1.4,0.3-2.1
		c0.1-0.9,0.3-1.8,0.4-2.6c0.4-2.1,0.8-4.2,1.2-6.2c0.2-1,0.4-2,0.7-3c0.1-0.5,0.2-1,0.4-1.5c0.1-0.5,0.2-1,0.4-1.5h18
		c-2.5,9.5-4.1,19.4-4.8,29.5c-0.1,0.8-0.1,1.6-0.1,2.4c0,0.8-0.1,1.7-0.1,2.5c0,0.8-0.1,1.7-0.1,2.5c0,0.9,0,1.7,0,2.6
		c0,0.8,0,1.7,0,2.5c0,1.1,0,2.1,0.1,3.2c0,0.6,0,1.2,0.1,1.9c0.1,2.5,0.3,5,0.5,7.5c0.1,1.1,0.2,2.3,0.4,3.4
		c0.1,0.5,0.1,0.9,0.2,1.4c0.1,0.6,0.2,1.2,0.2,1.9c0,0.4,0.1,0.7,0.2,1.1c0.1,0.4,0.1,0.9,0.2,1.3c0.1,0.5,0.2,1,0.2,1.6
		c0.1,0.6,0.2,1.3,0.3,1.9c0.2,1.3,0.5,2.6,0.7,3.8c0.1,0.6,0.2,1.2,0.4,1.8c0.2,0.7,0.3,1.3,0.5,2c0.3,1.2,0.6,2.5,0.9,3.7
		c0.1,0.4,0.2,0.9,0.3,1.3c0,0.2,0.1,0.4,0.1,0.5c0.3,1.2,0.7,2.5,1,3.7c0.2,0.6,0.4,1.2,0.6,1.8c0.2,0.6,0.4,1.2,0.6,1.8
		c0.4,1.2,0.8,2.4,1.2,3.6c0.2,0.6,0.4,1.2,0.6,1.8c0.2,0.6,0.4,1.2,0.7,1.8c0.2,0.6,0.4,1.2,0.7,1.8c0.2,0.6,0.5,1.2,0.7,1.8
		c8.5,21,21.6,39.7,37.9,55c27.8,26,65,41.8,106,41.8c28.9,0,56-7.9,79.1-21.6c0.5-0.3,1.1-0.6,1.6-1c1.1-0.6,2.1-1.3,3.2-2
		c0.5-0.3,1-0.7,1.6-1c0.5-0.3,1-0.7,1.6-1c1-0.7,2.1-1.4,3.1-2.1c1-0.7,2-1.4,3-2.2c0.5-0.3,1-0.7,1.5-1.1c0.5-0.4,1-0.8,1.5-1.2
		c0.3-0.2,0.6-0.5,0.9-0.7c0,0,0.1,0,0.1-0.1c0.8-0.6,1.6-1.2,2.3-1.9c5.6-4.6,10.8-9.6,15.6-15c1.5-1.6,2.9-3.2,4.3-4.9
		c22.5-27,36.1-61.7,36.1-99.7c0-3.4-0.1-6.8-0.3-10.1v-0.1c-0.7-10.1-2.3-19.9-4.8-29.3h21c0.2,1,0.5,2,0.7,3
		c1.3,5.6,2.3,11.3,3,17c0.4,3.1,0.6,6.2,0.9,9.3c0,0,0,0,0,0.1C1040.3,32.7,1040.4,35.9,1040.5,39.1z"/>
	<path class="st0" d="M1390.7,253c38.9,0,70.8-30.1,73.8-68.2c-27.5-19.6-49.1-46.9-61.7-78.8c-3.9-0.6-8-1-12.1-1s-8.1,0.4-12.1,1
		c-12.5,31.9-34.2,59.2-61.7,78.8C1319.9,222.9,1351.8,253,1390.7,253z"/>
	<path class="st2" d="M1733.3,99.6v-7.1c-0.8,2.5-1.6,5-2.4,7.4C1731.6,99.8,1732.5,99.7,1733.3,99.6z"/>
	<path class="st2" d="M1669.4,183c-6,4.4-12.3,8.5-18.8,12.1c8,39.9,41.5,70.6,82.7,74.5v-23.2C1700.1,242.2,1673.8,216,1669.4,183z
		"/>
	<path class="st2" d="M1042.1,20c-0.8,6.2-1.2,12.6-1.3,19c0,1,0,2,0,3c0,2.3,0.1,4.6,0.1,6.9c0.8,19.5,4.7,38.1,11.3,55.4
		c13,34,36.2,62.9,65.9,82.9c5.6,3.8,11.4,7.2,17.4,10.3c6.2,3.2,12.7,6.1,19.3,8.5c6.5,2.4,13.2,4.5,20,6.1
		c5.2,1.2,10.4,2.2,15.7,3c6.5,0.9,13.1,1.5,19.8,1.7c1.8,0.1,3.6,0.1,5.3,0.1c1.5,0,2.9,0,4.4-0.1c7-0.2,14-0.8,20.8-1.7
		c6.3-0.9,12.5-2.1,18.5-3.7c6.4-1.6,12.7-3.7,18.8-6c7-2.7,13.9-5.8,20.4-9.4c6.4-3.4,12.5-7.2,18.4-11.4
		c27.5-19.6,49.1-46.9,61.7-78.8c6.8-17.3,10.9-36,11.9-55.5c0.1-2.8,0.2-5.7,0.2-8.5c0-1,0-2,0-3c-0.1-6.4-0.6-12.8-1.3-19
		c-0.7-5.7-1.7-11.4-3-17c-0.2-1-0.5-2-0.7-3.1h-20c3.3,12.6,5.1,25.9,5.1,39.5c0,85.9-69.6,155.5-155.5,155.5
		s-155.5-69.6-155.5-155.5c0-13.6,1.8-26.9,5.1-39.5h-19c-0.3,1-0.5,2.1-0.7,3.1C1043.8,8.6,1042.8,14.3,1042.1,20z"/>
	<path class="st0" d="M1669.4,183c4.5,33.1,30.7,59.2,63.9,63.4V99.6c-0.8,0.1-1.6,0.2-2.4,0.3
		C1719.1,133.5,1697.4,162.3,1669.4,183z"/>
	<path class="st0" d="M708.7,39.5c0,85.9,69.6,155.5,155.5,155.5s155.5-69.6,155.5-155.5c0-13.6-1.8-26.9-5.1-39.5h-18.3
		c3.5,12.1,5.3,24.8,5.3,38c0,75.7-61.3,137-137,137s-137-61.3-137-137c0-13.2,1.9-25.9,5.3-38h-19.3
		C710.4,12.6,708.7,25.9,708.7,39.5z"/>
	<path class="st2" d="M1392.1,20c-0.8,6.2-1.2,12.6-1.3,19c0,1,0,2,0,3c0,2.9,0.1,5.7,0.2,8.5c0.9,19.5,5.1,38.1,11.9,55.5
		c12.5,31.9,34.2,59.2,61.7,78.8c5.6,4,11.4,7.6,17.5,10.9c7.1,3.9,14.6,7.3,22.3,10.2c6.4,2.4,13,4.4,19.7,6.1
		c5.8,1.4,11.6,2.5,17.6,3.4c6.5,0.9,13.1,1.4,19.8,1.6c1.4,0,2.9,0.1,4.4,0.1c2,0,4,0,6.1-0.1c7-0.2,14-0.9,20.8-1.9
		c7.1-1.1,14-2.6,20.8-4.5c7-2,13.8-4.4,20.4-7.2c5.8-2.4,11.3-5.2,16.8-8.2c6.5-3.6,12.8-7.7,18.8-12.1
		c28.1-20.7,49.7-49.5,61.5-83c0.9-2.4,1.7-4.9,2.4-7.4V0h-17.6c3.3,12.6,5.1,25.9,5.1,39.5c0,85.9-69.6,155.5-155.5,155.5
		S1410,125.4,1410,39.5c0-13.6,1.8-26.9,5.1-39.5h-19c-0.3,1-0.5,2-0.7,3.1C1393.8,8.6,1392.8,14.3,1392.1,20z"/>
	<path class="st0" d="M1409.7,39.5c0,85.9,69.6,155.5,155.5,155.5s155.5-69.6,155.5-155.5c0-13.6-1.8-26.9-5.1-39.5h-19.2
		c4.1,12.9,6.2,26.7,6.2,41c0,75.7-61.3,137-137,137s-137-61.3-137-137c0-14.3,2.2-28.1,6.2-41h-20.2
		C1411.4,12.6,1409.7,25.9,1409.7,39.5z"/>
	<path class="st0" d="M1059.7,39.5c0,85.9,69.6,155.5,155.5,155.5s155.5-69.6,155.5-155.5c0-13.6-1.8-26.9-5.1-39.5h-18.3
		c3.5,12.1,5.3,24.8,5.3,38c0,75.7-61.3,137-137,137s-137-61.3-137-137c0-13.2,1.9-25.9,5.3-38h-19.3
		C1061.4,12.6,1059.7,25.9,1059.7,39.5z"/>
	<path class="st2" d="M0,98.5v3.8c0.5,0,0.9,0.1,1.4,0.1C0.9,101.1,0.4,99.8,0,98.5z"/>
	<path class="st2" d="M8.6,269c1-0.2,1.9-0.4,2.9-0.7c6.2-1.5,12.1-3.6,17.8-6.3l0,0c2.9-1.4,5.7-2.9,8.5-4.6
		c5.6-3.4,10.8-7.4,15.5-11.8l0,0c12-11.3,21-25.7,25.7-42c0.8-2.8,1.5-5.6,2-8.4c-4.7-2.6-9.3-5.5-13.8-8.5
		c-0.1-0.1-0.2-0.1-0.3-0.2c0,0.2-0.1,0.4-0.1,0.6l0,0C63.7,207.8,52,225.6,35.6,237c-6.2,4.2-13,7.6-20.3,9.8
		c-4.5,1.4-9.2,2.3-14.1,2.8c-0.4,0-0.8,0.1-1.2,0.1v1.5v17v2.1c0.4,0,0.8-0.1,1.1-0.1C3.7,269.9,6.2,269.5,8.6,269z"/>
	<path class="st0" d="M15.3,246.8c7.3-2.2,14.2-5.6,20.3-9.8c16.5-11.3,28.1-29.2,31.2-49.9l0,0c0-0.2,0.1-0.4,0.1-0.6
		c-4.5-3-8.8-6.3-12.9-9.7c-4.6-3.9-9.1-8-13.3-12.3c-16.8-17.2-30.2-37.8-38.8-60.7c-0.2-0.4-0.3-0.9-0.5-1.4
		c-0.5-0.1-0.9-0.1-1.4-0.1v128.2v19.2c0.4,0,0.8-0.1,1.2-0.1C6.1,249.1,10.8,248.2,15.3,246.8z"/>
	<path class="st2" d="M340.7,37.5v8.2c0,3.1-0.2,6.1-0.4,9.2c-0.7,9.9-2.3,19.7-4.6,29.1c-0.3,1.2-0.6,2.3-0.9,3.5
		c-1.4,5.1-3,10-4.8,14.9c-4,10.8-9,21.2-15,30.9c0,0,0,0.1-0.1,0.1l-4.6,7.1c-3.6,5.3-7.5,10.3-11.6,15.2l-2,2.3
		c-0.3,0.3-0.6,0.6-0.8,1c-0.4,0.5-0.9,1-1.3,1.5c0,0-0.1,0.1-0.1,0.1h0c-1.2,1.3-2.4,2.6-3.7,3.9c0,0-0.1,0.1-0.1,0.1
		c-4.1,4.1-8.2,8-12.7,11.7c-0.4,0.3-0.8,0.7-1.3,1c-3.6,3-7.4,5.8-11.2,8.5c-0.8,0.5-1.6,1.1-2.4,1.6c-4.7,3.1-9.5,6-14.4,8.7
		c-1.5,0.8-2.9,1.6-4.4,2.3c-5.4,2.7-11,5.1-16.7,7.3c-4.4,1.7-9,3.2-13.6,4.5c-1.2,0.4-2.4,0.7-3.6,1c-6.2,1.7-12.7,3-19.2,3.9
		c-4.3,0.6-8.7,1.1-13.1,1.4c-2.5,0.2-5,0.3-7.5,0.4c-1.6,0.1-3.1,0.1-4.7,0.1h-3.7c-4.3-0.1-8.6-0.3-12.8-0.7
		c-2.3-0.2-4.6-0.5-6.9-0.8c-6.5-0.8-12.9-2.1-19.1-3.6c-0.5-0.1-1-0.2-1.5-0.3c0,0-0.1,0-0.1,0c-1.4-0.3-2.8-0.7-4.2-1.1
		c0,0-0.1,0-0.1,0c-0.6-0.2-1.2-0.3-1.8-0.5c-4-1.2-7.9-2.5-11.7-4c-6.4-2.4-12.5-5.2-18.5-8.3c-1.5-0.8-2.9-1.5-4.3-2.3
		c-4.8-2.6-9.4-5.5-13.8-8.5c-0.1,0-0.2-0.1-0.3-0.2c-4.4-3-8.8-6.3-12.9-9.7c-4.6-3.9-9.1-8-13.3-12.3
		c-16.8-17.1-30.2-37.8-38.8-60.7c-0.2-0.5-0.3-0.9-0.5-1.4c-0.5-1.3-1-2.6-1.4-3.9V0h15.8c-2.7,10.3-4.4,21.2-4.9,32.2
		c-0.1,2.4-0.2,4.9-0.2,7.3c0,85.9,69.6,155.5,155.5,155.5c1.4,0,2.8,0,4.2-0.1c1.1,0,2.3-0.1,3.4-0.1c1.7-0.1,3.4-0.2,5.1-0.3
		c0.9-0.1,1.9-0.2,2.8-0.2c0.1,0,0.3,0,0.4,0c1.1-0.1,2.2-0.2,3.3-0.4c4.1-0.5,8.1-1.2,12-2c0.6-0.1,1.3-0.3,1.9-0.4
		c9.5-2,18.6-5,27.3-8.7c1.2-0.5,2.3-1,3.5-1.5c7.1-3.2,14-7,20.5-11.2c1-0.6,1.9-1.3,2.9-1.9c0.5-0.4,1.1-0.7,1.6-1.1
		c0.5-0.4,1-0.7,1.4-1c0.5-0.4,1-0.7,1.5-1.1c1-0.7,2-1.5,3-2.3c1-0.8,2-1.5,3-2.3c0.5-0.4,1-0.8,1.5-1.2c0.5-0.4,1-0.8,1.5-1.2
		c0.5-0.4,0.9-0.8,1.4-1.2c0.5-0.4,0.9-0.8,1.4-1.2c0.5-0.4,0.9-0.8,1.4-1.3c0.5-0.4,0.9-0.8,1.4-1.3c0.5-0.4,0.9-0.9,1.4-1.3
		c0.5-0.4,0.9-0.9,1.3-1.3c0.5-0.4,0.9-0.9,1.3-1.3c0.5-0.5,1-1.1,1.6-1.6c0.5-0.5,0.9-1,1.4-1.5c0.6-0.6,1.1-1.2,1.7-1.8
		c0.5-0.5,1-1.1,1.5-1.7c0.5-0.6,1-1.1,1.5-1.7c0.5-0.6,1-1.2,1.5-1.8c0.5-0.6,0.9-1.1,1.4-1.7c0.5-0.6,0.9-1.1,1.4-1.7
		c2.9-3.7,5.6-7.5,8.2-11.4c0.3-0.5,0.7-1,1-1.5c1.9-3,3.7-6.1,5.4-9.2c0.2-0.4,0.5-0.9,0.7-1.3c1-1.8,1.9-3.6,2.8-5.5
		c0.3-0.6,0.6-1.3,0.9-1.9c0.3-0.7,0.6-1.4,0.9-2c0.1-0.2,0.2-0.5,0.3-0.8c0.5-1.2,1-2.3,1.5-3.5c1.4-3.5,2.8-7.1,3.9-10.8
		c0.6-1.9,1.2-3.8,1.7-5.7c0.3-1,0.5-1.9,0.8-2.9c0.2-0.8,0.4-1.6,0.6-2.4c0.1-0.3,0.2-0.7,0.2-1c0.2-0.8,0.4-1.6,0.6-2.5
		c0.2-1,0.4-2,0.6-3c0.2-1,0.4-2,0.6-3c0.2-1,0.3-2,0.5-3c0.1-1,0.3-1.9,0.4-2.9c0-0.1,0-0.1,0-0.2c0.1-1,0.3-2,0.4-3
		c0.1-0.9,0.2-1.8,0.3-2.7c0.1-1.2,0.2-2.3,0.3-3.5c0.1-0.8,0.1-1.6,0.2-2.4c0-0.3,0-0.6,0-0.9c0.1-0.9,0.1-1.8,0.1-2.7
		c0-0.1,0-0.2,0-0.4c0-0.9,0.1-1.7,0.1-2.6c0-0.2,0-0.3,0-0.5c0-1,0-1.9,0-2.9c0-1.9,0-3.9-0.1-5.8c0-0.6-0.1-1.2-0.1-1.8
		c0-0.8-0.1-1.6-0.1-2.4c0,0,0-0.1,0-0.1c-0.1-1.7-0.2-3.3-0.4-4.9c0,0,0-0.1,0-0.1c-0.1-1.4-0.3-2.8-0.5-4.2c0-0.3-0.1-0.6-0.1-0.8
		c-0.1-0.8-0.2-1.6-0.3-2.3c0,0,0,0,0,0c-0.4-2.5-0.8-4.9-1.3-7.3c-0.1-0.8-0.3-1.6-0.5-2.4c-0.3-1.6-0.7-3.2-1.1-4.8
		c-0.2-0.8-0.4-1.6-0.6-2.4h19l0.4,1.5c0.4,1.5,0.7,3.1,1,4.6c0.2,0.7,0.3,1.4,0.4,2.1c0.1,0.7,0.3,1.4,0.4,2.1
		c0.3,1.4,0.5,2.8,0.7,4.2l0,0.2l1.1,8.3c0.3,2.2,0.5,4.3,0.6,6.5C340.5,32.2,340.7,34.8,340.7,37.5z"/>
	<path class="st0" d="M10.7,39.5c0,85.9,69.6,155.5,155.5,155.5s155.5-69.6,155.5-155.5c0-13.6-1.8-26.9-5.1-39.5h-20.3
		c3.5,12.1,5.3,24.8,5.3,38c0,75.7-61.3,137-137,137s-137-61.3-137-137c0-13.2,1.9-25.9,5.3-38H15.7C12.4,12.6,10.7,25.9,10.7,39.5z
		"/>
	<path class="st2" d="M1428.7,41c0,75.7,61.3,137,137,137s137-61.3,137-137c0-14.3-2.2-28.1-6.2-41h-20.6
		c4.4,12.3,6.8,25.6,6.8,39.5c0,64.9-52.6,117.5-117.5,117.5s-117.5-52.6-117.5-117.5c0-13.9,2.4-27.2,6.8-39.5h-19.6
		C1430.9,12.9,1428.7,26.7,1428.7,41z"/>
	<path class="st2" d="M1078.7,38c0,75.7,61.3,137,137,137s137-61.3,137-137c0-13.2-1.9-25.9-5.3-38h-20.5
		c4.4,12.3,6.8,25.6,6.8,39.5c0,64.9-52.6,117.5-117.5,117.5s-117.5-52.6-117.5-117.5c0-13.9,2.4-27.2,6.8-39.5H1084
		C1080.5,12.1,1078.7,24.8,1078.7,38z"/>
	<path class="st2" d="M727.7,38c0,75.7,61.3,137,137,137s137-61.3,137-137c0-13.2-1.9-25.9-5.3-38h-19.5c4.4,12.3,6.8,25.6,6.8,39.5
		c0,64.9-52.6,117.5-117.5,117.5S748.7,104.4,748.7,39.5c0-13.9,2.4-27.2,6.8-39.5H733C729.5,12.1,727.7,24.8,727.7,38z"/>
	<path class="st2" d="M377.7,38c0,75.7,61.3,137,137,137s137-61.3,137-137c0-13.2-1.9-25.9-5.3-38h-21.5c4.4,12.3,6.8,25.6,6.8,39.5
		c0,64.9-52.6,117.5-117.5,117.5S396.7,104.4,396.7,39.5c0-13.9,2.4-27.2,6.8-39.5H383C379.5,12.1,377.7,24.8,377.7,38z"/>
	<path class="st2" d="M27.7,38c0,75.7,61.3,137,137,137s137-61.3,137-137c0-13.2-1.9-25.9-5.3-38h-21.5c4.4,12.3,6.8,25.6,6.8,39.5
		c0,64.9-52.6,117.5-117.5,117.5S46.7,104.4,46.7,39.5c0-13.9,2.4-27.2,6.8-39.5H33C29.5,12.1,27.7,24.8,27.7,38z"/>
	<path class="st0" d="M46.7,39.5c0,64.9,52.6,117.5,117.5,117.5s117.5-52.6,117.5-117.5c0-13.9-2.4-27.2-6.8-39.5h-28.4
		c7.2,13.2,11.2,28.4,11.2,44.5c0,51.6-41.9,93.5-93.5,93.5S70.7,96.1,70.7,44.5c0-16.1,4.1-31.3,11.2-44.5H53.5
		C49.1,12.3,46.7,25.6,46.7,39.5z"/>
	<path class="st0" d="M396.7,39.5c0,64.9,52.6,117.5,117.5,117.5s117.5-52.6,117.5-117.5c0-13.9-2.4-27.2-6.8-39.5h-28.4
		c7.2,13.2,11.2,28.4,11.2,44.5c0,51.6-41.9,93.5-93.5,93.5s-93.5-41.9-93.5-93.5c0-16.1,4.1-31.3,11.2-44.5h-28.4
		C399.1,12.3,396.7,25.6,396.7,39.5z"/>
	<path class="st0" d="M748.7,39.5c0,64.9,52.6,117.5,117.5,117.5s117.5-52.6,117.5-117.5c0-13.9-2.4-27.2-6.8-39.5h-30.4
		c7.2,13.2,11.2,28.4,11.2,44.5c0,51.6-41.9,93.5-93.5,93.5s-93.5-41.9-93.5-93.5c0-16.1,4.1-31.3,11.2-44.5h-26.4
		C751.1,12.3,748.7,25.6,748.7,39.5z"/>
	<path class="st0" d="M1098.7,39.5c0,64.9,52.6,117.5,117.5,117.5s117.5-52.6,117.5-117.5c0-13.9-2.4-27.2-6.8-39.5h-29.4
		c7.2,13.2,11.2,28.4,11.2,44.5c0,51.6-41.9,93.5-93.5,93.5s-93.5-41.9-93.5-93.5c0-16.1,4.1-31.3,11.2-44.5h-27.4
		C1101.1,12.3,1098.7,25.6,1098.7,39.5z"/>
	<path class="st0" d="M1447.7,39.5c0,64.9,52.6,117.5,117.5,117.5s117.5-52.6,117.5-117.5c0-13.9-2.4-27.2-6.8-39.5h-28.4
		c7.2,13.2,11.2,28.4,11.2,44.5c0,51.6-41.9,93.5-93.5,93.5s-93.5-41.9-93.5-93.5c0-16.1,4.1-31.3,11.2-44.5h-28.4
		C1450.1,12.3,1447.7,25.6,1447.7,39.5z"/>
	<path class="st2" d="M70.7,44.5c0,51.6,41.9,93.5,93.5,93.5s93.5-41.9,93.5-93.5c0-16.1-4.1-31.3-11.2-44.5h-24.3
		c9.1,12.3,14.5,27.5,14.5,44c0,40.9-33.1,74-74,74s-74-33.1-74-74c0-16.5,5.4-31.7,14.5-44H81.9C74.8,13.2,70.7,28.4,70.7,44.5z"/>
	<path class="st2" d="M420.7,44.5c0,51.6,41.9,93.5,93.5,93.5s93.5-41.9,93.5-93.5c0-16.1-4.1-31.3-11.2-44.5h-22.3
		c9.1,12.3,14.5,27.5,14.5,44c0,40.9-33.1,74-74,74s-74-33.1-74-74c0-16.5,5.4-31.7,14.5-44h-23.3C424.8,13.2,420.7,28.4,420.7,44.5
		z"/>
	<path class="st2" d="M770.7,44.5c0,51.6,41.9,93.5,93.5,93.5s93.5-41.9,93.5-93.5c0-16.1-4.1-31.3-11.2-44.5h-25.3
		c9.1,12.3,14.5,27.5,14.5,44c0,40.9-33.1,74-74,74s-74-33.1-74-74c0-16.5,5.4-31.7,14.5-44h-20.3C774.8,13.2,770.7,28.4,770.7,44.5
		z"/>
	<path class="st2" d="M1121.7,44.5c0,51.6,41.9,93.5,93.5,93.5s93.5-41.9,93.5-93.5c0-16.1-4.1-31.3-11.2-44.5h-23.3
		c9.1,12.3,14.5,27.5,14.5,44c0,40.9-33.1,74-74,74s-74-33.1-74-74c0-16.5,5.4-31.7,14.5-44h-22.3
		C1125.8,13.2,1121.7,28.4,1121.7,44.5z"/>
	<path class="st2" d="M1471.7,44.5c0,51.6,41.9,93.5,93.5,93.5s93.5-41.9,93.5-93.5c0-16.1-4.1-31.3-11.2-44.5h-22.3
		c9.1,12.3,14.5,27.5,14.5,44c0,40.9-33.1,74-74,74s-74-33.1-74-74c0-16.5,5.4-31.7,14.5-44h-23.3
		C1475.8,13.2,1471.7,28.4,1471.7,44.5z"/>
	<path class="st0" d="M1140.7,44c0,40.9,33.1,74,74,74s74-33.1,74-74c0-16.5-5.4-31.7-14.5-44h-119
		C1146.1,12.3,1140.7,27.5,1140.7,44z"/>
	<path class="st0" d="M1491.7,44c0,40.9,33.1,74,74,74s74-33.1,74-74c0-16.5-5.4-31.7-14.5-44h-119
		C1497.1,12.3,1491.7,27.5,1491.7,44z"/>
	<path class="st0" d="M88.7,44c0,40.9,33.1,74,74,74s74-33.1,74-74c0-16.5-5.4-31.7-14.5-44h-119C94.1,12.3,88.7,27.5,88.7,44z"/>
	<path class="st0" d="M440.7,44c0,40.9,33.1,74,74,74s74-33.1,74-74c0-16.5-5.4-31.7-14.5-44h-119C446.1,12.3,440.7,27.5,440.7,44z"
		/>
	<path class="st0" d="M787.7,44c0,40.9,33.1,74,74,74s74-33.1,74-74c0-16.5-5.4-31.7-14.5-44h-119C793.1,12.3,787.7,27.5,787.7,44z"
		/>
	<path class="st3" d="M0,249.7c-0.1,0-0.1,0-0.2,0v1.5c0.1,0,0.1,0,0.2,0V249.7z"/>
	<path class="st3" d="M0,333.8c-0.1,0-0.1,0-0.2,0v9.1c0.1,0.2,0.1,0.4,0.2,0.6V333.8z"/>
	<polygon class="st3" points="0,516 0,1148 -0.2,1148 -0.2,562.6 -0.1,541.5 	"/>
	<rect y="1022.7" class="st0" width="0" height="125.3"/>
</g>
</svg>
