<svg width="2101" height="1289" viewBox="0 0 2101 1289" fill="none" xmlns="http://www.w3.org/2000/svg">
<path d="M1915 1289L181.41 1281.02L186.529 169L1920.12 176.981L1915 1289Z" fill="#4C4C4C"/>
<circle cx="526" cy="559" r="175" fill="#BE9961"/>
<circle cx="526.5" cy="556.5" r="155.5" fill="#4C4C4C"/>
<circle cx="874" cy="559" r="175" fill="#BE9961"/>
<circle cx="874.5" cy="556.5" r="155.5" fill="#4C4C4C"/>
<circle cx="1224" cy="556" r="175" fill="#BE9961"/>
<circle cx="1224.5" cy="553.5" r="155.5" fill="#4C4C4C"/>
<circle cx="1575" cy="556" r="175" fill="#BE9961"/>
<circle cx="1575.5" cy="553.5" r="155.5" fill="#4C4C4C"/>
<circle cx="1926" cy="553" r="175" fill="#BE9961"/>
<circle cx="1926.5" cy="550.5" r="155.5" fill="#4C4C4C"/>
<circle cx="175" cy="559" r="175" fill="#BE9961"/>
<circle cx="527" cy="554" r="137" fill="#BE9961"/>
<circle cx="1930" cy="553" r="137" fill="#BE9961"/>
<circle cx="1227" cy="554" r="137" fill="#BE9961"/>
<circle cx="1931.5" cy="550.5" r="117.5" fill="#4C4C4C"/>
<circle cx="1576" cy="554" r="137" fill="#BE9961"/>
<circle cx="877" cy="559" r="137" fill="#BE9961"/>
<circle cx="175.5" cy="556.5" r="155.5" fill="#4C4C4C"/>
<circle cx="1575.5" cy="551.5" r="117.5" fill="#4C4C4C"/>
<circle cx="1226.5" cy="550.5" r="117.5" fill="#4C4C4C"/>
<circle cx="876.5" cy="558.5" r="117.5" fill="#4C4C4C"/>
<circle cx="524.5" cy="550.5" r="117.5" fill="#4C4C4C"/>
<circle cx="877.5" cy="557.5" r="93.5" fill="#BE9961"/>
<circle cx="879" cy="554" r="74" fill="#4C4C4C"/>
<circle cx="524.5" cy="555.5" r="93.5" fill="#BE9961"/>
<circle cx="523" cy="554" r="74" fill="#4C4C4C"/>
<circle cx="700" cy="420" r="175" fill="#BE9961"/>
<circle cx="174" cy="559" r="137" fill="#BE9961"/>
<circle cx="173.5" cy="557.5" r="117.5" fill="#4C4C4C"/>
<circle cx="698.5" cy="417.5" r="155.5" fill="#4C4C4C"/>
<circle cx="1228.5" cy="555.5" r="93.5" fill="#BE9961"/>
<circle cx="1574.5" cy="555.5" r="93.5" fill="#BE9961"/>
<circle cx="1229" cy="556" r="74" fill="#4C4C4C"/>
<circle cx="1050" cy="420" r="175" fill="#BE9961"/>
<circle cx="1575" cy="557" r="74" fill="#4C4C4C"/>
<circle cx="1926.5" cy="554.5" r="93.5" fill="#BE9961"/>
<circle cx="1400" cy="420" r="175" fill="#BE9961"/>
<circle cx="1927" cy="551" r="74" fill="#4C4C4C"/>
<circle cx="1048.5" cy="417.5" r="155.5" fill="#4C4C4C"/>
<circle cx="1750" cy="420" r="175" fill="#BE9961"/>
<circle cx="1749.5" cy="417.5" r="155.5" fill="#4C4C4C"/>
<circle cx="1399.5" cy="417.5" r="155.5" fill="#4C4C4C"/>
<circle cx="173.5" cy="555.5" r="93.5" fill="#BE9961"/>
<circle cx="178" cy="554" r="74" fill="#4C4C4C"/>
<circle cx="350" cy="420" r="175" fill="#BE9961"/>
<circle cx="350.5" cy="417.5" r="155.5" fill="#4C4C4C"/>
<circle cx="1750" cy="419" r="137" fill="#BE9961"/>
<circle cx="1400" cy="416" r="137" fill="#BE9961"/>
<circle cx="1049" cy="416" r="137" fill="#BE9961"/>
<circle cx="699" cy="416" r="137" fill="#BE9961"/>
<circle cx="349" cy="416" r="137" fill="#BE9961"/>
<circle cx="348.5" cy="417.5" r="117.5" fill="#4C4C4C"/>
<circle cx="698.5" cy="417.5" r="117.5" fill="#4C4C4C"/>
<circle cx="1050.5" cy="417.5" r="117.5" fill="#4C4C4C"/>
<circle cx="1400.5" cy="417.5" r="117.5" fill="#4C4C4C"/>
<circle cx="1749.5" cy="417.5" r="117.5" fill="#4C4C4C"/>
<circle cx="348.5" cy="422.5" r="93.5" fill="#BE9961"/>
<circle cx="698.5" cy="422.5" r="93.5" fill="#BE9961"/>
<circle cx="1048.5" cy="422.5" r="93.5" fill="#BE9961"/>
<circle cx="1399.5" cy="422.5" r="93.5" fill="#BE9961"/>
<circle cx="1751" cy="422" r="74" fill="#4C4C4C"/>
<circle cx="1749.5" cy="422.5" r="93.5" fill="#BE9961"/>
<circle cx="1399" cy="422" r="74" fill="#4C4C4C"/>
<circle cx="1750" cy="422" r="74" fill="#4C4C4C"/>
<circle cx="347" cy="422" r="74" fill="#4C4C4C"/>
<circle cx="699" cy="422" r="74" fill="#4C4C4C"/>
<circle cx="1046" cy="422" r="74" fill="#4C4C4C"/>
<circle cx="526" cy="314" r="175" fill="#BE9961"/>
<circle cx="526.5" cy="311.5" r="155.5" fill="#4C4C4C"/>
<circle cx="874" cy="314" r="175" fill="#BE9961"/>
<circle cx="874.5" cy="311.5" r="155.5" fill="#4C4C4C"/>
<circle cx="1224" cy="311" r="175" fill="#BE9961"/>
<circle cx="1224.5" cy="308.5" r="155.5" fill="#4C4C4C"/>
<circle cx="1575" cy="311" r="175" fill="#BE9961"/>
<circle cx="1575.5" cy="308.5" r="155.5" fill="#4C4C4C"/>
<circle cx="1926" cy="308" r="175" fill="#BE9961"/>
<circle cx="1926.5" cy="305.5" r="155.5" fill="#4C4C4C"/>
<circle cx="175" cy="314" r="175" fill="#BE9961"/>
<circle cx="527" cy="309" r="137" fill="#BE9961"/>
<circle cx="1930" cy="308" r="137" fill="#BE9961"/>
<circle cx="1227" cy="309" r="137" fill="#BE9961"/>
<circle cx="1931.5" cy="305.5" r="117.5" fill="#4C4C4C"/>
<circle cx="1576" cy="309" r="137" fill="#BE9961"/>
<circle cx="877" cy="314" r="137" fill="#BE9961"/>
<circle cx="175.5" cy="311.5" r="155.5" fill="#4C4C4C"/>
<circle cx="1575.5" cy="306.5" r="117.5" fill="#4C4C4C"/>
<circle cx="1226.5" cy="305.5" r="117.5" fill="#4C4C4C"/>
<circle cx="876.5" cy="313.5" r="117.5" fill="#4C4C4C"/>
<circle cx="524.5" cy="305.5" r="117.5" fill="#4C4C4C"/>
<circle cx="877.5" cy="312.5" r="93.5" fill="#BE9961"/>
<circle cx="879" cy="309" r="74" fill="#4C4C4C"/>
<circle cx="524.5" cy="310.5" r="93.5" fill="#BE9961"/>
<circle cx="523" cy="309" r="74" fill="#4C4C4C"/>
<circle cx="1228.5" cy="310.5" r="93.5" fill="#BE9961"/>
<circle cx="1574.5" cy="310.5" r="93.5" fill="#BE9961"/>
<path d="M1618.24 298.745L370 292.999L370.529 178L1618.77 183.746L1618.24 298.745Z" fill="#4C4C4C"/>
<circle cx="1229" cy="311" r="74" fill="#4C4C4C"/>
<circle cx="700" cy="175" r="175" fill="#BE9961"/>
<circle cx="174" cy="314" r="137" fill="#BE9961"/>
<circle cx="173.5" cy="312.5" r="117.5" fill="#4C4C4C"/>
<circle cx="698.5" cy="172.5" r="155.5" fill="#4C4C4C"/>
<circle cx="1050" cy="175" r="175" fill="#BE9961"/>
<circle cx="1575" cy="312" r="74" fill="#4C4C4C"/>
<circle cx="1926.5" cy="309.5" r="93.5" fill="#BE9961"/>
<circle cx="1400" cy="175" r="175" fill="#BE9961"/>
<circle cx="1927" cy="306" r="74" fill="#4C4C4C"/>
<circle cx="1048.5" cy="172.5" r="155.5" fill="#4C4C4C"/>
<circle cx="1750" cy="175" r="175" fill="#BE9961"/>
<circle cx="1749.5" cy="172.5" r="155.5" fill="#4C4C4C"/>
<circle cx="1399.5" cy="172.5" r="155.5" fill="#4C4C4C"/>
<circle cx="173.5" cy="310.5" r="93.5" fill="#BE9961"/>
<circle cx="178" cy="309" r="74" fill="#4C4C4C"/>
<circle cx="350" cy="175" r="175" fill="#BE9961"/>
<circle cx="350.5" cy="172.5" r="155.5" fill="#4C4C4C"/>
<circle cx="1750" cy="174" r="137" fill="#BE9961"/>
<circle cx="1400" cy="171" r="137" fill="#BE9961"/>
<circle cx="1049" cy="171" r="137" fill="#BE9961"/>
<circle cx="699" cy="171" r="137" fill="#BE9961"/>
<circle cx="349" cy="171" r="137" fill="#BE9961"/>
<circle cx="348.5" cy="172.5" r="117.5" fill="#4C4C4C"/>
<circle cx="698.5" cy="172.5" r="117.5" fill="#4C4C4C"/>
<circle cx="1050.5" cy="172.5" r="117.5" fill="#4C4C4C"/>
<circle cx="1400.5" cy="172.5" r="117.5" fill="#4C4C4C"/>
<circle cx="1749.5" cy="172.5" r="117.5" fill="#4C4C4C"/>
<circle cx="348.5" cy="177.5" r="93.5" fill="#BE9961"/>
<circle cx="698.5" cy="177.5" r="93.5" fill="#BE9961"/>
<circle cx="1048.5" cy="177.5" r="93.5" fill="#BE9961"/>
<circle cx="1399.5" cy="177.5" r="93.5" fill="#BE9961"/>
<circle cx="1751" cy="177" r="74" fill="#4C4C4C"/>
<circle cx="1749.5" cy="177.5" r="93.5" fill="#BE9961"/>
<circle cx="1399" cy="177" r="74" fill="#4C4C4C"/>
<circle cx="1750" cy="177" r="74" fill="#4C4C4C"/>
<circle cx="347" cy="177" r="74" fill="#4C4C4C"/>
<circle cx="699" cy="177" r="74" fill="#4C4C4C"/>
<circle cx="1046" cy="177" r="74" fill="#4C4C4C"/>
</svg>
