<svg width="681" height="1119" viewBox="0 0 681 1119" fill="none" xmlns="http://www.w3.org/2000/svg">
<path d="M680.768 1118.39L1.32121 1118.39L1.36597 -7.73438e-05L680.812 -7.73438e-05L680.768 1118.39Z" fill="#5077A5"/>
<rect x="-0.0153244" y="7.05568" width="156.106" height="156.821" transform="matrix(0.707107 0.707107 -0.710172 0.704029 124.422 3.47021)" fill="#5077A5" stroke="#E1CD97" stroke-width="10"/>
<rect x="-0.0153244" y="7.05568" width="156.106" height="156.821" transform="matrix(0.707107 0.707107 -0.710172 0.704029 124.422 443.47)" fill="#5077A5" stroke="#E1CD97" stroke-width="10"/>
<rect x="-0.0153244" y="7.05568" width="156.106" height="156.821" transform="matrix(0.707107 0.707107 -0.710172 0.704029 124.422 223.47)" fill="#5077A5" stroke="#E1CD97" stroke-width="10"/>
<rect x="-0.0153244" y="7.05568" width="156.106" height="156.821" transform="matrix(0.707107 0.707107 -0.710172 0.704029 124.422 663.47)" fill="#5077A5" stroke="#E1CD97" stroke-width="10"/>
<rect x="-0.0153244" y="7.05568" width="156.106" height="156.821" transform="matrix(0.707107 0.707107 -0.710172 0.704029 124.422 884.47)" fill="#5077A5" stroke="#E1CD97" stroke-width="10"/>
<rect x="-0.0153244" y="7.05568" width="156.106" height="156.821" transform="matrix(0.707107 0.707107 -0.710172 0.704029 346.422 3.47021)" fill="#5077A5" stroke="#E1CD97" stroke-width="10"/>
<rect x="-0.0153244" y="7.05568" width="156.106" height="156.821" transform="matrix(0.707107 0.707107 -0.710172 0.704029 346.422 443.47)" fill="#5077A5" stroke="#E1CD97" stroke-width="10"/>
<rect x="-0.0153244" y="7.05568" width="156.106" height="156.821" transform="matrix(0.707107 0.707107 -0.710172 0.704029 346.422 223.47)" fill="#5077A5" stroke="#E1CD97" stroke-width="10"/>
<rect x="-0.0153244" y="7.05568" width="156.106" height="156.821" transform="matrix(0.707107 0.707107 -0.710172 0.704029 346.422 663.47)" fill="#5077A5" stroke="#E1CD97" stroke-width="10"/>
<rect x="-0.0153244" y="7.05568" width="156.106" height="156.821" transform="matrix(0.707107 0.707107 -0.710172 0.704029 346.422 884.47)" fill="#5077A5" stroke="#E1CD97" stroke-width="10"/>
<rect x="-0.0153244" y="7.05568" width="156.106" height="156.821" transform="matrix(0.707107 0.707107 -0.710172 0.704029 568.422 3.47021)" fill="#5077A5" stroke="#E1CD97" stroke-width="10"/>
<rect x="-0.0153244" y="7.05568" width="156.106" height="156.821" transform="matrix(0.707107 0.707107 -0.710172 0.704029 568.422 443.47)" fill="#5077A5" stroke="#E1CD97" stroke-width="10"/>
<rect x="-0.0153244" y="7.05568" width="156.106" height="156.821" transform="matrix(0.707107 0.707107 -0.710172 0.704029 568.422 223.47)" fill="#5077A5" stroke="#E1CD97" stroke-width="10"/>
<rect x="-0.0153244" y="7.05568" width="156.106" height="156.821" transform="matrix(0.707107 0.707107 -0.710172 0.704029 568.422 663.47)" fill="#5077A5" stroke="#E1CD97" stroke-width="10"/>
<rect x="-0.0153244" y="7.05568" width="156.106" height="156.821" transform="matrix(0.707107 0.707107 -0.710172 0.704029 568.422 884.47)" fill="#5077A5" stroke="#E1CD97" stroke-width="10"/>
<path d="M85.5535 218.902V5.37109H5.9447V1113.37H86.0671V867.368H156.945V218.902H85.5535Z" stroke="#E1CD97" stroke-width="10"/>
<path d="M593.7 219.709V6.37109H675.945V1113.37H593.169V867.59H519.945V219.709H593.7Z" stroke="#E1CD97" stroke-width="10"/>
<path d="M342.197 609.371L591.945 1113.37H87.9447L342.197 609.371Z" stroke="#E1CD97" stroke-width="10"/>
<path d="M340.692 509.371L90.9447 5.37109H594.945L340.692 509.371Z" stroke="#E1CD97" stroke-width="10"/>
<rect x="83.9447" y="14.3711" width="14" height="17" fill="#E1CD97"/>
</svg>
