<?xml version="1.0" encoding="utf-8"?>
<!-- Generator: Adobe Illustrator 28.0.0, SVG Export Plug-In . SVG Version: 6.00 Build 0)  -->
<svg version="1.1" id="Layer_1" xmlns="http://www.w3.org/2000/svg" xmlns:xlink="http://www.w3.org/1999/xlink" x="0px" y="0px"
	 viewBox="0 0 546 557" style="enable-background:new 0 0 546 557;" xml:space="preserve">
<style type="text/css">
	.st0{fill:#BE9961;}
	.st1{fill:#A55050;}
</style>
<path class="st0" d="M546.3,521.6c-0.1,0.1-0.2,0.2-0.3,0.2c-2,1.8-4.1,3.4-6.4,4.9c-0.8,0.5-1.7,1-2.6,1.5
	c-2.8,1.5-5.8,2.6-8.9,3.4c-0.7,0.2-1.4,0.3-2.1,0.5c-2.8,0.6-5.6,0.9-8.5,0.9c-0.4,0-0.8,0-1.1,0c-1,0-2-0.1-2.9-0.2
	c-7.6-0.7-14.7-3.5-20.6-7.8c-0.1,0-0.1-0.1-0.2-0.1c-3.3-2.5-6.3-5.4-8.8-8.7c-1.8-2.3-3.3-4.8-4.6-7.5c-1.5-3-2.6-6.3-3.3-9.7
	c-0.5-2.2-0.8-4.5-0.9-6.9c0-0.7-0.1-1.5-0.1-2.2c0-2.9,0.3-5.8,0.8-8.5c0.3-1.5,0.7-3.1,1.2-4.5c0.1-0.3,0.2-0.6,0.3-1
	c0.9-2.6,2-5.1,3.3-7.4c1.3-2.2,2.7-4.3,4.3-6.2c1.6-1.9,3.3-3.6,5.2-5.2c1.3-1.1,2.7-2.2,4.1-3.1c2.9-1.9,6-3.4,9.2-4.6
	c3.1-1.1,6.3-1.8,9.7-2.2c1.4-0.1,2.9-0.2,4.3-0.2c1.7,0,3.5,0.1,5.1,0.3c1.5,0.2,3,0.4,4.4,0.8c2,0.5,4,1.1,6,1.9
	c0.5,0.2,0.9,0.4,1.3,0.6c1.9,0.8,3.8,1.8,5.6,2.9c2.2,1.4,4.2,2.9,6.1,4.7v63.2C546.1,521.4,546.2,521.5,546.3,521.6z"/>
<path class="st1" d="M546,472.7v34.7c-0.3,0.6-0.7,1.1-1.1,1.6c-0.5,0.8-1.1,1.5-1.7,2.2c-1,1.2-2,2.3-3.2,3.3
	c-1.2,1.1-2.4,2-3.7,2.9c-1.2,0.8-2.4,1.5-3.7,2.2c-2.2,1.1-4.6,2-7,2.6c-2.1,0.5-4.3,0.8-6.5,0.9c-0.5,0-1,0-1.6,0
	c-1.1,0-2.2,0-3.3-0.2c-5.4-0.5-10.4-2.3-14.8-5.1c-1.3-0.8-2.5-1.7-3.7-2.7c-2.8-2.4-5.3-5.3-7.1-8.5c-1.8-3-3.1-6.2-3.8-9.7
	c-0.5-2.2-0.7-4.5-0.7-6.9v0c0-3.6,0.6-7.1,1.7-10.4c0.2-0.7,0.5-1.4,0.8-2.1c0.2-0.4,0.4-0.8,0.5-1.2c1.1-2.3,2.4-4.4,3.9-6.4
	c2-2.6,4.4-4.9,7.1-6.8c0.1-0.1,0.2-0.2,0.3-0.2c2.6-1.8,5.4-3.2,8.4-4.2c3.4-1.1,7-1.7,10.7-1.7c0.7,0,1.3,0,2,0.1
	c0.5,0,1.1,0.1,1.6,0.1c1.9,0.2,3.7,0.5,5.5,1c1.6,0.4,3.1,1,4.5,1.6c3,1.3,5.8,3.1,8.2,5.1C541.9,467.2,544.2,469.8,546,472.7z"/>
<path class="st0" d="M546,183.6v115.8c-7.4,7-16.2,12.6-25.9,16.3c-2.6,1-5.3,1.9-8,2.6c-3,0.8-6,1.4-9,1.8c-2.3,0.4-4.6,0.6-7,0.7
	c-1.5,0.1-3,0.1-4.5,0.1c-1.8,0-3.7-0.1-5.5-0.2c-3-0.2-6-0.6-9-1.1c-37-6.8-65-39.2-65-78.2c0-38.6,27.5-70.8,64.1-78
	c3.2-0.6,6.6-1.1,10-1.3c1.8-0.1,3.6-0.2,5.5-0.2c1.2,0,2.4,0,3.5,0.1c2.4,0.1,4.7,0.3,7,0.6c3.1,0.4,6.1,1,9.1,1.7
	c2.9,0.7,5.7,1.6,8.4,2.6C529.4,170.8,538.4,176.5,546,183.6z"/>
<path class="st1" d="M546,193.6v95.7c-6.6,7-14.6,12.7-23.7,16.7c-2.8,1.2-5.8,2.3-8.8,3.2c-3.2,0.9-6.5,1.6-9.9,2.1
	c-2.4,0.3-4.8,0.6-7.2,0.7c-1,0-2,0.1-3,0.1c-2.4,0-4.7-0.1-7.1-0.3c-3-0.3-6-0.8-9-1.4c-31.8-7.2-55.5-35.2-55.5-68.7
	c0-33.3,23.5-61.2,55-68.6c3.2-0.8,6.5-1.3,9.8-1.6c2.2-0.2,4.5-0.3,6.7-0.3c0.8,0,1.6,0,2.5,0c2.4,0.1,4.8,0.3,7.2,0.6
	c3.3,0.4,6.5,1.1,9.6,1.9c3.6,1,7,2.2,10.3,3.7C531.8,181.2,539.6,186.8,546,193.6z"/>
<path class="st0" d="M546,338.9v121.3c-2.1,1.7-4.3,3.3-6.7,4.8c-5.9,3.8-12.3,6.9-19.1,9.1c-2.3,0.8-4.7,1.4-7.1,2
	c-3.3,0.7-6.7,1.3-10.1,1.6c-2.3,0.2-4.6,0.3-7,0.3c-0.2,0-0.3,0-0.5,0c-2.9,0-5.7-0.2-8.5-0.5c-0.2,0-0.3,0-0.5-0.1
	c-3.1-0.3-6.2-0.9-9.2-1.5c-0.1,0-0.2,0-0.3-0.1c-35-8.2-61-39.3-61-76.4c0-37.1,26.1-68.2,61.1-76.4c2.9-0.7,5.9-1.2,8.9-1.6
	c3.1-0.4,6.3-0.6,9.5-0.6c0.2,0,0.3,0,0.5,0c2.4,0,4.7,0.1,7,0.3c3.1,0.3,6.1,0.7,9,1.4c3,0.6,5.9,1.4,8.7,2.3
	C530.1,328.1,538.6,332.8,546,338.9z"/>
<path class="st1" d="M546,350.4v97.2c-1.9,2.1-3.9,4-6.1,5.8c-2.8,2.3-5.7,4.5-8.8,6.4c-2.5,1.5-5.2,2.9-7.9,4.2
	c-2.7,1.2-5.5,2.2-8.3,3.1c-3.6,1.1-7.3,1.9-11.1,2.4c-2.3,0.3-4.7,0.5-7.1,0.5c-0.6,0-1.1,0-1.7,0c-1.4,0-2.7,0-4.1-0.1
	c-1.2-0.1-2.3-0.2-3.4-0.3c-2.3-0.2-4.6-0.6-6.8-1.1c-1-0.2-2.1-0.5-3.1-0.7c-30.2-7.9-52.6-35.7-52.6-68.8
	c0-33.2,22.5-61.1,52.8-68.8c2.9-0.7,5.8-1.3,8.8-1.7c2.8-0.3,5.6-0.5,8.4-0.5c0.5,0,1,0,1.6,0c2.4,0,4.8,0.2,7.2,0.5
	c3.2,0.4,6.3,1,9.4,1.9c4,1.1,7.9,2.5,11.6,4.3c7.8,3.7,14.9,8.9,20.8,15.2C545.7,350,545.8,350.2,546,350.4z"/>
<path class="st0" d="M546.3,521.6c-0.1,0.1-0.2,0.2-0.3,0.2V557H416c0.7-36.5,25.9-66.9,59.8-75.5c0.4-0.1,0.8-0.2,1.2-0.3
	c2.8-0.7,5.7-1.2,8.6-1.6c0.4-0.1,0.9-0.1,1.3-0.1c2.8-0.3,5.6-0.5,8.5-0.5c0.2,0,0.3,0,0.5,0c2.4,0,4.7,0.1,7,0.3
	c3.4,0.3,6.8,0.9,10,1.6c2.5,0.5,4.9,1.2,7.3,2c9.5,3.1,18.2,7.9,25.7,14.1v24.2C546.1,521.4,546.2,521.5,546.3,521.6z"/>
<path class="st1" d="M546.3,521.6c-0.1,0.1-0.2,0.2-0.3,0.2V557H426c0.8-30.5,21.2-56.1,49-64.8c1-0.3,2.1-0.6,3.1-0.9
	c1.9-0.5,3.8-0.9,5.8-1.3c1.3-0.2,2.6-0.4,3.9-0.6c2.7-0.3,5.3-0.5,8.1-0.5c0.3,0,0.5,0,0.8,0c2.5,0,4.9,0.2,7.3,0.5
	c3.6,0.4,7.2,1.1,10.6,2.1c3.2,0.9,6.4,2,9.4,3.3c7.8,3.4,14.8,8.2,20.8,14.1c0.4,0.3,0.7,0.7,1.1,1.1v11.3
	C546.1,521.4,546.2,521.5,546.3,521.6z"/>
<path class="st0" d="M546,366.7v69.7c-0.5,0.8-1.1,1.5-1.6,2.2c-3.3,4.3-7.1,8.1-11.4,11.4c-3.7,2.8-7.7,5.3-12,7.2
	c-0.8,0.3-1.5,0.7-2.3,1c-4.2,1.7-8.6,3-13.2,3.8c-2.3,0.4-4.8,0.7-7.2,0.8c-0.1,0-0.2,0-0.3,0c-1.2,0.1-2.4,0.1-3.6,0.1
	c-2,0-3.9-0.1-5.8-0.3c-1.2-0.1-2.5-0.2-3.7-0.4c-2.1-0.3-4.2-0.7-6.3-1.3c-26.9-6.9-46.7-30.9-46.7-59.5
	c0-29.2,20.6-53.6,48.3-59.9c2.9-0.7,5.8-1.1,8.9-1.4c1.8-0.2,3.5-0.2,5.3-0.2c1.7,0,3.3,0.1,5,0.2c2.8,0.2,5.5,0.6,8.2,1.2
	c4.4,0.9,8.5,2.3,12.5,4c8.2,3.6,15.4,8.9,21.2,15.4C543,362.7,544.6,364.6,546,366.7z"/>
<path class="st0" d="M546.3,521.6c-0.1,0.1-0.2,0.2-0.3,0.2V557H433c0.2-27,18.1-49.9,42.9-57.9c1.2-0.4,2.5-0.8,3.7-1.1
	c1.7-0.4,3.4-0.8,5.1-1.1c1.5-0.3,3.1-0.5,4.7-0.6c2-0.2,4-0.3,6.1-0.3c1,0,1.9,0,2.9,0.1c2.7,0.1,5.3,0.4,7.9,0.8
	c4.2,0.7,8.3,1.9,12.2,3.4c8.2,3.2,15.5,8,21.6,14.1c2,2,3.8,4.1,5.5,6.4c0.1,0.2,0.3,0.3,0.4,0.5
	C546.1,521.4,546.2,521.5,546.3,521.6z"/>
<path class="st1" d="M546,537.1V557H442c1.1-22.5,16.3-41.4,37.2-48.3c1.2-0.4,2.4-0.8,3.7-1.1c1.8-0.5,3.7-0.8,5.6-1.1
	c1.4-0.2,2.9-0.4,4.4-0.5c1.2-0.1,2.4-0.1,3.6-0.1c2,0,3.9,0.1,5.8,0.3c3.4,0.3,6.6,1,9.8,1.9c7.7,2.2,14.7,6.1,20.5,11.2
	c2.5,2.2,4.9,4.6,7,7.3c0.8,1,1.6,2,2.3,3.1C543.4,532.2,544.8,534.6,546,537.1z"/>
<path class="st1" d="M546,378.2v44.6c-0.6,1.3-1.2,2.5-2,3.7c-5,8.7-12.4,15.9-21.4,20.8c-4,2.1-8.2,3.8-12.7,5
	c-2.8,0.7-5.6,1.2-8.6,1.5c-1.8,0.2-3.6,0.3-5.4,0.3c-0.6,0-1.1,0-1.7,0c-1,0-2-0.1-3-0.2c-3.5-0.3-6.9-0.9-10.1-1.8
	c-23.2-6.3-40.2-27-40.2-51.5c0-25.1,17.8-46.2,41.8-51.9c2.9-0.7,5.9-1.2,9-1.4c1.4-0.1,2.8-0.2,4.2-0.2c2.2,0,4.3,0.1,6.4,0.4
	c3.3,0.4,6.5,1,9.7,2c12.3,3.7,22.8,11.4,29.8,21.6C543.4,373.3,544.8,375.7,546,378.2z"/>
<path class="st0" d="M546,208.4v65.2c-1.4,2.3-2.9,4.5-4.5,6.6c-6.1,7.8-14.1,14.1-23.2,18.3c-4,1.8-8.1,3.2-12.5,4.2
	c-2.5,0.6-5.1,1-7.8,1.2c-1.8,0.2-3.6,0.2-5.5,0.2c-1.6,0-3.2-0.1-4.7-0.2c-3.1-0.2-6.1-0.7-9-1.4C450.8,296.2,430,271,430,241
	c0-29.9,20.6-54.9,48.3-61.4c3.2-0.7,6.5-1.2,9.8-1.5c1.5-0.1,2.9-0.2,4.4-0.2c1.7,0,3.5,0.1,5.1,0.2c2.6,0.2,5.2,0.6,7.8,1.1
	c4,0.8,7.8,2.1,11.5,3.6c9.8,4.2,18.4,10.9,24.9,19.3C543.3,204.2,544.7,206.3,546,208.4z"/>
<path class="st1" d="M546,221V261c-1,2.4-2.2,4.7-3.5,6.9c-7,11.5-18.3,20.3-31.8,24.1c-3,0.8-6,1.4-9.2,1.8c-2,0.2-3.9,0.3-6,0.3
	c-1.5,0-3.1-0.1-4.6-0.2c-3.2-0.3-6.3-0.8-9.3-1.5c-23.4-6-40.7-26.7-40.7-51.3c0-24.6,17.2-45.2,40.5-51.2c3.2-0.8,6.5-1.4,9.9-1.6
	c1.3-0.1,2.7-0.1,4-0.1c2.1,0,4.1,0.1,6.1,0.3c3.2,0.3,6.4,1,9.4,1.8c12.5,3.6,23.2,11.5,30.2,21.9C543,214.9,544.7,217.9,546,221z"
	/>
<ellipse class="st0" cx="493" cy="242.5" rx="43" ry="42.5"/>
<ellipse class="st1" cx="494" cy="242.5" rx="34" ry="33.5"/>
<path class="st0" d="M546,81.6v157.9c-3.5-0.4-7-1.1-10.3-1.9c-2.9-0.8-5.8-1.7-8.6-2.8c-13.8-5.3-25.7-14.3-34.6-25.7
	c-2.1-2.7-4-5.6-5.8-8.6c-2-3.4-3.7-7-5.2-10.7c-1.3-3.3-2.4-6.7-3.2-10.1c-0.5-2.2-1-4.5-1.4-6.7c-0.5-3.1-0.8-6.2-0.9-9.4
	c0-1-0.1-2-0.1-3C476,119.8,506.6,86.3,546,81.6z"/>
<path class="st1" d="M546,91.7v138.6c-4.5-0.6-8.8-1.7-12.9-3.1h0c-4.5-1.6-8.8-3.6-12.9-6h0c-4.4-2.6-8.5-5.7-12.2-9.2
	c-3.7-3.5-7.1-7.4-10-11.7c-2.6-3.8-4.8-7.9-6.6-12.1c-1.4-3.2-2.5-6.5-3.3-10c-0.6-2.2-1-4.5-1.4-6.8c-0.5-3-0.7-6-0.8-9.1
	c0-0.4,0-0.8,0-1.2C486,125.7,512.1,96.6,546,91.7z"/>
<ellipse class="st0" cx="494" cy="401.5" rx="43" ry="42.5"/>
<path class="st0" d="M537,557h-86c0.2-19.8,14.1-36.3,32.8-40.8c1-0.2,1.9-0.4,2.9-0.6c2.4-0.4,4.8-0.6,7.3-0.6c0.6,0,1.1,0,1.7,0
	c0.7,0,1.3,0.1,2,0.1c4.2,0.4,8.3,1.3,12.1,2.8h0c3.3,1.3,6.4,3,9.3,5c3.4,2.4,6.5,5.4,9.1,8.7c0.7,0.9,1.3,1.8,2,2.7
	c2,3.1,3.7,6.5,4.8,10.1c1,3.2,1.7,6.6,2,10.1C536.9,555.4,537,556.2,537,557z"/>
<circle class="st1" cx="493.5" cy="401.5" r="33.5"/>
<path class="st0" d="M546,240.7v156.6c-3.2-0.4-6.4-1-9.4-1.8h0c-3.8-1-7.5-2.2-11-3.7c-12.4-5.2-23.2-13.5-31.4-23.8
	c-2.2-2.7-4.2-5.6-6-8.6c-2.1-3.5-3.9-7.1-5.4-10.8c-0.9-2.3-1.8-4.6-2.5-7c-1.1-3.7-2-7.5-2.5-11.4c-0.3-2.3-0.6-4.7-0.7-7
	c0-1.1-0.1-2.3-0.1-3.4c0-0.2,0-0.5,0-0.7c0-3,0.2-5.9,0.5-8.8c0.3-2.6,0.7-5.2,1.3-7.8c0.7-3.5,1.7-6.9,2.9-10.2
	c1-2.7,2.1-5.4,3.4-8c1.4-3,3.1-5.8,4.9-8.5c9-13.7,22.3-24.5,37.9-30.5c2.6-1,5.3-1.9,8.1-2.6C539.2,241.8,542.6,241.1,546,240.7z"
	/>
<path class="st1" d="M528,557h-67c0.5-17.2,14.4-31.1,31.8-32h0.1c0.5,0,1.1,0,1.6,0c4.7,0,9.1,0.9,13.1,2.6
	c3.2,1.3,6.1,3.2,8.7,5.4c1.9,1.6,3.5,3.3,5,5.2c0,0,0,0,0,0c2.9,3.8,5,8.3,6,13.2C527.7,553.3,527.9,555.1,528,557z"/>
<path class="st0" d="M546.3,521.6c-0.1,0.1-0.2,0.2-0.3,0.2v34.4c-3.1-0.4-6.1-1-9.1-1.8c-3.3-0.8-6.5-1.9-9.5-3.1
	c-13.8-5.5-25.8-14.7-34.6-26.5c0,0-0.1-0.1-0.1-0.1c-2.2-3-4.2-6.1-5.9-9.3c-1.4-2.6-2.7-5.2-3.8-7.9c-1.3-3.1-2.4-6.4-3.3-9.7
	c-0.6-2.2-1.1-4.4-1.5-6.7c-0.6-3.3-1-6.7-1.1-10.1c0-1.2-0.1-2.4-0.1-3.7c0-0.2,0-0.4,0-0.6c0-0.4,0-0.7,0-1c0-2.7,0.2-5.4,0.6-8.1
	c0.3-2.3,0.6-4.5,1.1-6.8c0.6-3.1,1.5-6.1,2.5-9c1-3.1,2.3-6.1,3.7-9c1.4-2.9,2.9-5.6,4.6-8.3c8.9-13.9,22-24.9,37.5-31.1
	c3.2-1.3,6.6-2.4,10.1-3.3c2.9-0.7,6-1.3,9-1.7v122.6C546.1,521.4,546.2,521.5,546.3,521.6z"/>
<path class="st1" d="M546,250.7v137.6c-4.2-0.6-8.3-1.5-12.2-2.8c-6.7-2.2-13-5.5-18.7-9.5c-1-0.7-2-1.5-3-2.3l0,0
	c-5.2-4.1-9.8-9-13.6-14.4c-2.7-3.8-5-7.8-6.8-12.1c-1-2.2-1.9-4.6-2.6-6.9c-1.2-3.8-2.1-7.7-2.6-11.7c-0.3-2.3-0.5-4.6-0.5-7
	c0-0.2,0-0.5,0-0.8c0-0.4,0-0.9,0-1.3c0-2.7,0.2-5.3,0.4-7.8c0.3-2.7,0.8-5.3,1.3-7.8c0.8-3.4,1.9-6.8,3.2-10c1.2-3.1,2.7-6,4.3-8.9
	c2-3.5,4.4-6.8,7-9.9v0c6.1-7.3,13.7-13.2,22.2-17.6c3.2-1.6,6.6-3,10.2-4.1h0C538.3,252.1,542.1,251.3,546,250.7z"/>
<path class="st1" d="M546.3,521.6c-0.1,0.1-0.2,0.2-0.3,0.2v25.2c-3.8-0.6-7.5-1.5-11.1-2.7c-4.8-1.6-9.3-3.7-13.6-6.2c0,0,0,0,0,0
	c-2.8-1.6-5.4-3.5-7.9-5.4c-2-1.6-4-3.3-5.8-5.2c-3-3-5.8-6.3-8.2-9.9c-0.6-0.9-1.2-1.7-1.7-2.6c-1.8-2.9-3.4-5.9-4.8-9
	c-1.4-3.2-2.6-6.4-3.5-9.8c-0.6-2.2-1.1-4.5-1.5-6.8c-0.5-3.3-0.9-6.6-0.9-10c0-0.5,0-1,0-1.5v-0.5c0-0.4,0-0.8,0-1.3
	c0-2.3,0.2-4.5,0.5-6.7c0.3-2.3,0.7-4.6,1.2-6.9c0.4-1.9,0.9-3.8,1.5-5.7c0.3-1.1,0.7-2.2,1.1-3.3c1.2-3.4,2.8-6.7,4.5-9.8
	c2-3.6,4.4-7.1,7-10.3c5.7-7,12.7-12.8,20.6-17.1h0c3.9-2.2,8.1-3.9,12.4-5.3c3.3-1,6.7-1.8,10.1-2.4v112.4
	C546.1,521.4,546.2,521.5,546.3,521.6z"/>
<path class="st0" d="M546.3,521.6c-0.1,0.1-0.2,0.2-0.3,0.2v17.9c-5.6-1.1-11-3-15.9-5.5c-1.4-0.7-2.7-1.4-4-2.2
	c-4.3-2.6-8.3-5.7-11.9-9.3c-1.5-1.6-3-3.2-4.4-4.9h0c-2.9-3.6-5.4-7.5-7.4-11.6c-1.6-3.3-2.9-6.7-3.9-10.2
	c-0.7-2.3-1.2-4.7-1.6-7.1c-0.5-3.2-0.8-6.6-0.8-10v0c0-0.3,0-0.7,0-1c0-2.7,0.3-5.4,0.6-8c0.3-2.3,0.8-4.6,1.4-6.9
	c0-0.1,0-0.2,0.1-0.2c0.8-3.2,1.9-6.2,3.2-9.2c0.7-1.5,1.4-2.9,2.2-4.3c1.5-2.8,3.2-5.4,5.1-7.9c5.9-7.7,13.5-14,22.3-18.3
	c4.7-2.3,9.7-4,15-5v103.1C546.1,521.4,546.2,521.5,546.3,521.6z"/>
<path class="st0" d="M546,258.1v122.8c-7.1-1.4-13.8-4-19.8-7.6c0,0,0,0,0,0c-4.3-2.6-8.2-5.7-11.8-9.2l0,0
	c-4.8-4.8-8.9-10.5-11.9-16.7c-1.1-2.3-2.1-4.7-3-7.2c-1.4-3.9-2.3-8-2.9-12.2c-0.3-2.3-0.5-4.6-0.5-7v-0.1c0-0.5,0-0.9,0-1.4
	c0-2.6,0.2-5.1,0.5-7.6c0.3-2.8,0.8-5.5,1.5-8.2c0.9-3.5,2.1-6.9,3.5-10.1c1.8-4,4-7.8,6.6-11.4c5.9-8,13.5-14.5,22.4-19h0
	C535.3,260.9,540.5,259.1,546,258.1z"/>
<path class="st0" d="M546,98v124c-7.7-1.4-14.9-4.2-21.3-8.2c-3.8-2.4-7.4-5.2-10.7-8.4c-5-4.9-9.2-10.7-12.4-17.1
	c-1.6-3.2-2.9-6.6-4-10.1c-0.7-2.3-1.3-4.7-1.7-7.2c-0.5-2.9-0.8-5.9-0.9-9c0-0.7,0-1.4,0-2.1C495,129,517,103.3,546,98z"/>
<path class="st1" d="M546,107.8v105.3c-1.6-0.3-3.3-0.7-4.8-1.1c-12.5-3.5-23.2-11.4-30.2-21.9c-2.2-3.3-4.1-7-5.6-10.8
	c-0.9-2.5-1.7-5-2.2-7.7c-0.6-2.9-1-5.9-1.1-9c0-0.7,0-1.5,0-2.2C502,134.2,521,112.3,546,107.8z"/>
<path class="st1" d="M546,267V372c-1.4-0.3-2.8-0.6-4.1-1c-12.3-3.5-22.8-11.3-29.8-21.6c-1.7-2.5-3.2-5.2-4.4-8
	c-1.8-4-3.1-8.3-3.9-12.8c-0.4-2.3-0.7-4.7-0.7-7.2c0-0.4,0-0.8,0-1.2c0-0.2,0-0.4,0-0.7c0-2.8,0.2-5.5,0.6-8.2
	c0.5-3,1.2-5.9,2.1-8.7c1.2-3.8,2.9-7.3,4.9-10.7c7-11.7,18.4-20.4,31.8-24.1C543.6,267.5,544.8,267.3,546,267z"/>
<path class="st1" d="M546.3,521.6c-0.1,0.1-0.2,0.2-0.3,0.2v9c-1.4-0.3-2.8-0.6-4.1-1c-1.7-0.5-3.3-1-4.9-1.7
	c-4.1-1.6-7.9-3.7-11.4-6.2c-5.3-3.8-9.9-8.4-13.5-13.8c-2.4-3.5-4.3-7.3-5.8-11.3c-0.9-2.4-1.6-4.9-2.1-7.5
	c-0.7-3.3-1.1-6.6-1.1-10.1c0-0.3,0-0.6,0-0.8s0-0.6,0-0.8c0-2.8,0.3-5.5,0.8-8.2c0.4-2.5,1-5,1.8-7.4c0.4-1.1,0.8-2.2,1.2-3.3
	c0.9-2.2,1.9-4.4,3.1-6.4c1-1.8,2.1-3.4,3.3-5.1c7.4-10.1,18.2-17.6,30.8-20.7c0.7-0.2,1.3-0.3,2-0.4v95.2
	C546.1,521.4,546.2,521.5,546.3,521.6z"/>
<path class="st0" d="M546,119.7v83.5c-1.4-0.3-2.8-0.6-4.2-1c-10.6-3.1-19.4-10.1-24.9-19.3c-1.7-2.9-3.1-6.1-4.1-9.4
	c-0.9-2.9-1.4-6-1.7-9.2c-0.1-1-0.1-2-0.1-2.9C511,140.7,526.1,123.4,546,119.7z"/>
<path class="st0" d="M546,278.9v83.1c-1.6-0.3-3.1-0.8-4.6-1.2c-8.6-2.8-16-8.3-21.2-15.4c-3.2-4.4-5.6-9.5-7-15
	c-0.6-2.5-1-5.1-1.1-7.7c0-0.7-0.1-1.5-0.1-2.2c0-0.7,0-1.5,0.1-2.2c0.2-3.1,0.7-6.2,1.5-9.1c1.1-3.8,2.7-7.4,4.7-10.8
	c5.3-8.5,13.5-15.1,23.2-18.3C542.9,279.7,544.4,279.3,546,278.9z"/>
<path class="st0" d="M546,438.2v82.7c-0.1,0-0.3-0.1-0.4-0.1c-3.3-0.8-6.4-2-9.3-3.5c-7.5-3.8-13.7-9.8-17.8-17
	c-1.6-2.7-2.8-5.7-3.7-8.7c-1-3.4-1.6-6.9-1.7-10.6c0-0.5,0-1,0-1.5c0-1.2,0-2.3,0.1-3.4c0.2-3.1,0.8-6.1,1.7-9
	c1-3.1,2.3-6.1,3.9-8.9c0.2-0.4,0.5-0.8,0.7-1.1c2.1-3.3,4.7-6.3,7.6-9c4.9-4.4,10.8-7.7,17.3-9.5
	C544.9,438.4,545.4,438.3,546,438.2z"/>
<path class="st1" d="M546,445.1v66.9c-0.9-0.2-1.9-0.5-2.8-0.8c-8.2-2.8-15-8.7-19.1-16.2c-2-3.6-3.3-7.7-3.8-11.9
	c-0.2-1.5-0.3-2.9-0.3-4.5c0-1.5,0.1-3,0.3-4.4c0.4-3.6,1.4-7,2.9-10.1c1-2,2.1-4,3.4-5.8c2.1-3,4.8-5.6,7.8-7.7
	C537.8,448,541.7,446.1,546,445.1z"/>
<path class="st1" d="M546,128.8v65.4c-9.9-2.1-18.2-8.4-22.9-16.9c-1.7-3.1-3-6.6-3.6-10.2c-0.3-1.8-0.5-3.7-0.5-5.6
	C519,145.5,530.5,132.1,546,128.8z"/>
<path class="st1" d="M546,286v64c-0.2,0-0.3-0.1-0.5-0.1c-8.8-2.3-16.2-7.8-20.8-15.2c-1.8-2.9-3.2-6.2-4-9.7
	c-0.5-2.3-0.8-4.6-0.8-7.1c0-0.8,0-1.5,0.1-2.3c0.2-3.4,1-6.7,2.3-9.7C526.3,296.2,535.1,288.6,546,286z"/>
<path class="st0" d="M118.4,338.1l-22.2,4.7l-0.9-4.3l-0.9,0.2l1.4,6.7l23.1-4.9L118.4,338.1z"/>
<path class="st0" d="M119.8,343.5l-21.1,8.2l-1.6-4.1l-0.9,0.3l2.5,6.4l22-8.6L119.8,343.5z"/>
<path class="st0" d="M121.2,347.4l-17.6,14.2l-2.8-3.4l-0.7,0.6l4.3,5.3l18.4-14.9L121.2,347.4z"/>
<path class="st0" d="M124.3,350.7L109,367.4l-3.3-3l-0.6,0.7l5,4.6l15.9-17.5L124.3,350.7z"/>
<path class="st0" d="M127.5,353.8L115.5,373l-3.7-2.4l-0.5,0.8l5.8,3.6l12.6-20L127.5,353.8z"/>
<path class="st0" d="M132.5,356.5l-8.6,21l-4.1-1.7l-0.4,0.9l6.3,2.6l8.9-21.9L132.5,356.5z"/>
<path class="st0" d="M226.7,390.9l-5.3,24.6l12.9-3.1l0.2,0.9l-15.6,3.7l-0.2-0.9l5.4-24.6L226.7,390.9z"/>
<path class="st0" d="M237.3,380.7l14.3-20.3l-12.5-2.1l0.2-1.2l16.3,2.7l-0.2,1.2l-14.2,20.3L237.3,380.7z"/>
<path class="st0" d="M239.2,387l0.9-0.4l11.2,16.4l-0.7,0.7L239.2,387z M228.9,395.5l21.3,7.1l0.2,0.1l0.9,0.3l-0.7,2.2l-22.4-7.5
	L228.9,395.5z M239.2,386.3l0.9,0.3l-5.7,17.1l-0.9-0.3L239.2,386.3z"/>
<path class="st0" d="M215.9,376.9c-0.8-1.1-1.3-2.3-1.7-3.5c-0.3-1.2-0.4-2.4-0.2-3.6c0.2-1.2,0.8-2.5,1.7-3.7
	c0.9-1.2,2.2-2.4,3.9-3.6c1.5-1,2.9-1.8,4.3-2.3c1.4-0.5,2.7-0.8,3.9-0.8c1.2,0,2.4,0.2,3.4,0.6c1.1,0.4,2.1,1,3,1.8
	c0.9,0.8,1.8,1.8,2.6,3c0.3,0.5,0.7,1,1,1.5c0.3,0.5,0.6,1,0.8,1.6c0.3,0.5,0.5,1.1,0.7,1.7l-1.2,0.8c-0.3-0.7-0.7-1.4-1-2
	c-0.3-0.6-0.7-1.2-1.1-1.8c-0.8-1.2-1.6-2.2-2.5-2.8c-0.8-0.6-1.7-1-2.7-1.1c-0.9-0.1-2,0.1-3.2,0.6c-1.2,0.5-2.5,1.2-4.1,2.3
	c0.6-0.1,1.2,0,1.7,0.2c0.6,0.2,1.1,0.4,1.6,0.8c0.5,0.3,0.9,0.7,1.4,1.2c0.4,0.5,0.8,1,1.2,1.5c0.7,1,1.1,1.9,1.4,2.9
	c0.3,1,0.4,1.9,0.3,2.9c-0.1,0.9-0.4,1.8-1,2.7c-0.5,0.9-1.3,1.7-2.4,2.4c-1.1,0.8-2.3,1.2-3.4,1.4c-1.1,0.2-2.2,0-3.2-0.3
	c-1-0.4-2-0.9-2.9-1.7C217.5,378.9,216.7,378,215.9,376.9z M217.1,375.9c0.4,0.6,0.9,1.1,1.3,1.5c0.5,0.4,1,0.6,1.6,0.7
	c0.6,0.1,1.3,0,2-0.3c0.8-0.3,1.7-0.7,2.7-1.4c1-0.7,1.8-1.3,2.3-2c0.5-0.6,0.9-1.2,1-1.8c0.2-0.6,0.2-1.2,0-1.8
	c-0.2-0.6-0.5-1.2-0.9-1.8c-0.4-0.6-0.9-1.1-1.4-1.5c-0.5-0.4-1-0.6-1.6-0.7c-0.6-0.1-1.3,0-2.1,0.3c-0.8,0.3-1.7,0.8-2.7,1.5
	c-1,0.7-1.8,1.3-2.3,1.9c-0.5,0.6-0.9,1.2-1,1.8c-0.1,0.6-0.1,1.2,0,1.8C216.3,374.7,216.6,375.3,217.1,375.9z"/>
<path class="st0" d="M136.7,360.3c-0.1-1-0.2-2.1-0.2-3.2c0-1.1,0-2.2,0.1-3.2l1.1-0.1c0,0.9,0,1.8,0,2.7c0,0.9,0.1,1.8,0.2,2.7
	c0.2,1.7,0.5,3.1,1,4.1c0.5,1,1.2,1.8,2,2.2c0.9,0.4,2,0.6,3.3,0.4c1.3-0.1,2.3-0.5,3-1.1c0.7-0.6,1.2-1.4,1.4-2.4
	c0.3-1,0.3-2.2,0.1-3.6l-0.4-3.5l1.3-0.1l0.4,3.3c0.1,0.9,0.3,1.8,0.5,2.5c0.2,0.7,0.5,1.4,0.9,1.9c0.4,0.5,0.9,0.9,1.5,1.1
	c0.6,0.2,1.4,0.3,2.4,0.2c1.3-0.2,2.3-0.5,2.9-1.1c0.6-0.6,1-1.4,1.1-2.5c0.1-1,0.1-2.3-0.1-3.8c-0.1-0.9-0.2-1.8-0.4-2.7
	c-0.2-0.9-0.4-1.8-0.6-2.6l1.1-0.1c0.3,1,0.6,2,0.8,3.1c0.2,1.1,0.4,2.1,0.5,3.1c0.1,1.2,0.2,2.4,0.1,3.5c0,1.1-0.2,2.2-0.5,3.1
	c-0.3,1-0.8,1.7-1.5,2.4c-0.7,0.6-1.6,1-2.8,1.1c-0.8,0.1-1.6,0-2.3-0.2c-0.7-0.3-1.4-0.7-2-1.4c-0.6-0.7-1.1-1.6-1.5-2.8
	c0,0.9-0.2,1.8-0.5,2.5c-0.3,0.8-0.6,1.4-1.1,1.9c-0.5,0.5-1,1-1.7,1.3c-0.6,0.3-1.4,0.5-2.2,0.6c-1.3,0.1-2.4,0-3.3-0.5
	c-0.9-0.4-1.7-1.1-2.3-2c-0.6-0.9-1.1-1.9-1.5-3.1C137.1,362.9,136.8,361.6,136.7,360.3z"/>
<path class="st0" d="M165.4,357.8c-0.2-1-0.3-2-0.5-3.1c-0.1-1.1-0.2-2.2-0.2-3.2l1.1-0.2c0.1,0.9,0.1,1.8,0.2,2.7
	c0.1,0.9,0.2,1.8,0.4,2.7c0.3,1.7,0.8,3,1.3,4c0.6,1,1.3,1.7,2.2,2c0.9,0.4,2,0.4,3.3,0.2c1.3-0.3,2.2-0.7,2.9-1.4
	c0.7-0.6,1.1-1.5,1.2-2.5c0.2-1,0.1-2.2-0.2-3.6l-0.7-3.4l1.3-0.2l0.7,3.3c0.2,0.9,0.4,1.7,0.7,2.5c0.3,0.7,0.6,1.3,1,1.8
	c0.4,0.5,1,0.8,1.6,1c0.6,0.2,1.4,0.2,2.4,0c1.3-0.3,2.2-0.7,2.8-1.4c0.5-0.7,0.8-1.5,0.9-2.6c0-1-0.1-2.3-0.4-3.7
	c-0.2-0.9-0.4-1.8-0.6-2.6c-0.2-0.9-0.5-1.7-0.8-2.5l1.1-0.2c0.4,1,0.7,2,1.1,3c0.3,1.1,0.6,2.1,0.8,3.1c0.2,1.2,0.4,2.4,0.4,3.5
	c0.1,1.1,0,2.2-0.3,3.2c-0.2,1-0.7,1.8-1.3,2.5c-0.6,0.7-1.5,1.1-2.7,1.3c-0.8,0.2-1.6,0.1-2.4-0.1c-0.8-0.2-1.5-0.6-2.1-1.2
	c-0.6-0.6-1.2-1.5-1.7-2.7c0,1-0.1,1.8-0.3,2.6c-0.2,0.8-0.5,1.4-0.9,2c-0.4,0.6-0.9,1.1-1.5,1.4c-0.6,0.4-1.3,0.7-2.2,0.8
	c-1.3,0.3-2.4,0.2-3.4-0.2c-1-0.4-1.8-1-2.5-1.8c-0.7-0.8-1.3-1.8-1.7-3C166,360.3,165.7,359.1,165.4,357.8z"/>
<path class="st0" d="M191.2,353.7c-0.2-1-0.3-2-0.5-3.1c-0.1-1.1-0.2-2.2-0.2-3.2l1.1-0.2c0.1,0.9,0.1,1.8,0.2,2.7
	c0.1,0.9,0.2,1.8,0.4,2.7c0.3,1.7,0.8,3,1.3,4c0.6,1,1.3,1.7,2.2,2c0.9,0.4,2,0.4,3.3,0.2c1.3-0.3,2.2-0.7,2.9-1.4
	c0.7-0.6,1.1-1.5,1.2-2.5c0.2-1,0.1-2.2-0.2-3.6l-0.7-3.4l1.3-0.2l0.7,3.3c0.2,0.9,0.4,1.7,0.7,2.5c0.3,0.7,0.6,1.3,1,1.8
	c0.4,0.5,1,0.8,1.6,1c0.6,0.2,1.4,0.2,2.4,0c1.3-0.3,2.2-0.7,2.8-1.4c0.5-0.7,0.8-1.5,0.9-2.6c0-1-0.1-2.3-0.4-3.7
	c-0.2-0.9-0.4-1.8-0.6-2.6c-0.2-0.9-0.5-1.7-0.8-2.6l1.1-0.2c0.4,1,0.7,2,1.1,3c0.3,1.1,0.6,2.1,0.8,3.1c0.2,1.2,0.4,2.4,0.4,3.5
	c0.1,1.1,0,2.2-0.3,3.2c-0.2,1-0.7,1.8-1.3,2.5c-0.6,0.7-1.5,1.1-2.7,1.3c-0.8,0.2-1.6,0.1-2.4-0.1c-0.8-0.2-1.5-0.6-2.1-1.2
	c-0.6-0.6-1.2-1.5-1.7-2.7c0,0.9-0.1,1.8-0.3,2.6c-0.2,0.8-0.5,1.4-0.9,2c-0.4,0.6-0.9,1.1-1.5,1.4c-0.6,0.4-1.3,0.7-2.2,0.8
	c-1.3,0.3-2.4,0.2-3.4-0.2c-1-0.4-1.8-1-2.5-1.8c-0.7-0.8-1.3-1.8-1.7-3C191.8,356.3,191.4,355,191.2,353.7z"/>
<path class="st0" d="M146.8,330.9l0.2,0.8l-4.5,8.3c-0.5,1-1,1.9-1.4,2.7c-0.4,0.8-0.8,1.6-1,2.4c-0.2,0.6-0.3,1.2-0.4,1.7
	c0,0.6,0,1.1,0.1,1.7c0.2,0.9,0.5,1.5,1,2c0.4,0.5,0.9,0.8,1.5,1c0.6,0.2,1.3,0.3,2.1,0.2c0.8,0,1.7-0.2,2.7-0.4
	c0.7-0.2,1.4-0.4,2-0.7c0.7-0.2,1.3-0.5,1.8-0.7l0.2,0.7c-0.4,0.2-0.7,0.4-1.1,0.5c-0.4,0.2-0.8,0.3-1.2,0.4
	c-0.4,0.2-0.8,0.3-1.2,0.4c-0.4,0.1-0.8,0.2-1.2,0.3c-1.1,0.3-2.1,0.4-3.1,0.5c-1,0.1-1.8,0-2.6-0.2s-1.4-0.6-1.9-1.2
	c-0.5-0.6-0.9-1.4-1.2-2.4c-0.2-0.7-0.2-1.4-0.2-2.2c0.1-0.7,0.2-1.4,0.5-2.2c0.3-0.8,0.6-1.7,1.1-2.6c0.4-0.9,1-1.9,1.6-2.9
	l3.7-6.8l-11,2.8l-0.2-0.8L146.8,330.9z"/>
<path class="st0" d="M162.8,351.1l-1.1-0.9l-1.8-10.1c-0.1-0.8-0.3-1.6-0.4-2.3c-0.1-0.7-0.3-1.4-0.5-1.9c-0.2-0.5-0.4-1-0.7-1.3
	c-0.3-0.4-0.6-0.7-1-1c-0.6-0.5-1.2-0.8-1.8-0.9c-0.6-0.1-1.1-0.1-1.7,0.1c-0.6,0.2-1.1,0.5-1.6,1c-0.5,0.5-1.1,1-1.6,1.7
	c-0.4,0.5-0.8,1.1-1.2,1.7c-0.4,0.6-0.7,1.1-1,1.6l-1-0.8c0.2-0.4,0.4-0.8,0.7-1.2c0.2-0.4,0.5-0.8,0.7-1.2s0.5-0.8,0.8-1.1
	c0.3-0.4,0.5-0.7,0.8-1.1c0.9-1.1,1.8-2,2.6-2.7c0.8-0.7,1.7-1.2,2.5-1.4c0.8-0.3,1.6-0.3,2.4-0.1c0.8,0.2,1.6,0.6,2.3,1.2
	c0.5,0.4,1,1,1.3,1.5c0.4,0.6,0.7,1.2,0.9,1.9c0.3,0.7,0.5,1.6,0.6,2.4c0.2,0.9,0.3,1.8,0.5,2.8l1.2,7.4l6.5-7.9l1.1,0.9
	L162.8,351.1z"/>
<path class="st0" d="M225.7,326.6c-1.8,0.3-3.4,0.4-4.8,0.1c-1.4-0.3-2.7-0.9-3.8-1.8c-1.1-0.9-1.9-2-2.7-3.4
	c-0.7-1.4-1.3-3-1.6-4.8c-0.3-1.8-0.4-3.5-0.3-5c0.2-1.6,0.6-2.9,1.2-4.1c0.7-1.2,1.6-2.2,2.9-3c1.2-0.8,2.7-1.4,4.5-1.7
	c1.8-0.3,3.4-0.4,4.8,0c1.4,0.3,2.7,0.9,3.8,1.8s2,2,2.7,3.4c0.7,1.4,1.2,2.9,1.6,4.7c0.3,1.8,0.4,3.5,0.3,5
	c-0.2,1.5-0.6,2.9-1.3,4.1c-0.7,1.2-1.6,2.2-2.8,3C228.9,325.7,227.4,326.3,225.7,326.6z M225.3,324.6c0.8-0.2,1.5-0.4,2-0.8
	c0.5-0.4,0.8-1,0.9-1.8c0.2-0.8,0.2-1.8,0-3.1c-0.1-1.3-0.4-2.9-0.7-4.9c-0.4-1.9-0.7-3.5-1.1-4.7c-0.3-1.3-0.7-2.2-1.2-2.9
	c-0.4-0.7-0.9-1.2-1.5-1.4c-0.6-0.2-1.3-0.2-2.1-0.1c-0.8,0.2-1.5,0.4-2,0.9c-0.5,0.4-0.8,1-1,1.8c-0.1,0.8-0.2,1.9,0,3.2
	c0.1,1.3,0.4,2.9,0.7,4.8c0.4,1.9,0.7,3.6,1.1,4.8c0.4,1.2,0.8,2.2,1.2,2.9c0.5,0.7,1,1.1,1.6,1.3
	C223.7,324.7,224.4,324.7,225.3,324.6z"/>
<path class="st0" d="M228.9,341c0.7-0.2,1.1-0.4,1.5-0.7c0.3-0.3,0.5-0.8,0.5-1.4c0-0.6-0.2-1.5-0.5-2.7c-0.3-1.1-0.7-1.9-1-2.4
	c-0.3-0.5-0.7-0.8-1.2-0.9c-0.4-0.1-1-0.1-1.6,0.1c-0.7,0.2-1.1,0.5-1.5,0.8c-0.3,0.3-0.5,0.8-0.4,1.4c0,0.6,0.2,1.5,0.5,2.5
	c0.4,1.2,0.7,2,1,2.5c0.3,0.5,0.7,0.8,1.1,0.9C227.7,341.3,228.2,341.2,228.9,341z M232.9,354.3c-1.8,0.5-3.4,0.9-4.8,1
	c-1.4,0.1-2.7,0-3.7-0.3c-1.1-0.3-1.9-0.8-2.6-1.5c-0.7-0.7-1.2-1.6-1.5-2.6c-0.2-0.8-0.3-1.5-0.3-2.2c0-0.7,0.3-1.5,0.6-2.2
	c0.4-0.7,1-1.4,1.8-2.1c0.8-0.7,1.9-1.3,3.3-2l6.6-2c1.5-0.2,2.7-0.3,3.8-0.2c1.1,0.1,1.9,0.3,2.7,0.7c0.7,0.4,1.3,0.9,1.7,1.5
	c0.4,0.6,0.8,1.3,1,2c0.4,1.4,0.4,2.7-0.1,3.9c-0.5,1.2-1.4,2.3-2.8,3.4C237.2,352.7,235.3,353.6,232.9,354.3z M232.2,352.2
	c0.7-0.2,1.2-0.5,1.5-0.9c0.3-0.4,0.5-0.9,0.5-1.6c0-0.7-0.1-1.6-0.5-2.7c-0.3-1.1-0.7-2-1.2-2.6c-0.4-0.6-0.9-1-1.4-1.2
	s-1.1-0.1-1.8,0.1c-0.7,0.2-1.2,0.5-1.5,0.9c-0.3,0.4-0.5,1-0.5,1.7c0,0.7,0.2,1.6,0.5,2.8c0.3,1.1,0.7,2,1.1,2.5
	c0.4,0.6,0.9,0.9,1.4,1.1C231,352.4,231.6,352.4,232.2,352.2z M226,343.9c-1.3,0.3-2.5,0.4-3.4,0.3c-1-0.1-1.8-0.3-2.4-0.6
	c-0.7-0.3-1.2-0.8-1.6-1.3c-0.4-0.6-0.7-1.2-0.9-1.9c-0.4-1.4-0.4-2.6,0-3.7c0.4-1.2,1.3-2.2,2.7-3.1c1.3-0.9,3.2-1.8,5.5-2.5
	c1.8-0.5,3.3-0.9,4.7-1c1.4-0.1,2.5,0,3.5,0.2c1,0.3,1.8,0.8,2.4,1.4c0.6,0.7,1.1,1.5,1.4,2.5c0.2,0.7,0.3,1.4,0.3,2.1
	c0,0.7-0.2,1.3-0.6,2c-0.4,0.6-0.9,1.3-1.7,1.9c-0.8,0.6-1.8,1.2-3,1.7L226,343.9z"/>
<path class="st0" d="M212.6,287.8l0.6-1l13.7,6.7l0.1,1.4L212.6,287.8z M208.7,296.8l16.8-3.3l0.1,0.2l1.3-0.2l0.7,3.4l-18.1,3.5
	L208.7,296.8z M212,287l1.2-0.2l2.9,14.9l-1.2,0.2L212,287z"/>
<path class="st0" d="M327.7,292.6l21.5-7.3l-1.4-4.2l0.9-0.3l2.2,6.5l-22.4,7.6L327.7,292.6z"/>
<path class="st0" d="M329.2,297.9l22.3-3.7l-0.7-4.4l0.9-0.2l1.1,6.7l-23.3,3.9L329.2,297.9z"/>
<path class="st0" d="M330,302.1l22.4,3.2l0.6-4.4l1,0.1l-1,6.7l-23.4-3.3L330,302.1z"/>
<path class="st0" d="M329.1,306.4l21.7,6.6l1.3-4.2l0.9,0.3l-2,6.5l-22.6-6.9L329.1,306.4z"/>
<path class="st0" d="M327.9,310.8l20.2,10.3l2-3.9l0.9,0.4l-3.1,6.1l-21-10.7L327.9,310.8z"/>
<path class="st0" d="M325,315.6l18.1,13.6l2.7-3.5l0.8,0.6l-4.1,5.4l-18.9-14.2L325,315.6z"/>
<path class="st0" d="M246.3,341.2c-0.2-1-0.3-2-0.4-3.1c-0.1-1.1-0.1-2.2-0.2-3.2l1.1-0.2c0.1,0.9,0.1,1.8,0.2,2.7
	c0.1,0.9,0.2,1.8,0.4,2.7c0.3,1.7,0.7,3,1.3,4c0.6,1,1.3,1.7,2.2,2c0.9,0.4,2,0.4,3.3,0.2c1.3-0.2,2.2-0.7,2.9-1.3
	c0.7-0.6,1.1-1.5,1.3-2.5c0.2-1,0.1-2.2-0.1-3.6l-0.6-3.4l1.3-0.2l0.6,3.3c0.2,0.9,0.4,1.8,0.6,2.5c0.3,0.7,0.6,1.3,1,1.8
	c0.4,0.5,0.9,0.8,1.6,1c0.6,0.2,1.4,0.2,2.4,0c1.3-0.2,2.2-0.7,2.8-1.3c0.5-0.6,0.8-1.5,0.9-2.6c0-1.1-0.1-2.3-0.4-3.7
	c-0.2-0.9-0.4-1.8-0.6-2.6c-0.2-0.9-0.5-1.7-0.8-2.6l1.1-0.2c0.4,1,0.7,2,1,3c0.3,1.1,0.6,2.1,0.7,3.1c0.2,1.2,0.4,2.4,0.4,3.5
	s-0.1,2.2-0.3,3.2c-0.2,1-0.7,1.8-1.3,2.5c-0.6,0.7-1.5,1.1-2.7,1.3c-0.8,0.2-1.6,0.1-2.4-0.1c-0.8-0.2-1.5-0.6-2.1-1.3
	c-0.6-0.6-1.2-1.5-1.7-2.7c0,1-0.1,1.8-0.3,2.6c-0.2,0.8-0.5,1.4-1,2c-0.4,0.6-0.9,1-1.6,1.4c-0.6,0.4-1.3,0.6-2.2,0.8
	c-1.3,0.2-2.4,0.2-3.4-0.2c-1-0.4-1.8-1-2.5-1.8c-0.7-0.8-1.2-1.8-1.7-3C246.8,343.8,246.5,342.6,246.3,341.2z"/>
<path class="st0" d="M271.9,335.3c-0.2-1-0.3-2-0.4-3.1c-0.1-1.1-0.1-2.2-0.1-3.2l1.1-0.2c0.1,0.9,0.1,1.8,0.2,2.7
	c0.1,0.9,0.2,1.8,0.4,2.7c0.3,1.7,0.7,3,1.3,4c0.6,1,1.3,1.7,2.2,2c0.9,0.4,2,0.4,3.3,0.2c1.3-0.2,2.2-0.7,2.9-1.3
	c0.7-0.6,1.1-1.5,1.3-2.5c0.2-1,0.1-2.2-0.1-3.6l-0.6-3.4l1.3-0.2l0.6,3.3c0.2,0.9,0.4,1.8,0.6,2.5c0.3,0.7,0.6,1.3,1,1.8
	c0.4,0.5,0.9,0.8,1.6,1c0.6,0.2,1.4,0.2,2.4,0c1.3-0.2,2.2-0.7,2.8-1.3c0.5-0.6,0.8-1.5,0.9-2.6c0-1-0.1-2.3-0.4-3.7
	c-0.2-0.9-0.4-1.8-0.6-2.6c-0.2-0.9-0.5-1.7-0.8-2.6l1.1-0.2c0.4,1,0.7,2,1,3c0.3,1.1,0.6,2.1,0.7,3.1c0.2,1.2,0.4,2.4,0.4,3.5
	c0,1.1-0.1,2.2-0.3,3.2c-0.2,1-0.7,1.8-1.3,2.5s-1.5,1.1-2.7,1.3c-0.8,0.2-1.6,0.1-2.4-0.1c-0.8-0.2-1.5-0.6-2.1-1.3
	c-0.6-0.6-1.2-1.5-1.7-2.7c0,0.9-0.1,1.8-0.3,2.6c-0.2,0.8-0.5,1.4-1,2c-0.4,0.6-0.9,1-1.6,1.4c-0.6,0.4-1.3,0.6-2.2,0.8
	c-1.3,0.2-2.4,0.2-3.4-0.2c-1-0.4-1.8-1-2.5-1.8c-0.7-0.8-1.2-1.8-1.7-3C272.5,337.9,272.1,336.7,271.9,335.3z"/>
<path class="st0" d="M299.5,329.3c-0.2-1-0.3-2-0.4-3.1c-0.1-1.1-0.1-2.2-0.1-3.2l1.1-0.2c0.1,0.9,0.1,1.8,0.2,2.7
	c0.1,0.9,0.2,1.8,0.4,2.7c0.3,1.7,0.7,3,1.3,4c0.6,1,1.3,1.7,2.2,2c0.9,0.4,2,0.4,3.3,0.2c1.3-0.2,2.2-0.7,2.9-1.3
	c0.7-0.6,1.1-1.5,1.3-2.5c0.2-1,0.1-2.2-0.1-3.6l-0.7-3.4l1.3-0.2l0.6,3.3c0.2,0.9,0.4,1.8,0.6,2.5c0.3,0.7,0.6,1.3,1,1.8
	c0.4,0.5,0.9,0.8,1.6,1c0.6,0.2,1.4,0.2,2.4,0c1.3-0.2,2.2-0.7,2.8-1.3c0.6-0.6,0.8-1.5,0.9-2.6c0-1.1-0.1-2.3-0.4-3.7
	c-0.2-0.9-0.4-1.8-0.6-2.6c-0.2-0.9-0.5-1.7-0.8-2.6l1.1-0.2c0.4,1,0.7,2,1,3c0.3,1.1,0.6,2.1,0.7,3.1c0.2,1.2,0.4,2.4,0.4,3.5
	c0,1.1-0.1,2.2-0.3,3.2c-0.2,1-0.7,1.8-1.3,2.5c-0.6,0.7-1.5,1.1-2.7,1.3c-0.8,0.2-1.6,0.1-2.4-0.1c-0.8-0.2-1.5-0.6-2.1-1.3
	c-0.6-0.6-1.2-1.5-1.7-2.7c0,1-0.1,1.8-0.3,2.6c-0.2,0.8-0.5,1.4-1,2c-0.4,0.6-0.9,1-1.6,1.4c-0.6,0.4-1.3,0.6-2.2,0.8
	c-1.3,0.2-2.4,0.2-3.4-0.2c-1-0.4-1.8-1-2.5-1.8c-0.7-0.8-1.2-1.8-1.7-3C300.1,331.9,299.8,330.6,299.5,329.3z"/>
<path class="st0" d="M293.3,298.1l0.2,0.8l-4.6,8.3c-0.5,1-1,1.9-1.5,2.7c-0.4,0.8-0.8,1.6-1,2.4c-0.2,0.6-0.3,1.2-0.4,1.7
	c-0.1,0.6,0,1.1,0.1,1.7c0.2,0.9,0.5,1.6,1,2c0.4,0.5,0.9,0.8,1.5,1c0.6,0.2,1.3,0.3,2.1,0.2c0.8,0,1.7-0.2,2.7-0.4
	c0.7-0.2,1.4-0.4,2-0.6c0.7-0.2,1.3-0.5,1.8-0.7l0.2,0.7c-0.4,0.2-0.7,0.4-1.1,0.5c-0.4,0.2-0.8,0.3-1.2,0.4
	c-0.4,0.2-0.8,0.3-1.2,0.4c-0.4,0.1-0.8,0.2-1.2,0.3c-1.1,0.3-2.1,0.4-3.1,0.5c-1,0.1-1.8,0-2.6-0.3c-0.8-0.2-1.4-0.7-1.9-1.3
	c-0.5-0.6-0.9-1.4-1.2-2.4c-0.2-0.7-0.2-1.4-0.2-2.2c0.1-0.7,0.2-1.4,0.5-2.2c0.3-0.8,0.7-1.7,1.1-2.6c0.5-0.9,1-1.9,1.6-2.9
	l3.8-6.8l-11,2.7l-0.2-0.8L293.3,298.1z"/>
<path class="st0" d="M310.5,316.6c-1.3-0.1-2.6-0.3-3.7-0.8c-1.1-0.4-2.1-1.1-2.9-2c-0.8-0.9-1.4-2.1-1.8-3.5
	c-0.4-1.4-0.5-3.2-0.4-5.2c0.1-1.7,0.3-3.3,0.7-4.6s0.9-2.5,1.6-3.5c0.7-1,1.5-1.8,2.4-2.5c0.9-0.7,2-1.1,3.2-1.4
	c1.2-0.3,2.5-0.4,3.9-0.3c0.6,0,1.1,0.1,1.7,0.1c0.6,0.1,1.1,0.2,1.6,0.3c0.5,0.1,1.1,0.2,1.7,0.4l-0.1,1.2
	c-0.7-0.1-1.4-0.3-2.1-0.4c-0.7-0.1-1.4-0.2-2.1-0.2c-1.5-0.1-2.8,0.1-3.9,0.4c-1.1,0.3-1.9,0.9-2.6,1.7c-0.7,0.8-1.2,1.9-1.5,3.2
	c-0.3,1.3-0.6,2.9-0.7,4.8c0.3-0.6,0.7-1.1,1.2-1.5c0.5-0.4,1-0.7,1.6-0.9c0.6-0.2,1.2-0.4,1.9-0.4c0.7-0.1,1.3-0.1,2-0.1
	c1.1,0.1,2.2,0.3,3.1,0.6c1,0.3,1.8,0.8,2.5,1.5c0.7,0.7,1.2,1.5,1.6,2.4c0.4,1,0.5,2.1,0.5,3.4c-0.1,1.4-0.4,2.6-0.9,3.5
	c-0.5,1-1.2,1.8-2.1,2.4c-0.9,0.6-1.8,1-2.9,1.2C312.9,316.5,311.7,316.6,310.5,316.6z M310.5,315.3c0.9,0,1.6,0,2.3-0.2
	c0.7-0.2,1.3-0.5,1.8-0.9c0.5-0.5,0.9-1.1,1.2-1.9c0.3-0.8,0.5-1.8,0.5-3c0.1-1.3,0-2.3-0.2-3.1c-0.2-0.8-0.5-1.5-1-2
	c-0.4-0.5-1-0.9-1.7-1.1c-0.6-0.2-1.4-0.4-2.3-0.4c-0.9,0-1.6,0-2.3,0.2c-0.7,0.2-1.3,0.5-1.8,0.9c-0.5,0.5-0.9,1.1-1.2,1.9
	c-0.3,0.8-0.4,1.8-0.5,3.1c-0.1,1.2,0,2.3,0.2,3.1c0.2,0.8,0.5,1.5,1,2c0.4,0.5,1,0.9,1.7,1.1C308.8,315.2,309.6,315.3,310.5,315.3z
	"/>
<path class="st0" d="M265.6,404.2c-0.6,0.4-1.2,0.8-1.8,1.2c-0.6,0.4-1.3,0.8-1.9,1.2c-0.6,0.4-1.3,0.7-1.9,1l-0.5-0.7
	c0.8-0.4,1.6-0.9,2.4-1.4c0.8-0.5,1.7-1.1,2.5-1.7c1.1-0.8,1.9-1.6,2.5-2.3c0.6-0.8,1-1.5,1.1-2.3c0.2-0.8,0.1-1.5-0.1-2.3
	c-0.3-0.8-0.7-1.7-1.3-2.5c-0.8-1.2-1.7-1.9-2.7-2.3c-0.9-0.4-2-0.5-3.1-0.2c-1.1,0.3-2.3,0.9-3.7,1.9l-4.2,3.1l-6.2-8.4l11.1-8.1
	l0.6,0.8l-9.3,6.8l5,6.9l2.8-2c1.3-1,2.5-1.7,3.6-2.1c1.1-0.5,2.1-0.7,3.1-0.7c1,0,1.9,0.3,2.7,0.8c0.8,0.5,1.6,1.2,2.3,2.1
	c0.7,1,1.2,2,1.4,3c0.2,1,0.2,1.9-0.1,2.9s-0.8,1.9-1.5,2.8C267.8,402.4,266.8,403.3,265.6,404.2z"/>
<path class="st0" d="M271.2,322.8l-28.4-7.8l2.7,14.8L244,330l-3.5-19.3l1.5-0.3l28.4,7.8L271.2,322.8z"/>
<path class="st0" d="M198.8,320.1c0.5-0.2,1-0.5,1.5-0.6c0.5-0.2,1-0.4,1.6-0.5c0.5-0.1,1.1-0.3,1.6-0.4l0.5,1
	c-0.7,0.2-1.4,0.4-2,0.6c-0.6,0.2-1.3,0.5-2,0.8c-1.4,0.6-2.4,1.3-3.2,2.1c-0.8,0.8-1.3,1.7-1.5,2.7c-0.2,1-0.2,2.2,0.1,3.5
	c0.3,1.3,0.8,2.9,1.6,4.6c0-0.7,0.1-1.4,0.4-2c0.3-0.6,0.6-1.1,1-1.5c0.4-0.5,0.9-0.9,1.5-1.2c0.6-0.4,1.1-0.7,1.8-1
	c1-0.5,2-0.8,3-0.9c1-0.1,2,0,2.9,0.2c0.9,0.3,1.8,0.8,2.6,1.5c0.8,0.7,1.4,1.6,2,2.8c0.6,1.3,0.9,2.5,0.9,3.5c0,1.1-0.3,2.1-0.8,3
	c-0.5,0.9-1.1,1.7-2,2.5c-0.9,0.7-1.8,1.3-2.9,1.9c-1.2,0.6-2.4,0.9-3.6,1.1c-1.2,0.1-2.4,0-3.5-0.4c-1.1-0.4-2.2-1.2-3.2-2.2
	c-1-1.1-2-2.5-2.9-4.4c-0.8-1.6-1.3-3-1.6-4.4c-0.3-1.4-0.4-2.7-0.3-3.9c0.1-1.2,0.4-2.3,1-3.4c0.5-1,1.2-1.9,2.2-2.7
	C196.4,321.5,197.5,320.8,198.8,320.1z M201.3,330c-0.8,0.4-1.4,0.8-1.9,1.3c-0.5,0.5-0.9,1-1.1,1.7c-0.2,0.7-0.3,1.4-0.1,2.3
	c0.1,0.9,0.5,1.9,1,3c0.5,1.1,1.1,2,1.6,2.6c0.6,0.7,1.2,1.1,1.8,1.3c0.6,0.2,1.3,0.3,2,0.2c0.7-0.1,1.4-0.3,2.2-0.7
	c0.8-0.4,1.4-0.8,2-1.3c0.5-0.5,0.9-1,1.1-1.7c0.2-0.6,0.3-1.4,0.2-2.2c-0.1-0.9-0.5-1.8-1-2.9c-0.5-1.1-1.1-2-1.6-2.7
	c-0.6-0.6-1.2-1.1-1.8-1.3c-0.6-0.2-1.3-0.3-2-0.2C202.8,329.4,202.1,329.6,201.3,330z"/>
<path class="st0" d="M274.5,314.8l-0.5,0.9l-14.9-5.9l0-1.1L274.5,314.8z M277.7,304.7l-17.3,4.9l-0.2-0.1l-1,0.3l-0.7-2.7l18.5-5.2
	L277.7,304.7z M275,315.4l-1,0.3l-4.1-14.7l1-0.3L275,315.4z"/>
<path class="st0" d="M170.1,331.2c-0.1-0.6-0.2-1.2-0.3-1.8c-0.1-0.6-0.2-1.2-0.2-1.9c0-0.6-0.1-1.2-0.1-1.9l0.9-0.2
	c0.1,0.8,0.2,1.6,0.3,2.4c0.1,0.8,0.2,1.6,0.4,2.4c0.2,1,0.5,1.8,0.8,2.5c0.3,0.7,0.8,1.2,1.2,1.5c0.5,0.3,1.1,0.5,1.7,0.6
	c0.7,0.1,1.4,0,2.2-0.1c1.1-0.2,1.9-0.6,2.5-1.1c0.6-0.5,1-1.2,1.1-2c0.1-0.8,0.1-1.9-0.2-3.1l-0.9-4.4l8.4-1.8l2.4,11.6l-1,0.2
	l-1.8-8.9l-6.4,1.3l0.6,2.7c0.3,1.3,0.4,2.4,0.3,3.3c0,1-0.2,1.8-0.6,2.5c-0.4,0.7-0.8,1.3-1.5,1.7c-0.6,0.4-1.4,0.7-2.3,0.9
	c-1,0.2-2,0.2-2.8,0c-0.8-0.2-1.5-0.6-2.2-1.1c-0.6-0.6-1.1-1.3-1.6-2.2C170.7,333.4,170.4,332.4,170.1,331.2z"/>
</svg>
