<?xml version="1.0" encoding="UTF-8"?>
<svg id="Layer_1" data-name="Layer 1" xmlns="http://www.w3.org/2000/svg" viewBox="0 0 546 557">
  <defs>
    <style>
      .cls-1 {
        fill: #be9961;
      }

      .cls-1, .cls-2 {
        stroke-width: 0px;
      }

      .cls-2 {
        fill: #a55050;
      }
    </style>
  </defs>
  <path class="cls-1" d="m546.27,521.64c-.09.09-.18.17-.28.25-1.97,1.82-4.12,3.44-6.41,4.86-.84.51-1.7,1-2.58,1.46-2.79,1.47-5.77,2.62-8.88,3.44-.69.17-1.39.34-2.09.49-2.76.56-5.62.86-8.54.86-.38,0-.76-.01-1.14-.01-.98-.03-1.95-.09-2.91-.19-7.63-.72-14.68-3.49-20.59-7.76-.07-.05-.14-.1-.2-.14-3.35-2.45-6.34-5.38-8.85-8.69-1.76-2.31-3.3-4.81-4.57-7.47-1.46-3.04-2.57-6.28-3.29-9.67-.48-2.23-.78-4.53-.89-6.88-.04-.72-.06-1.45-.06-2.19,0-2.93.29-5.79.84-8.55.31-1.55.7-3.07,1.17-4.55.1-.32.21-.64.32-.96.88-2.6,2.01-5.09,3.35-7.43,1.26-2.21,2.71-4.29,4.33-6.22,1.57-1.89,3.3-3.64,5.18-5.23,1.3-1.12,2.67-2.15,4.1-3.09,2.86-1.89,5.95-3.44,9.23-4.58,3.08-1.09,6.32-1.83,9.67-2.17,1.42-.15,2.86-.22,4.31-.22,1.74,0,3.45.11,5.13.32,1.49.17,2.96.43,4.4.76,2.05.48,4.05,1.11,5.98,1.87.45.18.89.36,1.33.56,1.94.84,3.8,1.83,5.57,2.94,2.17,1.37,4.21,2.93,6.09,4.66v63.16c.1.12.19.24.28.37Z"/>
  <path class="cls-2" d="m545.99,472.65v34.7c-.34.55-.7,1.08-1.07,1.6-.53.75-1.09,1.47-1.69,2.17-.98,1.16-2.04,2.26-3.17,3.27-1.18,1.06-2.43,2.03-3.74,2.91-1.18.79-2.42,1.51-3.7,2.15-2.21,1.11-4.57,1.98-7.03,2.58-2.1.51-4.29.83-6.54.94-.51.02-1.04.03-1.56.03-1.13,0-2.24-.05-3.34-.16-5.41-.53-10.43-2.32-14.77-5.07-1.31-.83-2.55-1.74-3.72-2.73-2.84-2.41-5.26-5.27-7.14-8.47-1.76-2.96-3.05-6.21-3.79-9.66-.48-2.22-.74-4.52-.74-6.88v-.03c0-3.63.6-7.13,1.7-10.4.24-.71.5-1.42.79-2.11.17-.41.35-.81.53-1.2,1.06-2.29,2.38-4.44,3.92-6.41,2.02-2.58,4.42-4.86,7.12-6.76.11-.08.23-.16.35-.24,2.56-1.76,5.38-3.17,8.4-4.17,3.36-1.11,6.95-1.71,10.69-1.71.66,0,1.32.02,1.97.06.54.03,1.07.07,1.59.13,1.9.19,3.74.54,5.53,1.04,1.56.43,3.07.97,4.52,1.61,3.01,1.32,5.78,3.06,8.24,5.14,2.59,2.21,4.84,4.79,6.65,7.67Z"/>
  <path class="cls-1" d="m545.99,183.62v115.76c-7.43,7.01-16.22,12.59-25.92,16.33-2.61,1-5.28,1.88-8.02,2.6-2.95.79-5.97,1.42-9.05,1.85-2.3.35-4.63.58-6.99.71-1.49.09-3,.13-4.52.13-1.85,0-3.68-.06-5.49-.19-3.05-.2-6.05-.58-9-1.13-36.99-6.8-65.01-39.22-65.01-78.18s27.54-70.82,64.06-78c3.25-.64,6.57-1.08,9.95-1.31,1.81-.13,3.64-.19,5.49-.19,1.19,0,2.37.03,3.54.08,2.37.1,4.7.31,7.01.62,3.08.4,6.1.99,9.06,1.74,2.86.72,5.65,1.6,8.37,2.62,9.94,3.74,18.93,9.41,26.52,16.56Z"/>
  <path class="cls-2" d="m545.99,193.64v95.72c-6.6,7.04-14.64,12.74-23.66,16.66-2.84,1.24-5.78,2.3-8.8,3.17-3.21.93-6.52,1.63-9.91,2.1-2.36.34-4.76.55-7.18.65-.98.04-1.96.06-2.95.06-2.38,0-4.74-.11-7.06-.34-3.04-.29-6.03-.78-8.95-1.44-31.78-7.16-55.49-35.21-55.49-68.72s23.45-61.25,54.97-68.6c3.19-.75,6.46-1.28,9.79-1.59,2.22-.21,4.47-.31,6.74-.31.82,0,1.64.01,2.45.04,2.44.08,4.85.28,7.22.61,3.27.43,6.47,1.08,9.59,1.94,3.56.98,7,2.22,10.31,3.71,8.73,3.91,16.51,9.49,22.93,16.34Z"/>
  <path class="cls-1" d="m545.99,338.87v121.26c-2.12,1.73-4.35,3.35-6.65,4.85-5.86,3.84-12.26,6.93-19.07,9.12-2.33.77-4.72,1.42-7.14,1.96-3.3.74-6.68,1.28-10.13,1.59-2.3.22-4.64.33-7,.34-.17.01-.34.01-.51.01-2.87,0-5.71-.15-8.5-.45-.17-.01-.34-.03-.51-.06-3.11-.34-6.17-.86-9.16-1.55-.1-.02-.21-.05-.31-.07-35-8.23-61.02-39.3-61.02-76.37s26.06-68.19,61.1-76.38c2.92-.69,5.9-1.21,8.93-1.56,3.1-.37,6.27-.56,9.47-.56.17,0,.35,0,.52.01,2.37.01,4.71.12,7.02.35,3.06.27,6.07.73,9.02,1.35,2.97.62,5.89,1.4,8.73,2.35,9.29,3.07,17.81,7.79,25.21,13.81Z"/>
  <path class="cls-2" d="m545.99,350.38v97.24c-1.91,2.07-3.94,4.02-6.09,5.83-2.76,2.35-5.7,4.49-8.8,6.39-2.54,1.55-5.18,2.94-7.92,4.16-2.69,1.21-5.47,2.24-8.33,3.1-3.58,1.08-7.29,1.87-11.09,2.35-2.34.29-4.72.47-7.12.53-.55.01-1.1.02-1.65.02-1.36,0-2.72-.04-4.06-.12-1.15-.06-2.3-.16-3.44-.29-2.31-.24-4.58-.61-6.82-1.08-1.04-.22-2.07-.46-3.09-.73-30.24-7.85-52.59-35.67-52.59-68.78s22.45-61.06,52.8-68.83c2.86-.74,5.79-1.3,8.78-1.66,2.76-.34,5.57-.51,8.42-.51.52,0,1.05.01,1.57.02,2.43.05,4.83.23,7.2.53,3.21.41,6.35,1.04,9.41,1.88,4.01,1.08,7.88,2.52,11.57,4.29,7.83,3.73,14.86,8.89,20.78,15.15.16.17.32.34.47.51Z"/>
  <path class="cls-1" d="m546.27,521.64c-.09.09-.18.17-.28.25v35.11h-129.98c.67-36.46,25.89-66.92,59.82-75.55.41-.11.82-.21,1.24-.3,2.82-.67,5.69-1.19,8.62-1.55.44-.06.88-.11,1.32-.15,2.79-.3,5.61-.45,8.48-.45.17,0,.33,0,.5.01,2.36.01,4.7.12,7.01.34,3.41.32,6.75.85,10.02,1.6,2.46.54,4.89,1.21,7.26,2,9.48,3.1,18.18,7.94,25.71,14.14v24.18c.1.12.19.24.28.37Z"/>
  <path class="cls-2" d="m546.27,521.64c-.09.09-.18.17-.28.25v35.11h-119.97c.85-30.49,21.21-56.1,49.03-64.81,1.04-.33,2.08-.63,3.13-.9,1.91-.5,3.84-.92,5.81-1.26,1.3-.23,2.62-.42,3.94-.57,2.65-.3,5.33-.46,8.06-.46.27,0,.54,0,.81.01,2.48.02,4.92.18,7.33.46,3.63.42,7.17,1.12,10.61,2.08,3.23.89,6.36,2.01,9.38,3.34,7.78,3.41,14.81,8.2,20.8,14.06.36.34.72.7,1.07,1.06v11.26c.1.12.19.24.28.37Z"/>
  <path class="cls-1" d="m545.99,366.65v69.7c-.52.75-1.06,1.49-1.63,2.22-3.27,4.26-7.09,8.08-11.36,11.38-3.68,2.83-7.68,5.26-11.95,7.24-.75.35-1.51.68-2.27,1-4.18,1.73-8.59,3.03-13.18,3.84-2.35.42-4.76.7-7.2.85-.1.01-.19.01-.29.02-1.2.07-2.41.1-3.62.1-1.97,0-3.91-.09-5.83-.27-1.23-.11-2.45-.25-3.66-.44-2.13-.31-4.23-.74-6.29-1.27-26.88-6.88-46.72-30.91-46.72-59.52s20.62-53.58,48.3-59.91c2.88-.66,5.84-1.12,8.87-1.36,1.76-.16,3.53-.23,5.33-.23,1.67,0,3.32.06,4.95.19,2.79.22,5.53.61,8.21,1.18,4.35.91,8.53,2.27,12.49,4.03,8.16,3.62,15.38,8.9,21.23,15.42,1.65,1.84,3.2,3.79,4.62,5.83Z"/>
  <path class="cls-1" d="m546.27,521.64c-.09.09-.18.17-.28.25v35.11h-112.99c.21-27.03,18.15-49.91,42.94-57.93,1.23-.4,2.46-.76,3.72-1.08,1.66-.43,3.35-.79,5.07-1.08,1.54-.27,3.1-.47,4.68-.62,2-.19,4.03-.29,6.08-.29.96,0,1.92.02,2.88.07,2.68.11,5.33.4,7.91.85,4.23.72,8.31,1.86,12.2,3.37,8.18,3.19,15.52,8.03,21.58,14.1,2,1.99,3.85,4.12,5.55,6.36.13.17.26.34.38.52.1.12.19.24.28.37Z"/>
  <path class="cls-2" d="m545.99,537.08v19.92h-103.94c1.06-22.54,16.31-41.43,37.18-48.26,1.21-.4,2.44-.75,3.69-1.07,1.83-.46,3.7-.83,5.6-1.1,1.43-.21,2.89-.36,4.36-.45,1.19-.08,2.4-.12,3.61-.12,1.97,0,3.91.1,5.82.31,3.36.34,6.63.99,9.78,1.92,7.7,2.25,14.68,6.12,20.53,11.22,2.55,2.21,4.88,4.65,6.96,7.3.81,1.01,1.57,2.05,2.29,3.12,1.56,2.28,2.93,4.69,4.12,7.21Z"/>
  <path class="cls-2" d="m545.99,378.19v44.62c-.6,1.28-1.25,2.53-1.96,3.74-4.99,8.72-12.43,15.93-21.41,20.77-3.96,2.14-8.22,3.81-12.7,4.95-2.77.7-5.63,1.2-8.56,1.47-1.76.17-3.56.26-5.37.26-.57,0-1.14-.01-1.71-.03-1.01-.03-2-.08-2.99-.17-3.48-.28-6.87-.88-10.13-1.77-23.17-6.29-40.17-26.98-40.17-51.53s17.78-46.18,41.76-51.94c2.92-.7,5.93-1.18,9.01-1.4,1.39-.11,2.81-.16,4.23-.16,2.18,0,4.33.12,6.44.37,3.32.37,6.54,1.03,9.65,1.96,12.32,3.66,22.81,11.41,29.77,21.64,1.57,2.29,2.95,4.7,4.14,7.22Z"/>
  <path class="cls-1" d="m545.99,208.42v65.16c-1.37,2.29-2.88,4.48-4.54,6.57-6.14,7.81-14.1,14.11-23.22,18.28-3.97,1.81-8.15,3.21-12.51,4.15-2.53.56-5.12.95-7.76,1.18-1.8.16-3.63.24-5.47.24-1.58,0-3.15-.06-4.71-.17-3.08-.24-6.1-.69-9.04-1.36-27.91-6.32-48.75-31.44-48.75-61.47s20.63-54.89,48.32-61.37c3.18-.74,6.45-1.24,9.8-1.48,1.45-.1,2.91-.15,4.38-.15,1.73,0,3.45.07,5.14.21,2.64.22,5.24.6,7.78,1.14,3.97.84,7.8,2.06,11.46,3.62,9.85,4.21,18.41,10.9,24.9,19.29,1.53,1.96,2.94,4.02,4.22,6.16Z"/>
  <path class="cls-2" d="m545.99,221.04v39.92c-1,2.39-2.17,4.69-3.51,6.89-6.98,11.54-18.33,20.28-31.84,24.07-2.96.84-6.03,1.43-9.18,1.76-1.96.21-3.95.32-5.97.32-1.54,0-3.06-.06-4.56-.18-3.18-.26-6.28-.78-9.27-1.55-23.4-5.95-40.67-26.65-40.67-51.27s17.21-45.25,40.55-51.24c3.19-.83,6.51-1.37,9.91-1.62,1.33-.09,2.68-.14,4.04-.14,2.07,0,4.11.11,6.11.33,3.22.35,6.35.97,9.37,1.84,12.54,3.6,23.19,11.48,30.18,21.89,1.9,2.82,3.52,5.82,4.84,8.98Z"/>
  <ellipse class="cls-1" cx="492.99" cy="242.5" rx="43" ry="42.5"/>
  <ellipse class="cls-2" cx="493.99" cy="242.5" rx="34" ry="33.5"/>
  <path class="cls-1" d="m545.99,81.57v157.86c-3.51-.41-6.95-1.06-10.3-1.91-2.94-.76-5.82-1.68-8.61-2.75-13.77-5.27-25.71-14.26-34.57-25.74-2.1-2.73-4.03-5.59-5.77-8.58-1.99-3.41-3.72-6.98-5.2-10.69-1.29-3.27-2.38-6.65-3.23-10.13-.55-2.21-1-4.45-1.35-6.73-.49-3.08-.8-6.21-.91-9.4-.04-.99-.06-1.99-.06-3,0-40.7,30.57-74.24,70-78.93Z"/>
  <path class="cls-2" d="m545.99,91.72v138.56c-4.45-.63-8.75-1.68-12.88-3.11h-.01c-4.53-1.57-8.83-3.58-12.88-6h-.01c-4.4-2.61-8.49-5.7-12.19-9.19-3.73-3.51-7.08-7.43-9.96-11.69-2.59-3.8-4.81-7.87-6.61-12.15-1.36-3.21-2.48-6.55-3.34-9.99-.57-2.24-1.02-4.52-1.36-6.84-.45-2.98-.7-6.03-.75-9.12-.01-.4-.01-.79-.01-1.19,0-35.26,26.08-64.44,60-69.28Z"/>
  <ellipse class="cls-1" cx="493.99" cy="401.5" rx="43" ry="42.5"/>
  <path class="cls-1" d="m536.99,557h-86c.23-19.78,14.14-36.31,32.81-40.79.95-.24,1.92-.44,2.9-.6,2.37-.4,4.8-.61,7.29-.61.56,0,1.12.01,1.67.04.67.02,1.34.06,2,.11,4.24.36,8.29,1.32,12.09,2.8h.01c3.32,1.29,6.44,2.98,9.29,5.02,3.44,2.43,6.5,5.36,9.07,8.68.69.88,1.34,1.79,1.95,2.72,2.04,3.1,3.68,6.48,4.85,10.07,1.05,3.22,1.73,6.61,1.96,10.12.06.81.1,1.62.11,2.44Z"/>
  <circle class="cls-2" cx="493.49" cy="401.5" r="33.5"/>
  <path class="cls-1" d="m545.99,240.68v156.64c-3.21-.42-6.36-1.03-9.43-1.83h-.01c-3.78-.96-7.45-2.2-10.99-3.69-12.39-5.21-23.18-13.45-31.43-23.79-2.17-2.73-4.17-5.61-5.97-8.62-2.07-3.45-3.89-7.07-5.41-10.83-.93-2.27-1.75-4.6-2.46-6.97-1.11-3.7-1.95-7.51-2.5-11.42-.34-2.32-.57-4.67-.7-7.05-.05-1.14-.09-2.29-.09-3.44-.01-.23-.01-.45-.01-.68,0-2.97.16-5.9.49-8.78.29-2.63.71-5.21,1.26-7.75.74-3.5,1.72-6.9,2.92-10.2.99-2.74,2.13-5.41,3.41-7.99,1.44-2.95,3.08-5.79,4.88-8.52,9.05-13.73,22.29-24.49,37.92-30.48,2.64-1.02,5.35-1.9,8.12-2.62,3.25-.87,6.59-1.53,10-1.98Z"/>
  <path class="cls-2" d="m527.97,557h-66.96c.52-17.2,14.39-31.08,31.75-31.96h.09c.54-.03,1.09-.04,1.64-.04,4.66,0,9.1.94,13.13,2.63,3.19,1.34,6.14,3.16,8.73,5.36,1.85,1.57,3.52,3.33,4.98,5.25,0,0,0,.01,0,.01,2.92,3.85,5.01,8.35,6,13.24.36,1.78.58,3.63.63,5.51Z"/>
  <path class="cls-1" d="m546.27,521.64c-.09.09-.18.17-.28.25v34.42c-3.1-.41-6.14-.99-9.11-1.75-3.27-.83-6.45-1.86-9.54-3.07-13.85-5.47-25.8-14.7-34.58-26.45-.04-.05-.07-.09-.11-.14-2.19-2.95-4.18-6.05-5.95-9.29-1.4-2.56-2.67-5.21-3.78-7.94-1.29-3.13-2.38-6.36-3.26-9.68-.59-2.2-1.08-4.43-1.48-6.7-.58-3.31-.95-6.7-1.11-10.14-.05-1.21-.08-2.43-.08-3.65,0-.2,0-.4.01-.6-.01-.35,0-.69.01-1.03.05-2.73.24-5.43.57-8.09.28-2.28.65-4.54,1.13-6.76.64-3.06,1.46-6.07,2.45-8.99,1.04-3.09,2.27-6.09,3.67-9,1.38-2.86,2.92-5.62,4.61-8.27,8.89-13.91,21.98-24.87,37.48-31.08,3.25-1.3,6.61-2.4,10.06-3.27,2.94-.74,5.95-1.32,9.01-1.72v122.58c.1.12.19.24.28.37Z"/>
  <path class="cls-2" d="m545.99,250.71v137.58c-4.19-.59-8.26-1.55-12.18-2.85-6.74-2.24-13.02-5.46-18.67-9.5-1.02-.73-2.02-1.48-3-2.27h-.01c-5.18-4.14-9.76-9-13.56-14.43-2.66-3.77-4.95-7.81-6.81-12.08-.99-2.25-1.86-4.56-2.6-6.93-1.19-3.77-2.06-7.69-2.59-11.72-.29-2.28-.48-4.6-.55-6.95-.01-.25-.01-.5-.02-.75-.01-.43-.01-.87-.01-1.31,0-2.65.15-5.27.44-7.84.3-2.66.75-5.27,1.35-7.83.8-3.44,1.85-6.79,3.15-10.01,1.23-3.07,2.68-6.04,4.32-8.88,2.03-3.52,4.37-6.83,6.96-9.92h0c6.1-7.27,13.65-13.26,22.21-17.57,3.25-1.63,6.64-3.02,10.16-4.13h0c3.68-1.18,7.49-2.06,11.4-2.61Z"/>
  <path class="cls-2" d="m546.27,521.64c-.09.09-.18.17-.28.25v25.24c-3.8-.59-7.5-1.5-11.07-2.69-4.78-1.58-9.33-3.66-13.58-6.19,0,0,0-.01,0-.01-2.76-1.63-5.39-3.45-7.89-5.44-2.04-1.61-3.98-3.34-5.82-5.17-3.04-3.03-5.8-6.32-8.24-9.86-.59-.86-1.17-1.73-1.72-2.62-1.81-2.87-3.41-5.89-4.78-9.03-1.4-3.16-2.56-6.44-3.47-9.83-.61-2.23-1.1-4.51-1.48-6.83-.54-3.26-.86-6.61-.92-10.01-.02-.48-.02-.97-.02-1.45v-.45c0-.42.01-.84.02-1.26.05-2.26.22-4.49.48-6.7.28-2.32.67-4.61,1.17-6.86.43-1.92.93-3.81,1.52-5.67.34-1.1.71-2.18,1.11-3.26,1.25-3.41,2.77-6.7,4.53-9.84,2.02-3.64,4.36-7.07,6.97-10.27,5.7-6.95,12.7-12.79,20.63-17.13h.01c3.93-2.15,8.08-3.94,12.42-5.31,3.28-1.04,6.67-1.84,10.14-2.38v112.4c.1.12.19.24.28.37Z"/>
  <path class="cls-1" d="m546.27,521.64c-.09.09-.18.17-.28.25v17.94c-5.62-1.09-10.96-2.95-15.92-5.46-1.38-.69-2.72-1.44-4.04-2.23-4.33-2.61-8.32-5.74-11.88-9.3-1.55-1.55-3.02-3.18-4.39-4.89h-.01c-2.89-3.57-5.39-7.47-7.44-11.64-1.6-3.26-2.92-6.68-3.94-10.24-.66-2.3-1.19-4.65-1.57-7.06-.53-3.25-.81-6.59-.81-10h0c0-.35,0-.68.01-1.02.04-2.72.26-5.39.64-8.01.34-2.33.81-4.62,1.41-6.86.01-.07.03-.15.06-.22.84-3.16,1.93-6.22,3.25-9.16.65-1.48,1.37-2.93,2.15-4.35,1.51-2.78,3.23-5.43,5.13-7.92,5.88-7.73,13.53-14.02,22.35-18.3,4.7-2.27,9.73-3.98,15-5v103.1c.1.12.19.24.28.37Z"/>
  <path class="cls-1" d="m545.99,258.1v122.8c-7.13-1.36-13.83-3.98-19.85-7.62-.01,0-.01-.01-.02-.01-4.28-2.59-8.23-5.68-11.75-9.2h-.01c-4.83-4.85-8.87-10.47-11.93-16.7-1.14-2.31-2.14-4.71-2.99-7.18-1.35-3.9-2.32-7.97-2.88-12.17-.31-2.3-.5-4.64-.55-7.01v-.14c-.02-.45-.02-.91-.02-1.37,0-2.56.15-5.08.45-7.56.33-2.79.84-5.52,1.52-8.18.89-3.49,2.07-6.86,3.5-10.08,1.81-4.03,4.02-7.84,6.58-11.36,5.85-8.01,13.53-14.55,22.43-18.98h.01c4.85-2.41,10.05-4.2,15.51-5.24Z"/>
  <path class="cls-1" d="m545.99,97.99v124.02c-7.69-1.4-14.89-4.24-21.31-8.23-3.85-2.39-7.41-5.19-10.65-8.35-5.03-4.92-9.25-10.7-12.43-17.1-1.6-3.22-2.94-6.6-3.97-10.12-.7-2.33-1.27-4.73-1.69-7.17-.51-2.92-.82-5.91-.91-8.96-.03-.69-.04-1.38-.04-2.08,0-30.97,22-56.73,51-62.01Z"/>
  <path class="cls-2" d="m545.99,107.85v105.3c-1.64-.29-3.26-.65-4.84-1.09-12.5-3.47-23.16-11.36-30.18-21.89-2.25-3.35-4.12-6.98-5.56-10.82-.94-2.48-1.7-5.05-2.25-7.7-.62-2.9-1-5.89-1.12-8.95-.04-.73-.05-1.46-.05-2.2,0-26.31,18.98-48.18,44-52.65Z"/>
  <path class="cls-2" d="m545.99,267.04v104.92c-1.4-.27-2.78-.6-4.14-.99-12.31-3.49-22.81-11.28-29.77-21.64-1.7-2.51-3.18-5.17-4.43-7.96-1.81-4.03-3.13-8.33-3.89-12.82-.41-2.34-.65-4.74-.73-7.19-.02-.4-.03-.8-.03-1.2-.01-.22-.01-.44-.01-.66,0-2.79.21-5.53.63-8.21.46-2.99,1.17-5.91,2.1-8.71,1.25-3.76,2.91-7.33,4.92-10.66,7.03-11.67,18.38-20.43,31.84-24.07,1.15-.31,2.32-.58,3.51-.81Z"/>
  <path class="cls-2" d="m546.27,521.64c-.09.09-.18.17-.28.25v8.99c-1.4-.28-2.77-.62-4.12-1.01-1.66-.47-3.28-1.03-4.87-1.66-4.07-1.6-7.9-3.69-11.41-6.18-5.29-3.75-9.87-8.43-13.5-13.8-2.37-3.5-4.33-7.29-5.81-11.31-.9-2.41-1.62-4.89-2.15-7.45-.69-3.27-1.08-6.65-1.13-10.12-.01-.28-.01-.57-.01-.85s0-.57.01-.85c.04-2.79.3-5.53.76-8.2.44-2.54,1.05-5.02,1.84-7.42.36-1.13.77-2.23,1.2-3.32.9-2.23,1.94-4.38,3.12-6.44.99-1.75,2.08-3.44,3.26-5.05,7.38-10.13,18.24-17.59,30.85-20.67.65-.16,1.3-.3,1.96-.43v95.15c.1.12.19.24.28.37Z"/>
  <path class="cls-1" d="m545.99,119.73v83.54c-1.44-.27-2.84-.61-4.22-1.01-10.57-3.09-19.43-10.08-24.9-19.29-1.73-2.92-3.12-6.07-4.12-9.38-.87-2.93-1.44-5.99-1.65-9.15-.08-.97-.11-1.95-.11-2.94,0-20.77,15.07-38.06,35-41.77Z"/>
  <path class="cls-1" d="m545.99,278.93v83.14c-1.58-.33-3.12-.75-4.62-1.25-8.61-2.84-16.01-8.3-21.23-15.42-3.24-4.42-5.64-9.49-6.97-14.97-.6-2.49-.99-5.08-1.12-7.72-.04-.73-.06-1.47-.06-2.21s.02-1.46.06-2.19c.16-3.14.66-6.19,1.48-9.12,1.06-3.83,2.66-7.44,4.7-10.76,5.26-8.53,13.46-15.08,23.22-18.28,1.48-.48,2.99-.89,4.54-1.22Z"/>
  <path class="cls-1" d="m545.99,438.16v82.68c-.13-.03-.26-.06-.38-.09-3.26-.8-6.37-1.96-9.29-3.45-7.5-3.82-13.72-9.75-17.84-17.01-1.56-2.74-2.82-5.67-3.74-8.74-1.01-3.38-1.6-6.93-1.72-10.6-.02-.48-.03-.97-.03-1.45,0-1.16.05-2.31.14-3.44.25-3.09.83-6.09,1.72-8.96.97-3.14,2.29-6.13,3.93-8.91.22-.38.45-.76.68-1.13,2.1-3.33,4.65-6.34,7.56-8.98,4.89-4.39,10.8-7.69,17.34-9.51.54-.15,1.08-.28,1.63-.41Z"/>
  <path class="cls-2" d="m545.99,445.06v66.88c-.94-.23-1.86-.51-2.76-.82-8.21-2.84-15.02-8.69-19.11-16.23-1.96-3.64-3.29-7.67-3.84-11.94-.19-1.46-.29-2.94-.29-4.45s.09-2.96.28-4.4c.45-3.57,1.45-6.96,2.91-10.1.95-2.04,2.09-3.97,3.4-5.77,2.15-2.97,4.77-5.58,7.75-7.72,3.46-2.5,7.4-4.38,11.66-5.45Z"/>
  <path class="cls-2" d="m545.99,128.8v65.4c-9.93-2.13-18.25-8.43-22.93-16.9-1.74-3.15-2.97-6.59-3.59-10.24-.32-1.81-.48-3.67-.48-5.56,0-16,11.55-29.38,27-32.7Z"/>
  <path class="cls-2" d="m545.99,286.01v63.98c-.16-.04-.31-.08-.47-.12-8.82-2.26-16.25-7.79-20.78-15.15-1.82-2.95-3.17-6.21-3.96-9.66-.52-2.27-.79-4.64-.79-7.06,0-.77.03-1.53.08-2.29.25-3.4,1.03-6.66,2.26-9.69,4.01-9.84,12.81-17.38,23.66-20.01Z"/>
  <path class="cls-1" d="m118.38,338.07l-22.15,4.74-.92-4.32-.94.2,1.43,6.66,23.09-4.94-.5-2.35Z"/>
  <path class="cls-1" d="m119.82,343.47l-21.11,8.23-1.6-4.11-.89.35,2.48,6.35,22-8.58-.87-2.24Z"/>
  <path class="cls-1" d="m121.25,347.45l-17.61,14.25-2.78-3.43-.75.6,4.29,5.3,18.36-14.85-1.51-1.87Z"/>
  <path class="cls-1" d="m124.25,350.66l-15.22,16.78-3.27-2.97-.65.71,5.05,4.58,15.87-17.49-1.78-1.61Z"/>
  <path class="cls-1" d="m127.55,353.79l-12.07,19.17-3.74-2.35-.51.81,5.77,3.63,12.58-19.98-2.03-1.28Z"/>
  <path class="cls-1" d="m132.52,356.48l-8.56,20.98-4.09-1.67-.36.89,6.31,2.57,8.92-21.87-2.22-.91Z"/>
  <path class="cls-1" d="m226.66,390.89l-5.34,24.57,12.95-3.1.22.93-15.56,3.73-.22-.93,5.37-24.58,2.58-.62Z"/>
  <path class="cls-1" d="m237.31,380.74l14.27-20.29-12.5-2.1.21-1.23,16.32,2.74-.21,1.23-14.24,20.29-3.85-.65Z"/>
  <path class="cls-1" d="m239.22,387l.89-.44,11.2,16.41-.68.72-11.41-16.68Zm-10.31,8.47l21.28,7.09.16.12.94.31-.74,2.22-22.41-7.46.76-2.28Zm10.32-9.21l.88.29-5.69,17.09-.88-.29,5.69-17.09Z"/>
  <path class="cls-1" d="m215.93,376.94c-.76-1.13-1.33-2.29-1.7-3.49-.34-1.19-.41-2.4-.22-3.64.22-1.23.77-2.45,1.65-3.67.88-1.21,2.19-2.41,3.94-3.59,1.48-1,2.91-1.76,4.26-2.26,1.39-.5,2.69-.76,3.91-.79,1.22-.02,2.36.17,3.44.57,1.07.41,2.08,1.02,3.01,1.83.95.83,1.81,1.83,2.6,2.99.35.51.66,1.02.95,1.52.3.52.58,1.05.84,1.59.26.54.51,1.1.74,1.66l-1.22.82c-.32-.71-.66-1.37-1-1.99-.33-.6-.7-1.21-1.12-1.83-.82-1.22-1.65-2.15-2.48-2.81-.81-.63-1.7-.99-2.65-1.07-.92-.07-1.98.14-3.17.63-1.17.48-2.52,1.24-4.06,2.28.61-.05,1.19,0,1.74.18.56.19,1.09.45,1.58.79.49.34.94.74,1.36,1.21.42.46.8.96,1.16,1.49.66.97,1.14,1.95,1.44,2.93.3.98.4,1.94.29,2.89-.09.94-.41,1.83-.96,2.69-.54.88-1.35,1.68-2.43,2.41-1.15.78-2.29,1.25-3.41,1.41-1.11.15-2.17.05-3.19-.32-1.02-.37-1.99-.94-2.9-1.71-.9-.76-1.71-1.68-2.44-2.75Zm1.14-1c.43.64.88,1.14,1.34,1.53.49.39,1.04.62,1.64.71.6.08,1.27,0,2.01-.28.77-.27,1.66-.74,2.67-1.42,1.03-.69,1.81-1.35,2.34-1.97.55-.6.89-1.19,1.04-1.78.17-.58.16-1.17-.03-1.76-.16-.58-.46-1.19-.89-1.83-.43-.64-.89-1.15-1.38-1.54-.48-.4-1.02-.64-1.64-.71-.6-.08-1.28,0-2.06.27-.76.28-1.65.77-2.68,1.46-1.01.68-1.78,1.32-2.33,1.92-.52.61-.85,1.2-1.01,1.76-.14.59-.13,1.18.05,1.78.19.59.5,1.2.93,1.84Z"/>
  <path class="cls-1" d="m136.66,360.3c-.11-1-.18-2.05-.2-3.16-.02-1.09,0-2.16.08-3.2l1.14-.13c0,.88,0,1.77.02,2.67.02.9.08,1.8.18,2.68.19,1.7.52,3.07.99,4.11.48,1.04,1.16,1.77,2.02,2.18.87.44,1.96.58,3.27.43,1.29-.15,2.29-.52,3-1.12.73-.58,1.21-1.37,1.43-2.39.25-.99.29-2.2.13-3.62l-.4-3.46,1.27-.15.38,3.34c.11.93.26,1.77.45,2.52.21.75.51,1.37.89,1.86.38.51.88.88,1.51,1.08.63.23,1.42.29,2.37.18,1.31-.15,2.27-.53,2.87-1.13.6-.61.95-1.44,1.07-2.51.12-1.04.09-2.3-.08-3.76-.1-.89-.25-1.77-.43-2.65-.17-.88-.36-1.75-.59-2.61l1.14-.13c.31,1,.58,2.03.81,3.1.23,1.09.41,2.13.52,3.13.14,1.21.19,2.38.15,3.53-.04,1.14-.22,2.18-.54,3.12-.32.96-.82,1.75-1.5,2.36-.68.61-1.6.99-2.77,1.12-.81.09-1.59.01-2.35-.25-.74-.26-1.4-.73-2-1.41s-1.09-1.61-1.48-2.79c-.04.95-.2,1.79-.48,2.54-.26.76-.62,1.4-1.1,1.93-.45.55-1,.97-1.66,1.29-.65.33-1.39.55-2.21.64-1.29.15-2.41,0-3.34-.45-.93-.43-1.7-1.09-2.32-1.99-.62-.88-1.11-1.91-1.48-3.11-.35-1.18-.6-2.44-.76-3.78Z"/>
  <path class="cls-1" d="m165.4,357.79c-.19-.98-.35-2.03-.46-3.14-.11-1.09-.16-2.15-.17-3.19l1.13-.22c.06.88.14,1.77.23,2.66.09.9.22,1.78.39,2.66.33,1.67.77,3.01,1.31,4.01.57,1,1.3,1.67,2.19,2.01.9.37,2,.42,3.29.17,1.28-.25,2.24-.7,2.9-1.35.68-.63,1.09-1.47,1.24-2.49.17-1.01.12-2.22-.16-3.62l-.68-3.42,1.26-.25.65,3.3c.18.92.4,1.75.65,2.48.27.73.62,1.32,1.04,1.79.42.48.95.8,1.59.96.64.18,1.44.17,2.38-.01,1.3-.26,2.22-.71,2.76-1.36s.83-1.51.86-2.58c.03-1.05-.09-2.3-.38-3.74-.17-.88-.39-1.75-.65-2.61-.24-.87-.5-1.72-.8-2.55l1.13-.22c.39.97.74,1.97,1.05,3.02.32,1.07.58,2.09.77,3.08.24,1.19.38,2.36.43,3.5.05,1.14-.05,2.2-.29,3.16-.24.98-.68,1.81-1.31,2.48-.63.67-1.52,1.11-2.67,1.34-.8.16-1.58.14-2.36-.06-.76-.2-1.46-.61-2.11-1.25-.65-.63-1.21-1.52-1.7-2.67.04.95-.06,1.81-.28,2.57-.19.78-.51,1.45-.94,2.01-.41.58-.92,1.05-1.55,1.42-.62.38-1.34.65-2.15.82-1.28.25-2.4.19-3.36-.18-.96-.35-1.79-.95-2.47-1.8-.68-.82-1.26-1.82-1.73-2.99-.44-1.15-.8-2.39-1.06-3.71Z"/>
  <path class="cls-1" d="m191.15,353.71c-.19-.98-.35-2.03-.46-3.14-.11-1.09-.16-2.15-.17-3.19l1.13-.22c.06.88.14,1.77.23,2.66.09.9.22,1.78.4,2.66.33,1.67.77,3.01,1.31,4.01.57,1,1.3,1.67,2.19,2.01.9.37,2,.42,3.29.17,1.28-.25,2.24-.7,2.9-1.35.68-.63,1.09-1.47,1.24-2.49.17-1.01.12-2.22-.16-3.62l-.68-3.42,1.26-.25.65,3.3c.18.92.4,1.75.65,2.48.27.73.62,1.32,1.04,1.79.42.48.95.8,1.59.96.64.18,1.44.17,2.38-.01,1.3-.26,2.22-.71,2.77-1.36.55-.65.83-1.51.86-2.58.03-1.05-.09-2.3-.38-3.74-.17-.88-.39-1.75-.65-2.61-.24-.87-.5-1.72-.8-2.55l1.13-.22c.39.97.74,1.97,1.05,3.02.32,1.07.58,2.09.77,3.08.24,1.19.38,2.36.43,3.5.05,1.14-.05,2.2-.29,3.16-.24.98-.68,1.81-1.31,2.48-.63.67-1.52,1.11-2.67,1.34-.8.16-1.58.14-2.36-.06-.76-.2-1.46-.61-2.11-1.25-.65-.63-1.21-1.52-1.7-2.67.03.95-.06,1.8-.28,2.57-.19.78-.51,1.45-.94,2.01-.41.58-.92,1.05-1.55,1.42-.62.38-1.34.65-2.15.82-1.28.25-2.4.19-3.36-.18-.96-.35-1.79-.95-2.47-1.8-.68-.82-1.26-1.82-1.73-2.98-.44-1.15-.8-2.39-1.06-3.71Z"/>
  <path class="cls-1" d="m146.78,330.91l.21.84-4.53,8.32c-.54.98-1.02,1.89-1.45,2.71-.44.84-.78,1.63-1.02,2.37-.21.61-.34,1.19-.39,1.75-.05.57,0,1.14.14,1.7.22.87.55,1.55.98,2.03.41.49.92.83,1.53,1.03.61.21,1.31.28,2.11.22.8-.05,1.68-.2,2.66-.45.69-.18,1.36-.4,2.03-.66.67-.25,1.28-.49,1.84-.73l.19.73c-.36.19-.73.36-1.11.51-.38.16-.78.3-1.19.45-.4.16-.8.3-1.19.42-.39.12-.78.23-1.16.32-1.1.28-2.13.45-3.08.49-.96.07-1.83,0-2.6-.23s-1.42-.64-1.93-1.24c-.54-.6-.93-1.4-1.19-2.41-.18-.72-.24-1.44-.17-2.15.06-.69.22-1.41.49-2.18.28-.8.65-1.66,1.11-2.56.45-.89.98-1.87,1.59-2.95l3.72-6.84-11.02,2.8-.21-.81,13.65-3.47Z"/>
  <path class="cls-1" d="m162.81,351.07l-1.08-.89-1.75-10.11c-.13-.85-.26-1.63-.4-2.35-.13-.73-.3-1.38-.51-1.94-.18-.51-.41-.96-.67-1.35-.28-.4-.6-.74-.96-1.04-.64-.52-1.24-.83-1.81-.93-.57-.13-1.13-.09-1.68.11-.55.2-1.09.53-1.61,1-.54.45-1.07,1-1.6,1.65-.44.53-.84,1.08-1.21,1.65-.37.57-.7,1.09-1,1.57l-.98-.8c.2-.39.42-.78.66-1.16.23-.39.47-.78.74-1.17.27-.39.53-.76.8-1.12.25-.37.52-.72.79-1.05.91-1.11,1.79-2.01,2.63-2.69.84-.71,1.67-1.18,2.46-1.42.8-.27,1.58-.3,2.36-.1.79.19,1.57.59,2.33,1.22.55.45,1,.96,1.35,1.54.36.56.66,1.19.91,1.9.26.74.47,1.56.64,2.44.17.89.34,1.83.5,2.84l1.22,7.4,6.45-7.89,1.06.87-9.66,11.82Z"/>
  <path class="cls-1" d="m225.66,326.62c-1.76.34-3.36.36-4.81.07-1.45-.31-2.71-.9-3.79-1.78-1.06-.88-1.95-2.01-2.66-3.37-.72-1.38-1.25-2.97-1.6-4.78s-.43-3.47-.27-5c.16-1.55.57-2.93,1.23-4.14.68-1.22,1.64-2.22,2.88-3.03,1.23-.82,2.73-1.4,4.49-1.74,1.78-.34,3.38-.35,4.78-.03,1.42.29,2.68.88,3.76,1.76s1.98,2.01,2.7,3.39c.72,1.36,1.25,2.94,1.59,4.75.34,1.8.44,3.48.28,5.03-.16,1.53-.59,2.9-1.27,4.12-.68,1.22-1.63,2.23-2.84,3.05-1.2.79-2.68,1.36-4.46,1.7Zm-.39-2.04c.84-.16,1.49-.44,1.96-.83.49-.42.79-1.02.93-1.81.15-.79.16-1.82.03-3.1-.12-1.3-.36-2.93-.74-4.88-.36-1.91-.73-3.48-1.1-4.71-.35-1.26-.74-2.24-1.18-2.93-.42-.7-.93-1.16-1.53-1.37-.58-.21-1.29-.24-2.13-.08-.84.16-1.5.45-1.98.87-.46.41-.78,1.03-.95,1.84-.15.81-.16,1.87-.05,3.17.14,1.28.39,2.87.75,4.78.37,1.95.73,3.55,1.08,4.81.36,1.23.76,2.19,1.2,2.87.46.67.97,1.12,1.56,1.33.6.19,1.32.2,2.16.04Z"/>
  <path class="cls-1" d="m228.86,341.04c.65-.2,1.14-.43,1.46-.71.33-.3.5-.75.49-1.35,0-.6-.19-1.49-.54-2.68-.32-1.06-.65-1.85-.99-2.38-.34-.52-.73-.83-1.18-.91-.44-.11-.98-.07-1.63.13-.65.2-1.14.47-1.46.81-.3.32-.45.78-.44,1.41,0,.62.18,1.46.5,2.52.36,1.18.7,2.03,1.03,2.53.33.5.71.79,1.13.86.44.05.98-.03,1.64-.23Zm4.03,13.29c-1.8.54-3.4.86-4.82.96-1.42.1-2.66,0-3.71-.32-1.05-.31-1.91-.8-2.59-1.49-.68-.71-1.18-1.58-1.5-2.62-.23-.76-.33-1.5-.31-2.25.04-.75.25-1.48.64-2.2.38-.72.99-1.41,1.81-2.09.82-.69,1.9-1.34,3.25-1.96l6.62-2c1.46-.24,2.73-.3,3.79-.18,1.06.1,1.94.35,2.66.73.72.38,1.29.88,1.72,1.48.45.6.79,1.28,1.02,2.03.42,1.39.39,2.7-.08,3.94-.45,1.23-1.38,2.35-2.8,3.35-1.39,1-3.29,1.87-5.7,2.6Zm-.65-2.14c.65-.2,1.16-.48,1.51-.86.35-.4.53-.94.54-1.64.03-.7-.12-1.61-.46-2.74-.35-1.14-.73-2.01-1.15-2.59-.41-.61-.87-1-1.38-1.15s-1.1-.14-1.75.06c-.65.2-1.15.5-1.49.92-.34.42-.52.99-.54,1.74,0,.71.16,1.64.51,2.79.34,1.12.71,1.97,1.1,2.54.42.57.88.91,1.39,1.05.5.11,1.08.07,1.74-.12Zm-6.22-8.28c-1.32.27-2.47.36-3.43.27-.96-.09-1.77-.3-2.43-.63-.66-.34-1.19-.78-1.6-1.32-.42-.57-.73-1.18-.93-1.86-.42-1.37-.41-2.62,0-3.75.43-1.16,1.32-2.2,2.66-3.15,1.34-.94,3.19-1.77,5.54-2.48,1.78-.54,3.34-.85,4.69-.95,1.37-.12,2.54-.04,3.52.24.98.28,1.78.76,2.41,1.44.62.66,1.09,1.5,1.4,2.52.2.67.29,1.36.26,2.06-.04.68-.24,1.34-.6,1.99-.36.64-.92,1.27-1.67,1.88-.75.61-1.75,1.17-3,1.68l-6.8,2.06Z"/>
  <path class="cls-1" d="m212.56,287.77l.61-1.04,13.69,6.71.09,1.36-14.39-7.03Zm-3.84,9.03l16.76-3.27.14.18,1.25-.24.66,3.41-18.11,3.53-.7-3.61Zm3.25-9.83l1.2-.23,2.91,14.94-1.2.23-2.91-14.94Z"/>
  <path class="cls-1" d="m327.69,292.57l21.46-7.28-1.42-4.18.91-.31,2.19,6.46-22.36,7.59-.77-2.27Z"/>
  <path class="cls-1" d="m329.22,297.94l22.34-3.75-.73-4.35.95-.16,1.13,6.72-23.29,3.91-.4-2.37Z"/>
  <path class="cls-1" d="m330.03,302.09l22.43,3.21.63-4.37.95.14-.97,6.75-23.38-3.35.34-2.38Z"/>
  <path class="cls-1" d="m329.1,306.39l21.67,6.61,1.29-4.22.92.28-1.99,6.52-22.59-6.89.7-2.3Z"/>
  <path class="cls-1" d="m327.87,310.76l20.19,10.28,2-3.94.85.44-3.09,6.07-21.05-10.71,1.09-2.14Z"/>
  <path class="cls-1" d="m324.98,315.62l18.1,13.63,2.66-3.53.77.58-4.1,5.44-18.87-14.21,1.44-1.92Z"/>
  <path class="cls-1" d="m246.25,341.23c-.19-.98-.33-2.03-.43-3.14-.1-1.09-.15-2.15-.15-3.2l1.13-.21c.06.88.13,1.77.21,2.66.08.9.21,1.79.38,2.67.32,1.68.75,3.02,1.28,4.02.56,1,1.28,1.68,2.18,2.03.9.37,1.99.44,3.29.19,1.28-.24,2.25-.69,2.91-1.33.68-.63,1.1-1.46,1.26-2.48.18-1.01.13-2.22-.13-3.62l-.65-3.43,1.26-.24.63,3.3c.18.92.39,1.75.63,2.48.27.73.61,1.33,1.02,1.79.42.49.95.81,1.58.97.64.18,1.44.18,2.38,0,1.3-.25,2.22-.69,2.77-1.34.55-.65.84-1.51.88-2.58.04-1.05-.08-2.3-.35-3.74-.17-.88-.38-1.75-.63-2.62-.23-.87-.49-1.72-.78-2.56l1.13-.21c.38.97.72,1.98,1.03,3.03.31,1.07.56,2.1.75,3.08.23,1.19.36,2.36.4,3.51s-.06,2.19-.31,3.15c-.25.98-.69,1.8-1.32,2.47-.63.66-1.53,1.1-2.68,1.32-.8.15-1.58.13-2.36-.07-.76-.2-1.45-.62-2.1-1.26-.64-.64-1.2-1.53-1.68-2.68.03.95-.07,1.81-.29,2.56-.2.78-.52,1.45-.96,2.01-.41.58-.93,1.05-1.56,1.4-.62.38-1.34.65-2.16.8-1.28.24-2.4.17-3.36-.21-.96-.36-1.78-.97-2.46-1.81-.68-.83-1.25-1.83-1.71-3-.44-1.15-.78-2.39-1.03-3.71Z"/>
  <path class="cls-1" d="m271.89,335.35c-.19-.99-.33-2.03-.43-3.14-.1-1.09-.15-2.15-.15-3.2l1.13-.21c.06.88.13,1.77.21,2.66.08.9.21,1.78.38,2.66.32,1.68.75,3.02,1.28,4.02.56,1,1.29,1.68,2.18,2.03.9.37,1.99.44,3.29.19,1.28-.24,2.25-.69,2.91-1.33.68-.63,1.1-1.46,1.25-2.49.18-1.01.13-2.22-.13-3.62l-.65-3.43,1.26-.24.63,3.3c.18.92.39,1.75.63,2.49.27.73.61,1.33,1.02,1.79.42.49.95.81,1.58.97.64.18,1.43.18,2.38,0,1.3-.25,2.22-.69,2.78-1.34.55-.65.84-1.51.88-2.58.04-1.05-.08-2.3-.35-3.74-.17-.88-.38-1.75-.63-2.62-.23-.87-.49-1.72-.78-2.56l1.13-.21c.38.97.72,1.98,1.03,3.03.31,1.07.56,2.1.75,3.08.23,1.19.36,2.36.4,3.51.04,1.14-.06,2.19-.31,3.15-.25.98-.69,1.8-1.32,2.47s-1.53,1.1-2.68,1.32c-.8.15-1.58.13-2.36-.07-.75-.2-1.45-.62-2.1-1.26-.64-.64-1.2-1.53-1.68-2.68.03.95-.07,1.8-.3,2.56-.2.78-.52,1.44-.96,2.01-.41.58-.93,1.04-1.56,1.4-.62.38-1.34.65-2.16.8-1.28.24-2.4.17-3.36-.21-.96-.36-1.78-.96-2.46-1.81-.68-.83-1.25-1.83-1.71-3-.44-1.15-.78-2.39-1.03-3.71Z"/>
  <path class="cls-1" d="m299.52,329.32c-.19-.99-.33-2.03-.43-3.14-.1-1.09-.15-2.15-.15-3.2l1.13-.21c.06.88.13,1.77.21,2.66.08.9.21,1.79.38,2.67.32,1.68.75,3.02,1.28,4.02.56,1,1.28,1.68,2.18,2.03.9.37,1.99.44,3.29.19,1.28-.24,2.25-.69,2.91-1.33.68-.63,1.1-1.46,1.26-2.49.18-1.01.13-2.22-.13-3.62l-.65-3.43,1.26-.24.62,3.3c.17.92.39,1.75.63,2.49.27.73.61,1.33,1.02,1.79.42.49.95.81,1.59.97.64.18,1.43.18,2.38,0,1.3-.25,2.22-.69,2.77-1.34.55-.65.84-1.51.88-2.58.04-1.05-.08-2.3-.35-3.74-.17-.88-.38-1.75-.63-2.62-.23-.87-.49-1.72-.78-2.56l1.13-.22c.38.97.72,1.98,1.03,3.03.31,1.07.56,2.1.75,3.08.23,1.2.36,2.36.4,3.51.04,1.14-.06,2.19-.31,3.15-.25.98-.69,1.8-1.32,2.47-.63.66-1.53,1.1-2.68,1.32-.8.15-1.58.13-2.36-.07-.76-.2-1.45-.62-2.1-1.26-.64-.64-1.2-1.53-1.68-2.68.03.95-.07,1.8-.29,2.56-.2.78-.52,1.45-.96,2.01-.41.58-.93,1.04-1.56,1.4-.62.38-1.34.65-2.16.8-1.28.24-2.4.17-3.36-.21-.96-.36-1.78-.96-2.46-1.81-.68-.83-1.25-1.83-1.71-3-.44-1.16-.78-2.39-1.03-3.71Z"/>
  <path class="cls-1" d="m293.32,298.11l.21.84-4.59,8.28c-.55.98-1.04,1.88-1.47,2.7-.45.84-.79,1.63-1.03,2.36-.21.61-.35,1.19-.41,1.74-.05.57,0,1.14.13,1.7.21.87.54,1.55.96,2.04.41.49.92.84,1.53,1.04.61.22,1.31.29,2.1.23.8-.04,1.68-.18,2.66-.43.69-.17,1.37-.38,2.03-.65.67-.24,1.29-.48,1.84-.71l.18.73c-.36.18-.73.35-1.11.51-.39.15-.78.3-1.19.44-.4.16-.8.29-1.2.41-.39.12-.78.22-1.16.31-1.11.27-2.13.43-3.08.47-.96.07-1.83-.02-2.6-.25-.77-.23-1.41-.65-1.93-1.26-.53-.6-.92-1.41-1.17-2.42-.18-.72-.23-1.44-.16-2.15.06-.69.23-1.41.5-2.17.28-.8.66-1.65,1.13-2.56.46-.88.99-1.86,1.61-2.93l3.77-6.81-11.04,2.72-.2-.82,13.68-3.37Z"/>
  <path class="cls-1" d="m310.52,316.55c-1.34-.07-2.58-.32-3.71-.76-1.11-.44-2.07-1.11-2.88-2-.79-.91-1.38-2.09-1.78-3.52-.4-1.43-.55-3.18-.44-5.24.09-1.73.32-3.27.71-4.64.39-1.37.92-2.55,1.59-3.54.67-1.01,1.47-1.84,2.4-2.48.93-.66,1.99-1.13,3.18-1.41,1.19-.28,2.5-.39,3.93-.32.57.03,1.13.08,1.66.15.55.07,1.09.16,1.62.27.55.11,1.11.25,1.68.4l-.06,1.15c-.72-.14-1.41-.26-2.07-.36-.66-.12-1.36-.2-2.1-.23-1.53-.08-2.84.05-3.93.38-1.06.33-1.93.9-2.62,1.7-.66.8-1.17,1.86-1.54,3.19-.34,1.31-.56,2.91-.66,4.8.33-.62.74-1.13,1.23-1.51.49-.4,1.04-.71,1.65-.91.61-.23,1.25-.36,1.91-.42.67-.07,1.34-.09,2.02-.06,1.13.06,2.17.26,3.11.6.96.35,1.79.85,2.49,1.5.69.65,1.22,1.47,1.58,2.45.38.96.54,2.09.47,3.39-.07,1.38-.37,2.57-.91,3.54-.52.98-1.22,1.76-2.1,2.36-.86.58-1.84.99-2.95,1.23-1.1.24-2.26.34-3.47.27Zm-.07-1.22c.85.04,1.61-.01,2.28-.17.69-.18,1.29-.49,1.78-.94.49-.47.88-1.1,1.15-1.9.3-.8.48-1.81.54-3.05.06-1.26-.01-2.3-.23-3.12-.19-.84-.51-1.52-.96-2.03-.44-.51-1-.88-1.68-1.11-.65-.25-1.4-.39-2.25-.43-.85-.04-1.62.03-2.32.21-.67.16-1.26.47-1.78.94-.49.47-.89,1.11-1.19,1.93-.27.8-.44,1.82-.51,3.08-.06,1.24,0,2.26.2,3.09.22.82.55,1.49.99,2,.45.49,1,.86,1.67,1.11.67.23,1.43.36,2.29.4Z"/>
  <path class="cls-1" d="m265.58,404.22c-.57.41-1.17.83-1.79,1.23-.63.41-1.27.8-1.92,1.17-.64.36-1.29.7-1.95,1.02l-.51-.7c.79-.44,1.6-.9,2.44-1.38.84-.51,1.67-1.06,2.48-1.65,1.09-.79,1.92-1.56,2.51-2.31.6-.78.97-1.54,1.14-2.3.18-.76.14-1.54-.12-2.33-.25-.82-.7-1.66-1.32-2.52-.84-1.15-1.73-1.93-2.66-2.34-.94-.42-1.96-.48-3.06-.18-1.08.29-2.31.94-3.69,1.94l-4.24,3.09-6.15-8.42,11.14-8.13.57.78-9.25,6.76,5.02,6.87,2.79-2.04c1.31-.96,2.53-1.66,3.65-2.11,1.11-.47,2.15-.7,3.11-.68.96.01,1.86.27,2.7.76.83.48,1.59,1.19,2.28,2.14.73,1,1.2,1.99,1.41,2.97.21.98.19,1.94-.08,2.87s-.78,1.86-1.53,2.78c-.75.92-1.74,1.82-2.94,2.7Z"/>
  <path class="cls-1" d="m271.15,322.75l-28.4-7.82,2.67,14.81-1.46.26-3.49-19.33,1.46-.26,28.39,7.78.82,4.56Z"/>
  <path class="cls-1" d="m198.8,320.13c.52-.24,1.03-.46,1.53-.65.5-.19,1.02-.36,1.56-.52.52-.15,1.07-.29,1.64-.41l.49,1.04c-.7.21-1.36.41-1.98.61-.63.22-1.28.49-1.95.81-1.37.64-2.45,1.34-3.22,2.11-.78.79-1.29,1.68-1.5,2.68-.23,1.02-.2,2.2.09,3.52.29,1.32.83,2.86,1.62,4.61,0-.71.13-1.36.4-1.95.25-.57.6-1.08,1.04-1.55.42-.46.91-.87,1.46-1.25.55-.38,1.14-.71,1.76-1,1-.47,2.02-.77,3.04-.89,1-.12,1.97-.05,2.89.2.93.27,1.78.76,2.55,1.46.77.7,1.44,1.64,1.99,2.82.6,1.28.89,2.46.88,3.54-.03,1.1-.29,2.1-.78,3.01-.48.93-1.15,1.75-2,2.45-.86.73-1.83,1.35-2.91,1.86-1.24.58-2.45.93-3.64,1.06-1.21.14-2.37-.01-3.5-.45-1.14-.41-2.21-1.16-3.23-2.23-1.02-1.08-1.97-2.54-2.86-4.39-.75-1.56-1.28-3.03-1.57-4.42-.32-1.38-.42-2.68-.3-3.89.12-1.21.44-2.33.98-3.35.52-1,1.24-1.9,2.16-2.71s2.04-1.52,3.35-2.13Zm2.52,9.85c-.77.36-1.41.78-1.92,1.25-.53.48-.91,1.04-1.13,1.66-.24.65-.29,1.4-.15,2.26.13.88.46,1.88.98,3,.51,1.1,1.06,1.97,1.65,2.62.56.65,1.16,1.1,1.78,1.32.63.25,1.3.32,2.01.23.69-.09,1.43-.32,2.22-.69.77-.36,1.42-.78,1.95-1.26.51-.47.87-1.03,1.09-1.68.23-.62.28-1.37.16-2.23-.14-.85-.47-1.83-.98-2.93-.52-1.12-1.07-2.02-1.65-2.69-.58-.64-1.19-1.09-1.83-1.34-.62-.23-1.28-.3-1.97-.21-.71.1-1.45.32-2.22.69Z"/>
  <path class="cls-1" d="m274.52,314.75l-.47.92-14.89-5.85-.04-1.1,15.4,6.04Zm3.14-10.04l-17.32,4.88-.16-.09-1.03.29-.75-2.65,18.47-5.2.78,2.78Zm-2.63,10.68l-.98.27-4.13-14.66.98-.28,4.13,14.67Z"/>
  <path class="cls-1" d="m170.15,331.22c-.12-.58-.22-1.18-.3-1.82-.09-.62-.17-1.25-.24-1.89-.04-.63-.08-1.25-.12-1.86l.92-.19c.07.78.16,1.57.25,2.36.1.81.23,1.61.39,2.39.21,1,.49,1.82.83,2.46.35.65.76,1.15,1.24,1.49.5.34,1.07.54,1.72.6.65.08,1.39.03,2.2-.14,1.09-.23,1.92-.6,2.5-1.11.6-.51.97-1.2,1.11-2.04.15-.83.09-1.85-.16-3.07l-.91-4.38,8.45-1.76,2.41,11.55-.99.21-1.85-8.86-6.44,1.34.57,2.72c.26,1.26.36,2.37.3,3.34-.05.97-.25,1.79-.6,2.46-.35.69-.84,1.26-1.48,1.69-.62.43-1.38.74-2.28.93-1.04.22-1.97.23-2.81.03-.82-.2-1.54-.58-2.15-1.14-.61-.56-1.14-1.3-1.57-2.2-.42-.89-.75-1.93-.99-3.11Z"/>
</svg>